<svg width="464" height="476" viewBox="0 0 464 476" fill="none" xmlns="http://www.w3.org/2000/svg">
<g filter="url(#filter0_d_507_994)">
<path d="M306.606 126.412C301.789 126.907 293.1 128.618 288.373 129.968C281.53 131.949 275.498 134.2 275.227 134.876C275.137 135.191 275.543 136.676 276.173 138.207C279.144 145.59 280.27 155.494 278.739 160.987C275.948 170.936 267.439 176.608 257.31 175.213C251.007 174.312 244.749 171.611 238.852 167.199C237.141 165.894 235.61 164.813 235.43 164.813C235.025 164.813 229.353 172.512 226.697 176.743C224.041 180.975 218.638 191.645 218.143 193.626C217.918 194.661 218.143 194.841 220.979 196.012C229.668 199.568 237.546 206.771 240.473 213.884C241.913 217.396 241.913 223.924 240.518 227.12C236.736 235.449 227.102 241.436 214.586 243.192L210.715 243.732L210.985 246.028C211.975 254.582 214.496 265.071 217.423 272.634C219.404 277.767 219.133 277.542 222.24 276.281C227.552 274.12 232.189 273.175 237.726 273.175C247.946 273.13 254.699 276.686 258.12 284.024C261.767 291.813 259.291 303.518 251.997 313.107C250.737 314.817 249.476 316.528 249.206 316.843C248.846 317.339 249.206 317.879 250.557 319.049C255.554 323.416 268.61 331.114 276.263 334.221L279.009 335.346L280.54 331.925C284.096 323.821 290.354 316.573 296.296 313.647C304.58 309.595 311.693 310.811 318.311 317.384C322.993 322.066 326.819 330.754 327.585 338.408C327.765 339.938 328.035 341.469 328.215 341.784C328.53 342.234 329.701 342.189 334.338 341.559C341.586 340.523 349.104 338.723 355.677 336.337C358.513 335.301 361.214 334.356 361.664 334.221C362.115 334.086 362.385 333.726 362.25 333.455C356.892 321.435 356.082 311.126 359.909 303.157C366.121 290.237 382.823 289.292 398.4 301.042C400.246 302.392 401.867 303.383 402.047 303.157C405.963 298.746 412.131 289.066 415.822 281.548C419.649 273.805 419.649 273.58 416.318 272.139C408.484 268.808 400.336 261.83 397.59 256.112C394.213 248.999 394.799 242.607 399.345 236.574C403.892 230.541 413.707 225.724 423.341 224.824C425.862 224.599 426.357 224.419 426.357 223.698C426.357 222.168 425.006 213.884 424.106 209.788C422.44 202.269 418.434 190.924 417.443 190.924C417.218 190.924 416.048 191.33 414.922 191.87C410.645 193.716 404.388 195.021 399.345 195.021C389.216 195.021 382.463 191.33 379.042 183.947C375.215 175.843 377.916 164.768 386.38 153.739L388.541 150.902L384.039 147.526C381.563 145.68 377.601 142.979 375.215 141.583C370.173 138.612 360.269 133.795 358.873 133.66C358.063 133.525 357.658 134.02 356.577 136.586C353.066 144.735 346.808 151.893 340.46 155.044C336.679 156.89 336.499 156.935 332.042 156.935C327.765 156.935 327.315 156.845 324.478 155.404C320.967 153.604 316.6 149.282 314.394 145.41C312.413 141.899 310.387 135.911 309.757 131.724C309.037 126.772 308.902 126.097 308.497 126.187C308.317 126.187 307.461 126.322 306.606 126.412ZM329.115 170.441C349.014 173.727 366.752 186.693 376.025 204.7C378.457 209.427 380.933 216.225 382.058 221.538C383.229 226.94 383.274 241.301 382.103 246.748C378.727 262.595 369.813 276.551 357.072 286.14C350.049 291.452 339.875 295.954 330.691 297.89C325.064 299.061 312.053 299.106 306.606 297.935C292.875 295.009 281.305 288.661 271.941 278.847C263.162 269.708 257.805 259.489 255.014 246.748C253.798 241.346 253.798 227.48 254.969 221.988C259.291 201.684 271.716 185.432 289.949 176.293C302.014 170.261 315.52 168.235 329.115 170.441Z" fill="#75B9AD"/>
<path d="M312.683 177.688C291.028 180.074 272.345 194.706 265.007 215.144C260.955 226.489 260.775 240.355 264.557 252.015C267.258 260.344 271.85 267.817 278.243 274.21C289.318 285.329 302.778 290.867 318.535 290.867C333.301 290.867 346.087 286.005 356.756 276.37C368.596 265.656 375.124 250.935 375.169 234.818C375.259 224.913 373.639 217.8 369.452 209.157C361.934 193.805 348.023 182.73 331.411 178.949C326.684 177.868 317.004 177.238 312.683 177.688ZM324.388 185.116C335.507 186.467 345.186 191.194 353.245 199.207C364.005 209.922 369.407 224.508 367.831 238.869C365.445 261.154 349.193 278.937 327.449 283.033C321.506 284.114 311.422 283.709 305.75 282.133C287.292 276.956 273.381 261.919 269.869 243.281C269.014 238.644 268.924 230.271 269.689 226.039C270.905 219.331 273.966 211.903 277.883 206.05C280.629 201.999 286.932 195.876 291.433 192.95C301.608 186.332 312.728 183.676 324.388 185.116Z" fill="#75B9AD"/>
<path d="M194.724 321.856C194.724 354.456 170.134 379.743 141.163 379.743C112.192 379.743 87.6016 354.456 87.6016 321.856C87.6016 289.255 112.192 263.968 141.163 263.968C170.134 263.968 194.724 289.255 194.724 321.856Z" stroke="#75B9AD" stroke-width="20"/>
<path d="M132.891 214.267C128.074 214.762 119.385 216.473 114.658 217.823C107.815 219.804 101.783 222.055 101.513 222.73C101.423 223.045 101.828 224.531 102.458 226.062C105.429 233.445 106.555 243.349 105.024 248.841C102.233 258.791 93.7242 264.463 83.5949 263.068C77.2922 262.167 71.0345 259.466 65.137 255.054C63.4263 253.749 61.8956 252.668 61.7156 252.668C61.3104 252.668 55.638 260.366 52.9818 264.598C50.3257 268.83 44.9234 279.5 44.4282 281.48C44.2031 282.516 44.4282 282.696 47.2644 283.866C55.9531 287.423 63.8315 294.626 66.7577 301.739C68.1983 305.251 68.1983 311.778 66.8027 314.975C63.0211 323.303 53.387 329.291 40.8717 331.047L37 331.587L37.2701 333.883C38.2605 342.436 40.7816 352.926 43.7079 360.489C45.6887 365.621 45.4186 365.396 48.5249 364.136C53.8372 361.975 58.4742 361.029 64.0115 361.029C74.2309 360.984 80.9838 364.541 84.4053 371.879C88.0518 379.667 85.5758 391.372 78.2826 400.961C77.0221 402.672 75.7616 404.383 75.4915 404.698C75.1313 405.193 75.4915 405.733 76.842 406.904C81.8392 411.271 94.8947 418.969 102.548 422.075L105.294 423.201L106.825 419.779C110.381 411.676 116.639 404.428 122.582 401.502C130.865 397.45 137.978 398.665 144.596 405.238C149.278 409.92 153.105 418.609 153.87 426.262C154.05 427.793 154.32 429.324 154.5 429.639C154.815 430.089 155.986 430.044 160.623 429.414C167.871 428.378 175.389 426.577 181.962 424.191C184.798 423.156 187.499 422.211 187.95 422.075C188.4 421.94 188.67 421.58 188.535 421.31C183.177 409.29 182.367 398.981 186.194 391.012C192.406 378.092 209.109 377.146 224.685 388.896C226.531 390.247 228.152 391.237 228.332 391.012C232.248 386.6 238.416 376.921 242.108 369.403C245.934 361.66 245.934 361.435 242.603 359.994C234.77 356.663 226.621 349.685 223.875 343.967C220.498 336.854 221.084 330.461 225.631 324.429C230.178 318.396 239.992 313.579 249.626 312.679C252.147 312.454 252.642 312.274 252.642 311.553C252.642 310.023 251.292 301.739 250.391 297.642C248.725 290.124 244.719 278.779 243.728 278.779C243.503 278.779 242.333 279.184 241.207 279.725C236.93 281.57 230.673 282.876 225.631 282.876C215.501 282.876 208.748 279.184 205.327 271.801C201.5 263.698 204.201 252.623 212.665 241.593L214.826 238.757L210.324 235.381C207.848 233.535 203.886 230.834 201.5 229.438C196.458 226.467 186.554 221.65 185.158 221.515C184.348 221.38 183.943 221.875 182.862 224.441C179.351 232.589 173.093 239.748 166.745 242.899C162.964 244.745 162.784 244.79 158.327 244.79C154.05 244.79 153.6 244.7 150.764 243.259C147.252 241.458 142.885 237.136 140.679 233.265C138.698 229.753 136.673 223.766 136.042 219.579C135.322 214.627 135.187 213.952 134.782 214.042C134.602 214.042 133.746 214.177 132.891 214.267ZM155.401 258.295C175.299 261.582 193.037 274.547 202.311 292.555C204.742 297.282 207.218 304.08 208.343 309.392C209.514 314.795 209.559 329.156 208.388 334.603C205.012 350.45 196.098 364.406 183.358 373.995C176.335 379.307 166.16 383.809 156.976 385.745C151.349 386.915 138.338 386.96 132.891 385.79C119.16 382.864 107.59 376.516 98.2262 366.702C89.4474 357.563 84.0901 347.344 81.2989 334.603C80.0834 329.201 80.0834 315.335 81.2539 309.842C85.5758 289.539 98.0011 273.287 116.234 264.148C128.299 258.115 141.805 256.09 155.401 258.295Z" fill="#75B9AD"/>
<path d="M136.204 33.1679C132.725 33.5255 126.45 34.761 123.036 35.7365C118.094 37.1671 113.737 38.7928 113.542 39.2805C113.477 39.5081 113.769 40.581 114.224 41.6865C116.37 47.0188 117.183 54.1718 116.078 58.1385C114.062 65.3241 107.917 69.4209 100.601 68.4129C96.0492 67.7627 91.5297 65.8118 87.2704 62.6255C86.0349 61.6826 84.9294 60.9022 84.7993 60.9022C84.5067 60.9022 80.41 66.4621 78.4917 69.5184C76.5733 72.5747 72.6717 80.2805 72.314 81.7111C72.1514 82.4589 72.314 82.589 74.3624 83.4344C80.6376 86.003 86.3275 91.2052 88.4409 96.3424C89.4813 98.8785 89.4813 103.593 88.4734 105.901C85.7423 111.917 78.7843 116.241 69.7454 117.509L66.9492 117.899L67.1443 119.557C67.8596 125.735 69.6804 133.311 71.7938 138.773C73.2244 142.48 73.0293 142.317 75.2728 141.407C79.1094 139.846 82.4583 139.163 86.4576 139.163C93.8382 139.131 98.7153 141.699 101.186 146.999C103.82 152.624 102.032 161.078 96.7645 168.003C95.8541 169.239 94.9437 170.474 94.7486 170.702C94.4885 171.059 94.7486 171.449 95.724 172.295C99.3331 175.449 108.762 181.009 114.289 183.252L116.273 184.065L117.378 181.594C119.947 175.741 124.466 170.507 128.758 168.393C134.741 165.467 139.878 166.345 144.657 171.092C148.039 174.473 150.803 180.748 151.355 186.276C151.485 187.381 151.68 188.487 151.81 188.714C152.038 189.04 152.883 189.007 156.232 188.552C161.467 187.804 166.897 186.503 171.644 184.78C173.692 184.032 175.643 183.35 175.968 183.252C176.293 183.154 176.489 182.894 176.391 182.699C172.522 174.018 171.937 166.572 174.7 160.817C179.187 151.486 191.25 150.803 202.5 159.289C203.833 160.265 205.003 160.98 205.133 160.817C207.962 157.631 212.416 150.641 215.083 145.211C217.846 139.618 217.846 139.456 215.44 138.415C209.783 136.009 203.898 130.97 201.914 126.84C199.476 121.703 199.899 117.086 203.182 112.729C206.466 108.373 213.554 104.894 220.512 104.243C222.333 104.081 222.691 103.951 222.691 103.43C222.691 102.325 221.715 96.3424 221.065 93.3836C219.862 87.9538 216.968 79.7603 216.253 79.7603C216.09 79.7603 215.245 80.0529 214.432 80.4431C211.343 81.7761 206.824 82.719 203.182 82.719C195.867 82.719 190.99 80.0529 188.519 74.7206C185.755 68.8681 187.706 60.8697 193.818 52.9038L195.379 50.8554L192.128 48.4169C190.339 47.0838 187.478 45.133 185.755 44.125C182.113 41.9791 174.96 38.5001 173.952 38.4026C173.367 38.3051 173.075 38.6627 172.294 40.516C169.758 46.401 165.239 51.5707 160.654 53.8467C157.923 55.1798 157.793 55.2123 154.574 55.2123C151.485 55.2123 151.16 55.1473 149.112 54.1068C146.576 52.8063 143.422 49.6849 141.829 46.8887C140.398 44.3526 138.935 40.0283 138.48 37.0045C137.96 33.428 137.862 32.9403 137.569 33.0053C137.439 33.0053 136.822 33.1028 136.204 33.1679ZM152.461 64.9665C166.832 67.34 179.642 76.704 186.34 89.7095C188.096 93.1235 189.884 98.0331 190.697 101.87C191.542 105.771 191.575 116.143 190.73 120.078C188.291 131.522 181.853 141.602 172.652 148.527C167.58 152.364 160.232 155.615 153.599 157.013C149.535 157.859 140.138 157.891 136.204 157.046C126.287 154.932 117.931 150.348 111.168 143.26C104.828 136.66 100.959 129.279 98.9429 120.078C98.065 116.176 98.065 106.162 98.9104 102.195C102.032 87.5311 111.006 75.7936 124.174 69.1933C132.887 64.8364 142.642 63.3733 152.461 64.9665Z" fill="#F9C499"/>
<path d="M140.595 70.201C124.956 71.9242 111.462 82.4912 106.163 97.2525C103.236 105.446 103.106 115.46 105.837 123.881C107.788 129.896 111.105 135.294 115.722 139.911C123.72 147.942 133.442 151.941 144.822 151.941C155.486 151.941 164.72 148.429 172.426 141.471C180.977 133.733 185.692 123.101 185.724 111.461C185.789 104.308 184.619 99.1709 181.595 92.9282C176.165 81.841 166.118 73.8425 154.121 71.1114C150.707 70.331 143.716 69.8758 140.595 70.201ZM149.048 75.5658C157.079 76.5412 164.07 79.9552 169.89 85.7426C177.661 93.4809 181.562 104.015 180.424 114.387C178.701 130.482 166.964 143.325 151.259 146.284C146.967 147.064 139.684 146.771 135.588 145.633C122.257 141.894 112.21 131.034 109.674 117.574C109.056 114.225 108.991 108.177 109.544 105.121C110.422 100.276 112.633 94.9115 115.462 90.6847C117.445 87.7585 121.997 83.3366 125.248 81.2232C132.596 76.4437 140.627 74.5253 149.048 75.5658Z" fill="#F9C499"/>
<rect x="127.512" y="72.9351" width="218.635" height="362.066" rx="63" fill="#75B9AD"/>
<rect x="138.367" y="84.5653" width="196.927" height="334.155" rx="46" fill="#F9C499"/>
<rect x="187.992" y="74.4862" width="98.4633" height="24.8097" rx="12.4048" fill="#75B9AD"/>
<path d="M168.648 238.029C168.648 230.861 174.459 225.05 181.627 225.05H289.849C297.017 225.05 302.827 230.861 302.827 238.029V262.084C302.827 269.252 297.017 275.063 289.849 275.063H181.627C174.459 275.063 168.648 269.252 168.648 262.084V238.029Z" fill="#75B9AD"/>
<path d="M190.605 265.914L203.25 234.199H209.823L222.376 265.914H214.525L208.499 249.83C208.256 249.195 208.012 248.516 207.769 247.791C207.526 247.066 207.282 246.326 207.039 245.571C206.795 244.785 206.552 244.03 206.308 243.305C206.095 242.55 205.913 241.855 205.76 241.221L207.13 241.176C206.947 241.931 206.734 242.671 206.491 243.396C206.278 244.121 206.05 244.846 205.806 245.571C205.593 246.265 205.35 246.975 205.076 247.7C204.802 248.395 204.543 249.12 204.3 249.875L198.274 265.914H190.605ZM196.631 259.842L199.05 254.043H213.749L216.123 259.842H196.631Z" fill="white"/>
<path d="M226.363 265.914V234.199H240.149C242.157 234.199 243.937 234.652 245.489 235.558C247.072 236.464 248.319 237.702 249.232 239.273C250.176 240.844 250.647 242.611 250.647 244.574C250.647 246.628 250.176 248.47 249.232 250.101C248.319 251.702 247.072 252.971 245.489 253.907C243.937 254.844 242.157 255.312 240.149 255.312H234.123V265.914H226.363ZM233.986 248.561H239.053C239.722 248.561 240.331 248.395 240.879 248.063C241.427 247.73 241.868 247.277 242.203 246.703C242.537 246.129 242.705 245.465 242.705 244.71C242.705 243.924 242.537 243.26 242.203 242.716C241.868 242.173 241.427 241.75 240.879 241.448C240.331 241.146 239.722 240.995 239.053 240.995H233.986V248.561Z" fill="white"/>
<path d="M256.587 265.914V234.199H270.372C272.381 234.199 274.161 234.652 275.713 235.558C277.296 236.464 278.543 237.702 279.456 239.273C280.4 240.844 280.871 242.611 280.871 244.574C280.871 246.628 280.4 248.47 279.456 250.101C278.543 251.702 277.296 252.971 275.713 253.907C274.161 254.844 272.381 255.312 270.372 255.312H264.347V265.914H256.587ZM264.21 248.561H269.277C269.946 248.561 270.555 248.395 271.103 248.063C271.65 247.73 272.092 247.277 272.426 246.703C272.761 246.129 272.929 245.465 272.929 244.71C272.929 243.924 272.761 243.26 272.426 242.716C272.092 242.173 271.65 241.75 271.103 241.448C270.555 241.146 269.946 240.995 269.277 240.995H264.21V248.561Z" fill="white"/>
<path d="M172.309 329.954V283.601H191.521C194.887 283.601 197.969 284.175 200.767 285.323C203.564 286.427 205.969 288.016 207.98 290.091C210.034 292.165 211.608 294.615 212.701 297.441C213.794 300.266 214.34 303.378 214.34 306.778C214.34 310.177 213.794 313.311 212.701 316.181C211.608 319.006 210.034 321.456 207.98 323.531C205.969 325.561 203.564 327.151 200.767 328.298C197.969 329.402 194.887 329.954 191.521 329.954H172.309ZM183.456 322.273L181.948 320.021H191.193C193.029 320.021 194.669 319.712 196.111 319.094C197.554 318.432 198.778 317.527 199.783 316.379C200.832 315.231 201.641 313.841 202.209 312.207C202.778 310.574 203.062 308.764 203.062 306.778C203.062 304.791 202.778 302.981 202.209 301.348C201.641 299.714 200.832 298.324 199.783 297.176C198.778 296.028 197.554 295.145 196.111 294.527C194.669 293.865 193.029 293.534 191.193 293.534H181.751L183.456 291.415V322.273Z" fill="#75B9AD"/>
<path d="M222.96 329.954V283.601H254.959V293.203H233.779V320.352H255.615V329.954H222.96ZM228.206 310.949V301.811H252.008V310.949H228.206Z" fill="#75B9AD"/>
<path d="M278.075 329.954L259.715 283.601H271.321L280.173 307.241C280.698 308.61 281.135 309.802 281.485 310.817C281.878 311.832 282.206 312.781 282.468 313.664C282.774 314.547 283.037 315.452 283.255 316.379C283.518 317.262 283.802 318.277 284.108 319.425H282.075C282.425 317.924 282.774 316.6 283.124 315.452C283.474 314.26 283.867 313.046 284.304 311.81C284.742 310.53 285.288 309.007 285.944 307.241L294.468 283.601H305.878L287.386 329.954H278.075Z" fill="#75B9AD"/>
<path d="M233.061 163.304C231.933 163.42 229.899 163.821 228.792 164.137C227.191 164.601 225.778 165.128 225.715 165.286C225.694 165.36 225.789 165.707 225.936 166.066C226.632 167.794 226.895 170.112 226.537 171.398C225.884 173.727 223.892 175.055 221.521 174.728C220.045 174.518 218.58 173.885 217.2 172.852C216.799 172.547 216.441 172.294 216.399 172.294C216.304 172.294 214.976 174.096 214.354 175.087C213.733 176.077 212.468 178.575 212.352 179.039C212.299 179.281 212.352 179.323 213.016 179.597C215.05 180.43 216.894 182.116 217.579 183.781C217.917 184.603 217.917 186.131 217.59 186.879C216.705 188.829 214.449 190.231 211.52 190.642L210.613 190.768L210.677 191.306C210.908 193.308 211.499 195.763 212.184 197.534C212.647 198.735 212.584 198.683 213.311 198.388C214.555 197.882 215.64 197.66 216.936 197.66C219.329 197.65 220.91 198.482 221.71 200.2C222.564 202.023 221.984 204.763 220.277 207.008C219.982 207.409 219.687 207.809 219.624 207.883C219.539 207.999 219.624 208.125 219.94 208.399C221.11 209.421 224.166 211.224 225.958 211.951L226.6 212.214L226.959 211.413C227.791 209.516 229.256 207.82 230.647 207.135C232.586 206.186 234.251 206.471 235.801 208.009C236.897 209.105 237.792 211.139 237.972 212.931C238.014 213.289 238.077 213.647 238.119 213.721C238.193 213.827 238.467 213.816 239.552 213.669C241.249 213.426 243.009 213.005 244.548 212.446C245.212 212.204 245.844 211.982 245.949 211.951C246.055 211.919 246.118 211.835 246.086 211.772C244.832 208.958 244.642 206.544 245.538 204.679C246.993 201.654 250.902 201.433 254.549 204.184C254.981 204.5 255.36 204.732 255.402 204.679C256.319 203.646 257.763 201.38 258.627 199.621C259.523 197.808 259.523 197.755 258.743 197.418C256.909 196.638 255.002 195.005 254.359 193.666C253.569 192.001 253.706 190.505 254.77 189.092C255.834 187.68 258.132 186.553 260.387 186.342C260.977 186.289 261.093 186.247 261.093 186.078C261.093 185.72 260.777 183.781 260.566 182.822C260.176 181.062 259.238 178.406 259.007 178.406C258.954 178.406 258.68 178.501 258.416 178.628C257.415 179.06 255.95 179.365 254.77 179.365C252.399 179.365 250.818 178.501 250.017 176.773C249.121 174.876 249.754 172.283 251.735 169.701L252.241 169.037L251.187 168.247C250.607 167.815 249.68 167.183 249.121 166.856C247.941 166.16 245.623 165.033 245.296 165.001C245.106 164.97 245.011 165.085 244.758 165.686C243.936 167.594 242.472 169.269 240.986 170.007C240.1 170.439 240.058 170.45 239.015 170.45C238.014 170.45 237.908 170.429 237.244 170.091C236.422 169.67 235.4 168.658 234.884 167.752C234.42 166.93 233.946 165.528 233.798 164.548C233.63 163.389 233.598 163.231 233.503 163.252C233.461 163.252 233.261 163.283 233.061 163.304ZM238.33 173.611C242.988 174.381 247.14 177.416 249.311 181.631C249.88 182.738 250.46 184.329 250.723 185.573C250.997 186.837 251.008 190.199 250.734 191.474C249.943 195.184 247.857 198.451 244.874 200.695C243.23 201.939 240.849 202.993 238.699 203.446C237.381 203.72 234.336 203.731 233.061 203.457C229.846 202.772 227.138 201.286 224.946 198.988C222.891 196.849 221.637 194.457 220.983 191.474C220.699 190.21 220.699 186.964 220.973 185.678C221.984 180.925 224.893 177.121 229.161 174.981C231.986 173.569 235.147 173.095 238.33 173.611Z" fill="white"/>
<path d="M234.484 175.308C229.415 175.866 225.041 179.291 223.323 184.076C222.375 186.732 222.333 189.978 223.218 192.707C223.85 194.657 224.925 196.406 226.422 197.903C229.014 200.506 232.165 201.802 235.854 201.802C239.311 201.802 242.304 200.664 244.801 198.408C247.573 195.9 249.101 192.454 249.111 188.681C249.133 186.363 248.753 184.698 247.773 182.674C246.013 179.081 242.757 176.488 238.868 175.603C237.761 175.35 235.496 175.202 234.484 175.308ZM237.224 177.047C239.827 177.363 242.093 178.469 243.979 180.345C246.498 182.853 247.763 186.268 247.394 189.63C246.835 194.846 243.031 199.009 237.941 199.968C236.549 200.221 234.189 200.126 232.861 199.757C228.54 198.545 225.284 195.026 224.462 190.663C224.261 189.577 224.24 187.617 224.419 186.626C224.704 185.056 225.421 183.317 226.338 181.947C226.98 180.999 228.456 179.565 229.51 178.88C231.891 177.331 234.494 176.709 237.224 177.047Z" fill="white"/>
</g>
<defs>
<filter id="filter0_d_507_994" x="0" y="0" width="463.355" height="476.001" filterUnits="userSpaceOnUse" color-interpolation-filters="sRGB">
<feFlood flood-opacity="0" result="BackgroundImageFix"/>
<feColorMatrix in="SourceAlpha" type="matrix" values="0 0 0 0 0 0 0 0 0 0 0 0 0 0 0 0 0 0 127 0" result="hardAlpha"/>
<feOffset dy="4"/>
<feGaussianBlur stdDeviation="18.5"/>
<feComposite in2="hardAlpha" operator="out"/>
<feColorMatrix type="matrix" values="0 0 0 0 0 0 0 0 0 0 0 0 0 0 0 0 0 0 0.25 0"/>
<feBlend mode="normal" in2="BackgroundImageFix" result="effect1_dropShadow_507_994"/>
<feBlend mode="normal" in="SourceGraphic" in2="effect1_dropShadow_507_994" result="shape"/>
</filter>
</defs>
</svg>
