<svg width="444" height="372" viewBox="0 0 444 372" fill="none" xmlns="http://www.w3.org/2000/svg">
<g filter="url(#filter0_d_507_785)">
<circle cx="133.715" cy="191.182" r="56.3912" fill="#FFA45C"/>
<circle cx="310.754" cy="191.182" r="56.3912" fill="#FFA45C"/>
<path d="M110.717 115.338C105.892 116.047 102.154 117.183 97.5644 119.407C92.0761 122.056 87.7233 125.179 83.7963 129.39C77.5036 136.014 75.2326 140.556 71.5422 153.945C69.9335 159.623 68.1356 166.057 67.5205 168.281C66.9055 170.505 62.0795 187.822 56.8278 206.841C35.6314 283.82 36.767 279.136 37.1455 288.22C37.5713 298.913 41.7822 308.234 49.9673 316.75C61.6064 328.815 79.2542 333.357 94.4417 328.152C102.059 325.55 107.074 322.38 112.894 316.655C119.139 310.41 122.309 305.442 127.514 293.661C129.17 289.876 132.718 281.786 135.415 275.635L140.288 264.469L146.959 264.185C151.975 263.996 154.624 263.665 157.652 262.766C165.648 260.495 173.266 255.905 178.801 249.991C181.782 246.821 185.047 242.09 186.371 239.109L187.176 237.358H221.998H256.821L257.625 239.204C261.079 247.01 269.406 255.243 278.254 259.643C284.546 262.766 289.23 263.901 297.037 264.185L303.661 264.469L307.872 273.979C310.143 279.183 313.313 286.375 314.827 289.876C321.356 304.874 324.431 309.937 330.818 316.324C341.511 327.064 352.961 330.849 367.013 328.389C379.977 326.118 393.934 318.027 400.038 309.133C405.621 301.042 408.365 287.037 406.33 277.243C405.384 272.843 394.407 232.391 386.222 203.293C385.181 199.508 381.018 184.604 376.996 170.126C372.17 152.762 369.189 142.779 368.149 140.792C361.951 128.443 351.352 119.832 338.152 116.426C331.67 114.77 323.438 114.675 317.571 116.189C312.035 117.656 304.796 120.542 300.349 123.097L296.611 125.226H221.904H147.243L144.972 123.807C133.948 117.041 120.984 113.824 110.717 115.338ZM328.216 142.921C332.853 144.861 335.55 148.883 335.55 153.803C335.502 157.541 334.414 160.001 331.528 162.509C327.79 165.774 323.343 166.389 318.943 164.118C313.076 161.184 310.805 154.276 313.738 148.504C314.874 146.281 318.139 143.347 320.173 142.779C322.397 142.117 326.418 142.212 328.216 142.921ZM130.542 146.706L131.866 147.842L132.008 157.825L132.15 167.761L142.039 167.903C154.955 168.092 154.056 167.335 154.246 177.98L154.388 185.787L152.968 187.206L151.596 188.626H141.85H132.15L132.008 198.609L131.866 208.592L130.542 209.728C129.264 210.816 128.98 210.863 121.41 210.863H113.604L112.468 209.633C111.285 208.355 111.285 208.308 111.285 198.514V188.626H101.823C91.9341 188.626 90.0416 188.295 89.3319 186.497C89.19 186.071 89.048 182.286 89.048 178.075C89.0954 169.842 89.2373 169.18 91.603 168.281C92.3127 167.997 96.8547 167.808 102.106 167.808H111.285V158.062V148.315L112.657 146.943L114.029 145.571H121.647C128.98 145.571 129.264 145.618 130.542 146.706ZM243.052 159.576C244.708 160.238 245.182 162.32 245.182 169.227V175.946L243.762 177.318L242.39 178.737L223.418 178.595L204.398 178.454L203.499 177.318C202.694 176.324 202.6 175.378 202.6 168.849C202.6 161.941 202.647 161.421 203.641 160.38L204.634 159.292H223.465C233.826 159.292 242.627 159.434 243.052 159.576ZM310.947 161.042C315.063 162.698 317.76 166.909 317.76 171.593C317.76 182.38 304.891 187.301 297.605 179.258C293.678 174.905 293.678 168.281 297.605 163.928C301.106 160.049 305.979 159.008 310.947 161.042ZM346.006 160.806C352.062 162.84 355.232 170.363 352.535 176.324C350.453 180.914 347 183.138 341.937 183.138C336.875 183.138 333.421 180.914 331.339 176.324C328.784 170.647 331.434 163.739 337.206 161.137C339.382 160.143 343.593 159.954 346.006 160.806ZM329.304 179.116C333.279 181.198 335.692 185.125 335.644 189.572C335.644 196.054 330.677 201.022 324.289 201.022C314.827 201.117 309.291 190.85 314.543 182.996C317.665 178.312 324.337 176.561 329.304 179.116ZM243.81 189.998L245.182 191.37V198.088C245.182 204.996 244.708 207.078 243.052 207.74C242.627 207.882 233.826 208.024 223.512 208.024C204.918 208.024 204.776 208.024 203.688 206.983C202.647 205.99 202.6 205.706 202.6 198.704C202.6 191.086 202.884 189.809 204.634 189.099C205.202 188.862 213.955 188.673 224.033 188.673L242.437 188.626L243.81 189.998ZM155.902 209.775C159.497 211.383 163.33 215.5 164.749 219.237C166.736 224.537 165.837 231.066 162.573 235.608C157.037 243.225 146.06 244.834 138.301 239.204C132.34 234.898 129.879 226.24 132.529 219.285C134.469 214.27 139.91 209.586 144.972 208.497C148.095 207.835 152.779 208.403 155.902 209.775ZM302.762 209.917C308.818 212.898 312.508 218.764 312.461 225.53C312.461 235.229 304.938 242.61 295.192 242.516C285.35 242.421 278.206 235.135 278.206 225.199C278.206 220.799 279.626 217.25 282.654 213.891C288 208.072 295.759 206.558 302.762 209.917Z" fill="#5D5D5A"/>
<rect x="196.945" y="155.297" width="51.2647" height="25.2906" rx="12.6453" fill="#FFA45C"/>
<rect x="196.945" y="186.74" width="51.2647" height="25.2906" rx="12.6453" fill="#FFA45C"/>
<rect x="180.73" y="134.595" width="82.5458" height="92.9362" fill="#5D5D5A"/>
<path d="M168.609 196.36V157.107H185.049C187.93 157.107 190.567 157.593 192.961 158.565C195.355 159.5 197.412 160.846 199.133 162.603C200.891 164.36 202.238 166.434 203.173 168.827C204.108 171.219 204.575 173.855 204.575 176.733C204.575 179.612 204.108 182.266 203.173 184.696C202.238 187.089 200.891 189.163 199.133 190.92C197.412 192.64 195.355 193.986 192.961 194.958C190.567 195.892 187.93 196.36 185.049 196.36H168.609ZM178.148 189.855L176.857 187.948H184.769C186.34 187.948 187.743 187.687 188.977 187.163C190.211 186.603 191.259 185.836 192.119 184.864C193.017 183.892 193.709 182.715 194.195 181.332C194.682 179.948 194.925 178.416 194.925 176.733C194.925 175.051 194.682 173.518 194.195 172.135C193.709 170.752 193.017 169.575 192.119 168.603C191.259 167.631 190.211 166.883 188.977 166.36C187.743 165.799 186.34 165.518 184.769 165.518H176.689L178.148 163.724V189.855Z" fill="#FFF4E3"/>
<path d="M211.952 196.36V157.107H239.333V165.238H221.21V188.229H239.894V196.36H211.952ZM216.44 180.266V172.528H236.808V180.266H216.44Z" fill="#FFF4E3"/>
<path d="M259.113 196.36L243.403 157.107H253.334L260.909 177.126C261.358 178.285 261.732 179.294 262.031 180.154C262.368 181.014 262.648 181.818 262.873 182.565C263.134 183.313 263.359 184.079 263.546 184.864C263.77 185.612 264.013 186.472 264.275 187.444H262.536C262.835 186.173 263.134 185.051 263.434 184.079C263.733 183.07 264.07 182.042 264.444 180.995C264.818 179.911 265.285 178.621 265.846 177.126L273.141 157.107H282.904L267.081 196.36H259.113Z" fill="#FFF4E3"/>
<path d="M114.198 101.692C108.892 101.692 104.092 100.838 99.7962 99.1303C95.5009 97.4224 91.8056 95.0189 88.7104 91.9195C85.6152 88.8201 83.2465 85.1831 81.6041 81.0085C79.9618 76.7706 79.1406 72.1848 79.1406 67.2511C79.1406 62.3174 79.9934 57.7949 81.6989 53.6835C83.4676 49.5088 85.9627 45.8718 89.1842 42.7725C92.4057 39.6731 96.1957 37.2695 100.554 35.5617C104.976 33.8539 109.777 33 114.956 33C118.62 33 122.063 33.4744 125.284 34.4232C128.569 35.372 131.538 36.6686 134.191 38.3132C136.844 39.9578 139.086 41.8553 140.918 44.0059L131.159 54.3476C129.579 52.8296 127.937 51.5645 126.232 50.5525C124.589 49.5405 122.821 48.7498 120.926 48.1805C119.031 47.548 117.009 47.2318 114.862 47.2318C112.082 47.2318 109.524 47.7378 107.187 48.7498C104.913 49.7619 102.891 51.185 101.123 53.0193C99.4172 54.7904 98.0907 56.9094 97.1432 59.3762C96.1957 61.7798 95.722 64.4048 95.722 67.2511C95.722 70.0975 96.2273 72.7541 97.238 75.2209C98.2486 77.6877 99.6383 79.8383 101.407 81.6726C103.176 83.4437 105.26 84.8669 107.661 85.9422C110.124 86.9542 112.745 87.4602 115.525 87.4602C117.483 87.4602 119.315 87.144 121.02 86.5114C122.789 85.8789 124.305 85.025 125.568 83.9497C126.832 82.8744 127.842 81.6094 128.6 80.1546C129.358 78.6365 129.737 77.0236 129.737 75.3158V72.8489L131.822 76.0748H113.535V63.456H144.708C144.834 64.1517 144.929 65.1005 144.992 66.3023C145.055 67.5041 145.087 68.6743 145.087 69.8128C145.15 70.9514 145.182 71.8053 145.182 72.3745C145.182 76.6757 144.392 80.629 142.813 84.2343C141.297 87.7765 139.149 90.8442 136.37 93.4375C133.591 96.0309 130.306 98.055 126.516 99.5098C122.726 100.965 118.62 101.692 114.198 101.692Z" fill="#FFA45C"/>
<path d="M148.163 100.743L174.409 34.3283H188.053L214.109 100.743H197.812L185.305 67.0614C184.799 65.7331 184.294 64.3099 183.789 62.7918C183.283 61.2738 182.778 59.7241 182.273 58.1428C181.767 56.4982 181.262 54.9169 180.757 53.3989C180.315 51.8176 179.936 50.3627 179.62 49.0345L182.462 48.9396C182.083 50.5209 181.641 52.0706 181.136 53.5886C180.694 55.1067 180.22 56.6247 179.715 58.1428C179.272 59.5976 178.767 61.084 178.199 62.6021C177.63 64.0569 177.093 65.5749 176.588 67.1562L164.081 100.743H148.163ZM160.67 88.0295L165.691 75.885H196.201L201.128 88.0295H160.67Z" fill="#FFA45C"/>
<path d="M222.384 100.743V34.3283H236.786L260.947 73.7028L250.62 73.608L275.065 34.3283H288.899V100.743H273.265V80.0597C273.265 74.367 273.391 69.2436 273.644 64.6894C273.96 60.1352 274.465 55.6127 275.16 51.1218L276.96 56.0555L258.579 84.6139H252.325L234.323 56.2452L236.123 51.1218C236.818 55.3597 237.291 59.7241 237.544 64.215C237.86 68.6427 238.018 73.9242 238.018 80.0597V100.743H222.384Z" fill="#FFA45C"/>
<path d="M305.568 100.743V34.3283H351.807V48.0857H321.202V86.9858H352.754V100.743H305.568ZM313.148 73.5131V60.4199H347.543V73.5131H313.148Z" fill="#FFA45C"/>
<rect x="295.031" y="302.599" width="34.324" height="8.89881" transform="rotate(135 295.031 302.599)" fill="#FFA45C"/>
<rect x="288.738" y="308.892" width="34.324" height="8.89881" transform="rotate(-135 288.738 308.892)" fill="#5D5D5A"/>
<rect width="34.324" height="8.89881" transform="matrix(0.707107 0.707107 0.707107 -0.707107 148.41 302.599)" fill="#FFA45C"/>
<rect width="34.324" height="8.89881" transform="matrix(0.707107 -0.707107 -0.707107 -0.707107 154.703 308.892)" fill="#5D5D5A"/>
<circle cx="194.592" cy="301.996" r="8.65865" fill="#FFA45C"/>
<circle cx="221.721" cy="301.996" r="8.65865" fill="#FFA45C"/>
<circle cx="248.85" cy="301.996" r="8.65865" fill="#FFA45C"/>
</g>
<defs>
<filter id="filter0_d_507_785" x="0" y="0" width="444" height="371.281" filterUnits="userSpaceOnUse" color-interpolation-filters="sRGB">
<feFlood flood-opacity="0" result="BackgroundImageFix"/>
<feColorMatrix in="SourceAlpha" type="matrix" values="0 0 0 0 0 0 0 0 0 0 0 0 0 0 0 0 0 0 127 0" result="hardAlpha"/>
<feOffset dy="4"/>
<feGaussianBlur stdDeviation="18.5"/>
<feComposite in2="hardAlpha" operator="out"/>
<feColorMatrix type="matrix" values="0 0 0 0 0 0 0 0 0 0 0 0 0 0 0 0 0 0 0.25 0"/>
<feBlend mode="normal" in2="BackgroundImageFix" result="effect1_dropShadow_507_785"/>
<feBlend mode="normal" in="SourceGraphic" in2="effect1_dropShadow_507_785" result="shape"/>
</filter>
</defs>
</svg>
