<svg width="424" height="398" viewBox="0 0 424 398" fill="none" xmlns="http://www.w3.org/2000/svg">
<g filter="url(#filter0_d_507_578)">
<rect x="149.398" y="249.901" width="123.239" height="29.0845" fill="#8293E7"/>
<rect x="37" y="107.437" width="350" height="115.845" rx="57.9225" fill="#8293E7"/>
<rect x="59.1875" y="73.4226" width="305.634" height="183.38" rx="91.6901" fill="#C2D0F1"/>
<rect x="88.7656" y="102.014" width="246.479" height="147.887" rx="73.9437" fill="#8293E7"/>
<path d="M154.324 73.4232C154.324 65.5279 160.725 59.1274 168.62 59.1274H254.888C262.783 59.1274 269.183 65.5279 269.183 73.4232H154.324Z" fill="#8293E7"/>
<circle cx="154.322" cy="175.958" r="33.5211" fill="#C2D0F1"/>
<circle cx="269.181" cy="175.958" r="33.5211" fill="#C2D0F1"/>
<ellipse cx="269.181" cy="178.669" rx="31.0563" ry="30.8099" fill="white"/>
<ellipse cx="154.326" cy="178.669" rx="31.0563" ry="30.8099" fill="white"/>
<rect x="209.043" y="51.2392" width="5.91549" height="17.2535" fill="#8293E7"/>
<circle cx="212.248" cy="44.0915" r="11.0915" fill="#8293E7"/>
<rect x="47.3516" y="264.197" width="329.336" height="92.1831" rx="46.0915" fill="white"/>
<rect x="60.0977" y="270.554" width="304.37" height="79.7572" rx="39.8786" fill="#C2D0F1"/>
<path d="M86.293 328.724V290.7H101.008C103.094 290.7 104.978 291.225 106.66 292.275C108.373 293.325 109.712 294.774 110.677 296.621C111.643 298.431 112.125 300.496 112.125 302.813C112.125 305.203 111.643 307.358 110.677 309.277C109.712 311.16 108.388 312.645 106.707 313.732C105.025 314.818 103.125 315.361 101.008 315.361H93.8605V328.724H86.293ZM104.418 328.724L96.1027 311.559L104.231 310.201L113.48 328.724H104.418ZM93.8605 308.3H100.307C101.117 308.3 101.817 308.1 102.409 307.702C103.032 307.267 103.499 306.67 103.81 305.909C104.153 305.149 104.324 304.28 104.324 303.302C104.324 302.324 104.137 301.473 103.764 300.749C103.39 299.989 102.845 299.409 102.129 299.011C101.444 298.612 100.603 298.413 99.6062 298.413H93.8605V308.3Z" fill="#8293E7"/>
<path d="M133.538 329.267C131.046 329.267 128.773 328.778 126.718 327.801C124.662 326.823 122.872 325.447 121.346 323.672C119.82 321.898 118.636 319.815 117.795 317.425C116.955 315.035 116.534 312.41 116.534 309.549C116.534 306.688 116.955 304.063 117.795 301.672C118.636 299.282 119.82 297.2 121.346 295.426C122.872 293.651 124.662 292.275 126.718 291.297C128.773 290.32 131.031 289.831 133.491 289.831C135.951 289.831 138.209 290.32 140.264 291.297C142.32 292.275 144.11 293.651 145.636 295.426C147.162 297.2 148.33 299.282 149.14 301.672C149.981 304.063 150.401 306.688 150.401 309.549C150.401 312.374 149.981 314.999 149.14 317.425C148.33 319.815 147.162 321.898 145.636 323.672C144.11 325.447 142.32 326.823 140.264 327.801C138.209 328.778 135.967 329.267 133.538 329.267ZM133.491 320.576C134.768 320.576 135.936 320.304 136.994 319.761C138.084 319.218 139.019 318.457 139.797 317.48C140.607 316.466 141.23 315.289 141.666 313.949C142.102 312.609 142.32 311.142 142.32 309.549C142.32 307.956 142.102 306.489 141.666 305.149C141.23 303.809 140.607 302.65 139.797 301.672C139.019 300.658 138.084 299.88 136.994 299.337C135.936 298.793 134.768 298.522 133.491 298.522C132.214 298.522 131.031 298.793 129.941 299.337C128.882 299.88 127.948 300.658 127.138 301.672C126.328 302.65 125.706 303.809 125.27 305.149C124.865 306.489 124.662 307.956 124.662 309.549C124.662 311.142 124.865 312.627 125.27 314.003C125.706 315.343 126.328 316.502 127.138 317.48C127.948 318.457 128.882 319.218 129.941 319.761C131.031 320.304 132.214 320.576 133.491 320.576Z" fill="#8293E7"/>
<path d="M156.545 328.724V290.7H170.979C173.222 290.7 175.121 291.08 176.678 291.84C178.235 292.565 179.403 293.633 180.182 295.045C180.991 296.422 181.396 298.087 181.396 300.043C181.396 302.216 180.929 304.044 179.995 305.529C179.092 307.014 177.768 308.01 176.024 308.517L175.931 307.485C177.395 307.847 178.656 308.481 179.715 309.386C180.805 310.291 181.645 311.414 182.237 312.754C182.829 314.058 183.125 315.542 183.125 317.208C183.125 319.127 182.844 320.811 182.284 322.26C181.723 323.672 180.914 324.867 179.855 325.845C178.796 326.823 177.55 327.547 176.118 328.018C174.716 328.489 173.159 328.724 171.446 328.724H156.545ZM164.019 321.011H171.166C172.038 321.011 172.77 320.848 173.362 320.522C173.985 320.196 174.467 319.725 174.81 319.109C175.152 318.457 175.324 317.679 175.324 316.774C175.324 315.941 175.137 315.234 174.763 314.655C174.421 314.076 173.922 313.641 173.268 313.351C172.614 313.025 171.836 312.862 170.933 312.862H164.019V321.011ZM164.019 305.964H169.858C170.668 305.964 171.353 305.819 171.914 305.529C172.505 305.203 172.941 304.769 173.222 304.226C173.533 303.646 173.689 302.958 173.689 302.161C173.689 301.003 173.346 300.097 172.661 299.445C171.976 298.757 170.948 298.413 169.578 298.413H164.019V305.964Z" fill="#8293E7"/>
<path d="M204.2 329.267C201.709 329.267 199.436 328.778 197.38 327.801C195.325 326.823 193.534 325.447 192.008 323.672C190.482 321.898 189.299 319.815 188.458 317.425C187.617 315.035 187.197 312.41 187.197 309.549C187.197 306.688 187.617 304.063 188.458 301.672C189.299 299.282 190.482 297.2 192.008 295.426C193.534 293.651 195.325 292.275 197.38 291.297C199.436 290.32 201.693 289.831 204.154 289.831C206.614 289.831 208.872 290.32 210.927 291.297C212.982 292.275 214.773 293.651 216.299 295.426C217.825 297.2 218.993 299.282 219.802 301.672C220.643 304.063 221.064 306.688 221.064 309.549C221.064 312.374 220.643 314.999 219.802 317.425C218.993 319.815 217.825 321.898 216.299 323.672C214.773 325.447 212.982 326.823 210.927 327.801C208.872 328.778 206.629 329.267 204.2 329.267ZM204.154 320.576C205.43 320.576 206.598 320.304 207.657 319.761C208.747 319.218 209.681 318.457 210.46 317.48C211.27 316.466 211.892 315.289 212.328 313.949C212.764 312.609 212.982 311.142 212.982 309.549C212.982 307.956 212.764 306.489 212.328 305.149C211.892 303.809 211.27 302.65 210.46 301.672C209.681 300.658 208.747 299.88 207.657 299.337C206.598 298.793 205.43 298.522 204.154 298.522C202.877 298.522 201.693 298.793 200.603 299.337C199.545 299.88 198.61 300.658 197.801 301.672C196.991 302.65 196.368 303.809 195.932 305.149C195.527 306.489 195.325 307.956 195.325 309.549C195.325 311.142 195.527 312.627 195.932 314.003C196.368 315.343 196.991 316.502 197.801 317.48C198.61 318.457 199.545 319.218 200.603 319.761C201.693 320.304 202.877 320.576 204.154 320.576Z" fill="#8293E7"/>
<path d="M232.894 328.724V298.848H223.177V290.7H250.785V298.848H240.835V328.724H232.894Z" fill="#8293E7"/>
<path d="M255.749 328.724V320.956H261.261V298.468H255.749V290.7H274.761V298.468H269.203V320.956H274.761V328.724H255.749Z" fill="#8293E7"/>
<path d="M296.485 329.267C294.025 329.267 291.751 328.796 289.665 327.855C287.609 326.877 285.819 325.519 284.293 323.781C282.767 322.006 281.583 319.924 280.743 317.534C279.933 315.108 279.528 312.446 279.528 309.549C279.528 306.724 279.964 304.117 280.836 301.727C281.708 299.337 282.907 297.273 284.433 295.534C285.99 293.76 287.812 292.384 289.898 291.406C292.016 290.428 294.32 289.939 296.812 289.939C298.369 289.939 299.895 290.175 301.39 290.645C302.884 291.116 304.27 291.822 305.547 292.764C306.855 293.669 307.976 294.756 308.91 296.023L304.052 302.487C303.398 301.691 302.698 301.003 301.95 300.423C301.234 299.807 300.44 299.337 299.568 299.011C298.696 298.685 297.762 298.522 296.765 298.522C295.519 298.522 294.336 298.793 293.215 299.337C292.125 299.844 291.16 300.586 290.319 301.564C289.509 302.505 288.871 303.664 288.403 305.04C287.936 306.416 287.703 307.956 287.703 309.658C287.703 311.323 287.936 312.844 288.403 314.22C288.871 315.56 289.525 316.719 290.365 317.697C291.206 318.675 292.218 319.417 293.402 319.924C294.616 320.431 295.955 320.685 297.419 320.685C298.416 320.685 299.365 320.522 300.269 320.196C301.172 319.87 301.997 319.435 302.744 318.892C303.523 318.313 304.208 317.661 304.8 316.937L308.63 323.998C307.852 325.012 306.808 325.917 305.5 326.714C304.224 327.511 302.791 328.145 301.203 328.615C299.646 329.05 298.073 329.267 296.485 329.267Z" fill="#8293E7"/>
<path d="M324.902 329.267C322.753 329.267 320.807 328.978 319.063 328.398C317.35 327.782 315.824 326.913 314.485 325.791C313.146 324.632 311.947 323.274 310.888 321.717L315.7 315.361C317.257 317.788 318.814 319.417 320.371 320.25C321.959 321.083 323.594 321.499 325.276 321.499C326.117 321.499 326.88 321.373 327.565 321.119C328.25 320.866 328.779 320.504 329.153 320.033C329.527 319.526 329.713 318.91 329.713 318.186C329.713 317.643 329.589 317.154 329.34 316.719C329.122 316.285 328.81 315.904 328.406 315.579C328.001 315.253 327.518 314.963 326.957 314.709C326.397 314.42 325.805 314.184 325.182 314.003C324.559 313.786 323.921 313.605 323.267 313.46C321.461 312.989 319.888 312.41 318.549 311.722C317.21 311.034 316.089 310.201 315.186 309.223C314.314 308.209 313.66 307.068 313.224 305.801C312.788 304.497 312.57 303.049 312.57 301.455C312.57 299.753 312.897 298.196 313.551 296.784C314.236 295.335 315.139 294.104 316.26 293.09C317.412 292.04 318.736 291.243 320.231 290.7C321.726 290.12 323.283 289.831 324.902 289.831C327.051 289.831 328.888 290.102 330.414 290.645C331.971 291.152 333.295 291.895 334.385 292.873C335.506 293.85 336.456 295.027 337.234 296.403L332.329 301.89C331.675 300.948 330.959 300.17 330.181 299.554C329.433 298.938 328.623 298.468 327.751 298.142C326.911 297.816 326.039 297.653 325.136 297.653C324.201 297.653 323.392 297.798 322.707 298.087C322.053 298.341 321.539 298.721 321.165 299.228C320.791 299.699 320.604 300.278 320.604 300.966C320.604 301.582 320.76 302.107 321.072 302.542C321.383 302.976 321.803 303.375 322.333 303.737C322.862 304.063 323.469 304.352 324.155 304.606C324.84 304.823 325.556 305.004 326.303 305.149C328.016 305.547 329.558 306.072 330.928 306.724C332.329 307.376 333.528 308.173 334.525 309.114C335.553 310.056 336.331 311.179 336.861 312.482C337.421 313.75 337.701 315.234 337.701 316.937C337.701 319.58 337.141 321.825 336.02 323.672C334.93 325.483 333.419 326.877 331.489 327.855C329.589 328.796 327.393 329.267 324.902 329.267Z" fill="#8293E7"/>
</g>
<defs>
<filter id="filter0_d_507_578" x="0" y="0" width="424" height="397.38" filterUnits="userSpaceOnUse" color-interpolation-filters="sRGB">
<feFlood flood-opacity="0" result="BackgroundImageFix"/>
<feColorMatrix in="SourceAlpha" type="matrix" values="0 0 0 0 0 0 0 0 0 0 0 0 0 0 0 0 0 0 127 0" result="hardAlpha"/>
<feOffset dy="4"/>
<feGaussianBlur stdDeviation="18.5"/>
<feComposite in2="hardAlpha" operator="out"/>
<feColorMatrix type="matrix" values="0 0 0 0 0 0 0 0 0 0 0 0 0 0 0 0 0 0 0.25 0"/>
<feBlend mode="normal" in2="BackgroundImageFix" result="effect1_dropShadow_507_578"/>
<feBlend mode="normal" in="SourceGraphic" in2="effect1_dropShadow_507_578" result="shape"/>
</filter>
</defs>
</svg>
