<svg width="70" height="72" viewBox="0 0 70 72" fill="none" xmlns="http://www.w3.org/2000/svg">
<g filter="url(#filter0_d_439_814)">
<path d="M63.5552 16.702C63.5555 16.7025 63.5558 16.703 63.5561 16.7035C63.5843 16.7495 63.6279 16.8243 63.6826 16.9299C63.7921 17.141 63.9467 17.4755 64.1128 17.9495C64.4448 18.8973 64.8241 20.4061 64.9805 22.6055C65.246 26.3383 64.8696 32.0621 62.5295 40.4062C62.6886 38.335 62.8366 35.7778 62.8803 33.0646C62.9335 29.7641 62.8327 26.221 62.4064 23.0363C62.0259 20.1947 61.38 17.5847 60.3151 15.6876L61.8499 15.3736L63.5552 16.702Z" fill="#CAC5CA" stroke="white"/>
<path d="M47.6839 2.78147C47.7272 2.81206 47.7827 2.85432 47.8477 2.91056C48.0396 3.07646 48.3183 3.36679 48.6171 3.84373C49.2145 4.79728 49.9025 6.51322 50.1208 9.49812C50.5388 15.212 49.2303 25.501 42.3893 43.7751C42.3946 43.0016 42.3972 42.0922 42.3939 41.0762C42.3832 37.7392 42.3086 33.2483 42.0531 28.6371C41.7978 24.0296 41.361 19.286 40.6223 15.4497C40.2531 13.5326 39.8053 11.8245 39.259 10.4669C38.8076 9.34489 38.2668 8.40508 37.6006 7.80119L40.399 3.64717L47.6839 2.78147Z" fill="#CAC5CA" stroke="white"/>
<path d="M20.463 3.62114C20.4929 3.62522 20.5269 3.6309 20.5645 3.6388C20.7437 3.67644 21.0075 3.76501 21.3057 3.97523C21.8954 4.39093 22.6873 5.33257 23.1676 7.48878C24.0715 11.5472 23.8291 19.7204 19.2999 36.0606C19.3003 35.8286 19.3003 35.5881 19.2998 35.3398C19.2944 32.6512 19.2305 29.0473 18.9961 25.3927C18.762 21.7433 18.3567 18.0214 17.6623 15.1057C17.3157 13.6499 16.891 12.3688 16.3648 11.392C15.9845 10.6861 15.5246 10.0902 14.9614 9.72509L18.5313 5.3625L20.463 3.62114Z" fill="#CAC5CA" stroke="white"/>
<path d="M7.15233 48.9156C7.05953 48.6498 6.96321 48.365 6.86465 48.0621C6.15077 45.8681 5.32047 42.7262 4.85805 38.9428C3.93471 31.3884 4.47921 21.2918 10.3304 11.0663L10.3477 11.0475C10.3838 11.0086 10.4379 10.9507 10.5091 10.8757C10.6514 10.7259 10.8616 10.5083 11.1312 10.2399C11.6707 9.70275 12.4466 8.96318 13.3903 8.1555C14.7662 6.97785 16.4839 5.66835 18.3346 4.62813C18.1498 4.8695 17.9526 5.13536 17.7448 5.42629C16.4536 7.23364 14.7532 10.0084 13.0933 13.8962C9.94943 21.2598 6.95557 32.6046 7.15233 48.9156Z" fill="url(#paint0_linear_439_814)" stroke="white"/>
<path d="M45.1804 2.03228C45.666 2.159 46.0942 2.27754 46.4517 2.38003C44.9859 3.25303 43.6426 4.6019 42.4108 6.28632C40.8582 8.40939 39.4571 11.1006 38.1945 14.1399C35.6692 20.2188 33.6711 27.756 32.1292 35.0883C30.5865 42.4248 29.4963 49.5759 28.7919 54.8913C28.4397 57.5495 28.1837 59.7498 28.0158 61.2859C27.9868 61.5518 27.9603 61.7978 27.9365 62.0229C19.7582 45.8332 19.621 31.1536 21.583 20.4243C22.5943 14.8937 24.1638 10.412 25.479 7.31543C26.1365 5.76738 26.7302 4.56626 27.1582 3.75422C27.3722 3.34822 27.5447 3.03956 27.6631 2.83349C27.7223 2.73047 27.7679 2.6531 27.7984 2.60204C27.8047 2.59151 27.8103 2.5821 27.8153 2.57382C28.9306 1.44655 30.6665 0.842786 32.7358 0.611948C34.8187 0.379582 37.1659 0.533365 39.3849 0.848957C41.6001 1.16402 43.6664 1.63718 45.1804 2.03228Z" fill="url(#paint1_linear_439_814)" stroke="white"/>
<path d="M50.8457 51.1736C50.6598 52.9293 50.516 54.4569 50.4106 55.6542C45.4147 36.9383 46.4237 25.2161 48.7169 18.1495C49.9179 14.4486 51.4738 12.0153 52.7161 10.5146C53.3376 9.76377 53.8818 9.245 54.2656 8.91703C54.4575 8.75302 54.6094 8.63668 54.7109 8.56286C54.751 8.53367 54.7832 8.51113 54.8069 8.49492C55.5949 8.25942 56.499 8.517 57.4889 9.18192C58.4954 9.85803 59.4989 10.8967 60.3988 12.0057C61.2947 13.1099 62.0683 14.2593 62.6191 15.1352C62.7043 15.2706 62.784 15.3993 62.8579 15.5201C62.5917 15.4902 62.327 15.4922 62.0645 15.5261C61.3836 15.6143 60.7535 15.9127 60.1754 16.363C59.033 17.2531 58.0441 18.7757 57.1776 20.6591C55.4387 24.439 54.0872 29.9123 53.0564 35.4948C52.0236 41.0879 51.3055 46.8312 50.8457 51.1736Z" fill="white" stroke="white"/>
</g>
<defs>
<filter id="filter0_d_439_814" x="0" y="0" width="69.5547" height="71.7426" filterUnits="userSpaceOnUse" color-interpolation-filters="sRGB">
<feFlood flood-opacity="0" result="BackgroundImageFix"/>
<feColorMatrix in="SourceAlpha" type="matrix" values="0 0 0 0 0 0 0 0 0 0 0 0 0 0 0 0 0 0 127 0" result="hardAlpha"/>
<feOffset dy="4"/>
<feGaussianBlur stdDeviation="2"/>
<feComposite in2="hardAlpha" operator="out"/>
<feColorMatrix type="matrix" values="0 0 0 0 0 0 0 0 0 0 0 0 0 0 0 0 0 0 0.25 0"/>
<feBlend mode="normal" in2="BackgroundImageFix" result="effect1_dropShadow_439_814"/>
<feBlend mode="normal" in="SourceGraphic" in2="effect1_dropShadow_439_814" result="shape"/>
</filter>
<linearGradient id="paint0_linear_439_814" x1="12.1412" y1="3.12576" x2="12.1412" y2="51.6983" gradientUnits="userSpaceOnUse">
<stop stop-color="white"/>
<stop offset="0.953125" stop-color="white"/>
</linearGradient>
<linearGradient id="paint1_linear_439_814" x1="33.9187" y1="0" x2="33.9187" y2="63.7426" gradientUnits="userSpaceOnUse">
<stop stop-color="white"/>
<stop offset="0.953125" stop-color="white"/>
</linearGradient>
</defs>
</svg>
