<?xml version="1.0" ?><svg data-name="Layer 1" id="Layer_1" viewBox="0 0 256 256" xmlns="http://www.w3.org/2000/svg"><defs><style>.cls-1{fill:#84d0f7;}.cls-2{fill:#aa392d;}.cls-3{fill:#7c211a;}.cls-4{fill:#843f2c;}.cls-5{fill:#2d2d2d;}.cls-6{opacity:0.2;}.cls-7{opacity:0.3;}</style></defs><g data-name="Male 2" id="Male_2"><path class="cls-1" d="M248.93,127.54a120.08,120.08,0,0,1-28.22,77.52,121.31,121.31,0,0,1-9.19,9.77H45.81A101.42,101.42,0,0,1,36.87,206c-.24-.27-.51-.59-.81-1-6.92-8.25-29.37-37.49-28.21-77.5C9.46,72.12,56.05,7,128.39,7A120.54,120.54,0,0,1,248.93,127.54Z" id="Wallpaper"/><path class="cls-2" d="M220.71,205.07a117.81,117.81,0,0,1-9.19,9.76,120.17,120.17,0,0,1-83.13,33.26c-39.2,0-68.55-20.82-82.58-33.26A100.62,100.62,0,0,1,36.88,206c-.24-.28-.53-.59-.81-1C49.51,191.47,67.61,181,88.45,175,94.28,189.5,110,199.9,128.37,199.9c17.11,0,31.85-9,38.51-21.87.53-1,1-2,1.41-3.05.39.11.63.17,1.14.33C189.81,181.34,207.51,191.74,220.71,205.07Z" id="Sweater"/><path class="cls-3" d="M168.29,175c-.42,1-.88,2-1.41,3.05-6.66,12.9-21.4,21.87-38.51,21.87C110,199.9,94.28,189.5,88.45,175l2.63-.72a1.42,1.42,0,0,1,.22-.07s1.75-.46,3.38-.83a37.45,37.45,0,0,0,67.38,0A27.7,27.7,0,0,1,168.29,175Z" id="Neckband"/><path class="cls-4" d="M162.06,173.36a37.45,37.45,0,0,1-67.38,0c1.33-.33,2.67-.62,4-.9l1-.2c.18,0,.35-.09.51-.11s.57-.11.85-.18l1.19-.19c.28-.07.59-.11.89-.18h.09c.35-.85.68-1.78,1-2.78.11-.33.22-.71.33-1.06.39-1.44.68-2.8.88-4a39.62,39.62,0,0,0,6.82,4.54l.52.28.62.31.74.35c.16.07.31.13.44.2l.38.18.46.19c.13.07.28.11.43.18l.2.09c.16.06.33.13.53.19l.66.27h0l.72.26.16,0,.5.18.77.22.35.09.7.19a35.29,35.29,0,0,0,4.48.79c.15,0,.3,0,.46,0l.33,0,.61,0,.55,0,.64,0h.54a30.14,30.14,0,0,0,9.61-1.6.07.07,0,0,0,.07,0,1.3,1.3,0,0,0,.35-.11c.79-.26,1.49-.54,2.1-.79l.84-.35.22-.08a38.09,38.09,0,0,0,9.76-6.06c.3,1.36.68,2.81,1.14,4.32s.85,2.64,1.29,3.84c.38.07.73.11,1.1.2l1.07.2,1.08.19.79.16a4.82,4.82,0,0,0,.52.11C159.4,172.74,160.74,173,162.06,173.36Z" id="Neck"/><path class="cls-5" d="M80.44,94.35a66.22,66.22,0,0,0-1,15.09c0,1,.11,2,.21,3,0,.37.07.77.11,1.14-2.08-1.1-2.93-5.95-4.58-15.11-1-5.79-1.54-8.69-1.38-11.89a36.14,36.14,0,0,1,4-14A17.58,17.58,0,0,0,84,81.8,68.2,68.2,0,0,0,80.44,94.35Z" id="Hairs"/><path class="cls-5" d="M181.49,98.52c-.79,4.47-1.4,7.89-2.06,10.37-.7,2.68-1.47,4.23-2.59,4.76.18-1.58.31-3.14.38-4.72a66.39,66.39,0,0,0-.93-14.58,65.72,65.72,0,0,0-2.54-9.74s0-.07,0-.09a82.5,82.5,0,0,0,7.65-5.79,35,35,0,0,1,1.49,7.9v0C183.05,89.85,182.52,92.75,181.49,98.52Z" data-name="Hairs" id="Hairs-2"/><path class="cls-6" d="M169.43,175.31c-.81.94-1.67,1.84-2.55,2.72a54.62,54.62,0,0,1-6.2,5.39,42.87,42.87,0,0,1-9.39,5.33,34.42,34.42,0,0,1-6.54,1.93,30,30,0,0,1-6,.53,32.07,32.07,0,0,1-11.47-2.39,5.22,5.22,0,0,1-.63-.29,40.81,40.81,0,0,1-8.23-4.67,58.55,58.55,0,0,1-12.52-12.7c-.57-.76-1.12-1.53-1.67-2.34.11-.33.22-.71.33-1.06.39-1.44.68-2.8.88-4,.57.46,1.16.92,1.77,1.36a47.15,47.15,0,0,0,5,3.18l.52.28.62.31.74.35c.16.07.31.13.44.2l.38.18.46.19c.13.07.28.11.43.18l.2.09.53.19.66.27h0l.72.26.16,0,.5.18.77.22.35.09.7.19a29.37,29.37,0,0,0,4.48.79c.15,0,.3,0,.46,0l.33,0,.61,0,.55,0,.64,0h.54a31.38,31.38,0,0,0,9.61-1.6.07.07,0,0,0,.07,0,1.3,1.3,0,0,0,.35-.11c.66-.22,1.29-.46,1.93-.72l.2-.07c.26-.11.52-.21.81-.35l.22-.08a45.79,45.79,0,0,0,8.16-4.83c.54-.39,1.07-.81,1.6-1.23.3,1.36.68,2.81,1.14,4.32s.85,2.64,1.29,3.84c.38.07.73.11,1.1.2l1.07.2,1.08.19.79.16a4.82,4.82,0,0,0,.52.11c1.36.28,2.7.57,4,.9,2.1.48,4.19,1,6.23,1.62Z" id="NeckShadow"/><path class="cls-4" d="M185.8,119.68c-.15,5.13-3.43,10.33-7.1,12.24a6.89,6.89,0,0,1-1.55.6l-.12,0a5.15,5.15,0,0,1-2,.06,5.05,5.05,0,0,1-2-.87l-.28-.21a6.78,6.78,0,0,1-1.11-1.1c-2.64-3.18-3.73-9.17-1.95-13.94a14.46,14.46,0,0,1,3.2-5,8.83,8.83,0,0,1,4.37-2.56,5.76,5.76,0,0,1,2.34,0C183.92,109.79,185.94,115.39,185.8,119.68Z" id="RightEar"/><path class="cls-7" d="M185.8,119.68c-.15,5.13-3.43,10.33-7.1,12.24a6.78,6.78,0,0,1-1.56.6l-.11,0a5.15,5.15,0,0,1-2,.06,5,5,0,0,1-2-.87l-.28-.21a6.78,6.78,0,0,1-1.11-1.1c-2.65-3.18-3.73-9.17-1.95-13.94a14.57,14.57,0,0,1,3.19-5,8.91,8.91,0,0,1,4.38-2.56,5.76,5.76,0,0,1,2.34,0C183.92,109.79,185.93,115.39,185.8,119.68Z" id="RightEarShadow"/><path class="cls-4" d="M85.09,130.44a7,7,0,0,1-1.38,1.3,4.87,4.87,0,0,1-4,.81l-.12,0a7.15,7.15,0,0,1-1.56-.6c-3.67-1.91-6.95-7.11-7.1-12.24-.13-4.29,1.88-9.89,6.24-10.76,2.48-.5,4.85.7,6.72,2.58a14.44,14.44,0,0,1,3.19,5C88.82,121.27,87.74,127.25,85.09,130.44Z" id="LeftEar"/><path class="cls-4" d="M177.22,108.93c-.07,1.58-.2,3.14-.38,4.72a79.11,79.11,0,0,1-4.12,17.88c-4.61,12.94-12.35,24.41-21.67,31.91-.53.42-1.06.84-1.6,1.23a45.79,45.79,0,0,1-8.16,4.83l-.22.08c-.29.14-.55.24-.81.35l-.2.07c-.64.26-1.27.5-1.93.72a1.3,1.3,0,0,1-.35.11.07.07,0,0,1-.07,0,31.38,31.38,0,0,1-9.61,1.6h-.54l-.64,0-.55,0-.61,0-.33,0c-.16,0-.31,0-.46,0a29.37,29.37,0,0,1-4.48-.79l-.7-.19-.35-.09-.77-.22-.5-.18-.16,0-.72-.26h0l-.66-.27-.53-.19-.2-.09c-.15-.07-.3-.11-.43-.18l-.46-.19-.38-.18c-.13-.07-.28-.13-.44-.2l-.74-.35-.62-.31-.52-.28a47.15,47.15,0,0,1-5-3.18c-.61-.44-1.2-.9-1.77-1.36A56.71,56.71,0,0,1,97,155.33a77.58,77.58,0,0,1-13.49-24.77,80.29,80.29,0,0,1-3.67-16.93c0-.37-.08-.77-.11-1.14-.1-1-.17-2-.21-3a66.22,66.22,0,0,1,1-15.09A68.2,68.2,0,0,1,84,81.8c.66-1.73,1.4-3.46,2.21-5.17a64.63,64.63,0,0,1,16.87-22.2c.31-.27.61-.51.92-.75a39.34,39.34,0,0,1,24.17-8.77c9.65,0,18.21,3.66,25.36,9.5a57.55,57.55,0,0,1,10.11,10.77,72.87,72.87,0,0,1,8.53,15.31c.53,1.36,1.06,2.67,1.52,4,0,0,0,.07,0,.09a65.72,65.72,0,0,1,2.54,9.74A66.39,66.39,0,0,1,177.22,108.93Z" id="Head"/><path class="cls-6" d="M182.87,86.63v0a25.15,25.15,0,0,1-3.37,3c-.09.09-.55.4-1.14.81-1,.64-2,1.28-2.94,1.89a74.08,74.08,0,0,1-13.25,6.34,75.91,75.91,0,0,1-61.29-4.41c-2.21-1.21-4.36-2.52-6.42-3.93-.71-.48-1.39-1-2.07-1.47a64.27,64.27,0,0,1-5.22-4.23c-.79-.7-1.57-1.42-2.32-2.17a40.84,40.84,0,0,0,8.66,4.94c6.39,2.8,14,4.91,21.39,7a72.73,72.73,0,0,0,19.67,2.94,64.85,64.85,0,0,0,19.81-3,55.57,55.57,0,0,0,8.47-3.53c1.29-.63,2.59-1.33,3.92-2.06a80.45,80.45,0,0,0,7-4.19,82.46,82.46,0,0,0,7.57-5.72A31.8,31.8,0,0,1,182.87,86.63Z" id="HairsShadow"/><path class="cls-5" d="M198.4,57.35c-.06,5.52-5.26,10.57-6.77,12-3.89,3.69-7.09,6.72-10.25,9.39l-.08.07a82.46,82.46,0,0,1-7.57,5.72,80.45,80.45,0,0,1-7,4.19c-1.33.73-2.63,1.43-3.92,2.06a55.57,55.57,0,0,1-8.47,3.53,64.85,64.85,0,0,1-19.81,3,72.73,72.73,0,0,1-19.67-2.94c-7.39-2.06-15-4.17-21.39-7a40.84,40.84,0,0,1-8.66-4.94l0,0L84,81.8a17.58,17.58,0,0,1-6.17-9.21v0c-2.34-9.35,4.48-18.62,5.51-20a30,30,0,0,1,12.33-9.3c9.23-3.9,13.51-.85,33.58,0,17.83.77,26.76,1.17,35.18-2.12,3.4-1.34,9.76-4.28,10.9-2.7.9,1.27-1.71,5-2.32,5.9-2.31,3.31-4.24,4.21-3.93,5,.51,1.27,6.08.66,10.73-.7,4.91-1.45,6.8-3.16,7.67-2.33,1.19,1.12-.59,5.9-3.57,9.1-2.15,2.31-4.15,2.94-3.93,3.76.29,1,4.13,1.42,7.68.52,5.62-1.4,8.47-5.5,10.05-4.47C198.12,55.46,198.43,56,198.4,57.35Z" data-name="Hairs" id="Hairs-3"/></g></svg>