<svg width="1728" height="709" viewBox="0 0 1728 709" fill="none" xmlns="http://www.w3.org/2000/svg">
<path d="M1267.15 594.159C1268.43 596.665 1057.65 744.233 1055.14 745.509C1052.64 746.786 1049.57 745.79 1048.3 743.284C1047.02 740.779 1048.02 737.713 1050.52 736.436C1053.03 735.159 1265.87 591.654 1267.15 594.159Z" fill="url(#paint0_linear_636_27)"/>
<circle cx="912.5" cy="97.5" r="7.5" fill="#5B8FB9"/>
<ellipse cx="628.5" cy="345.5" rx="6.5" ry="7.5" fill="#5B8FB9"/>
<ellipse cx="829.5" cy="301" rx="2.5" ry="3" fill="#5B8FB9"/>
<ellipse cx="1343" cy="38.5" rx="3" ry="2.5" fill="white"/>
<ellipse cx="1484" cy="124.5" rx="3" ry="2.5" fill="white"/>
<path opacity="0.5" d="M16.0038 404.222H-23.9743L-24 1391H1712V243.722H1685.86V200.13H1662.8V148.611H1642.81V239.759H1633.58V429.982H1615.13V334.87L1516.72 402.241V465.648H1510.57V509.241H1470.59V384.407H1430.61L1404.47 426.019V457.722H1353.73V433.944H1335.28V410.167H1319.91V338.833H1292.23V360.63H1259.94V414.13H1219.96V469.611H1209.2V550.852H1198.43V489.426H1179.98V457.722H1127.7V437.907H1064.66V392.333L1023.14 354.685V443.852H1009.31V319.019H970.865L890.909 249.667V443.852H883.221V465.648L824.792 521.13V572.648H812.491V671.722H795.577V535H786.351V453.759H774.05V338.833H726.384V293.259H701.782V200.13H681.793V184.278H626.439V202.111H611.062V663.796H598.761V404.222H584.923V265.519H574.16V249.667H511.117L508.042 265.519H497.279V384.407H464.988V437.907H444.999V542.926H426.548L406.559 0H386.57L369.656 568.685H346.592V461.685H332.754V392.333H305.076V404.222H234.346V542.926H225.12V602.37H211.282V404.222H194.368V378.463H185.142V342.796H168.228V249.667H152.852V148.611L143.626 122.852H128.25L122.1 148.611V249.667H106.723V342.796H88.272V378.463H77.5087V404.222H69.8205V529.056H46.7562V461.685H35.9928V437.907H16.0038V404.222Z" fill="#00638F" fill-opacity="0.5"/>
<path d="M436.898 244.863L482.155 249.664L448.967 350.935H428.45L436.898 244.863Z" fill="#032459"/>
<path d="M327.678 450.397L400.089 454.617L402.503 709H331.299L327.678 450.397Z" fill="white"/>
<path d="M238.974 446.178L312.592 450.397L315.61 709H242.595L238.974 446.178Z" fill="white"/>
<path d="M215.441 446.178H223.889L228.113 709H218.458L215.441 446.178Z" fill="white"/>
<path d="M420.002 454.617L423.623 709H416.382L413.365 454.617H420.002Z" fill="white"/>
<path d="M105.617 370.827V417.243L71.825 427.491V381.075L105.617 370.827Z" fill="white"/>
<path d="M190.7 339.481L169.58 216.509L187.08 218.365L188.588 232.785L199.752 339.481H190.7Z" fill="#032459"/>
<path d="M71.825 343.701L62.7735 237.005L89.3243 242.43L94.1518 335.006L71.825 343.701Z" fill="#032459"/>
<path d="M62.7735 237.005L-3 199.028H24.1542L56.7393 220.729L89.3243 242.43L62.7735 237.005Z" fill="#50B8E7"/>
<path fill-rule="evenodd" clip-rule="evenodd" d="M410.951 282.215L403.106 350.935H428.45L436.898 244.863L410.951 282.215Z" fill="#DCF0FA"/>
<path fill-rule="evenodd" clip-rule="evenodd" d="M151.477 339.481L156.908 193L490 226.154V709H423.623L420.002 454.617H413.365L416.382 709H402.503L400.089 454.617L327.678 450.397L331.299 709H315.61L312.592 450.397L238.974 446.178L242.595 709H228.113L223.889 446.178H215.441L218.458 709H153.891L151.477 339.481ZM169.58 216.509L190.7 339.481H199.752L279.706 343.984L311.989 345.803L359.66 348.488L403.106 350.935H428.45H448.967L482.155 249.664L436.898 244.863L311.989 231.614L283.024 228.542L187.08 218.365L169.58 216.509Z" fill="#50B8E7"/>
<path d="M354.832 263.528L359.66 348.488L311.989 345.803L315.006 260.514L354.832 263.528Z" fill="#032459"/>
<path d="M311.989 231.614L354.832 263.528L315.006 260.514L283.024 228.542L311.989 231.614Z" fill="#50B8E7"/>
<path d="M279.706 343.984L282.66 241.224L283.024 228.542L315.006 260.514L311.989 345.803L279.706 343.984Z" fill="#DCF0FA"/>
<path fill-rule="evenodd" clip-rule="evenodd" d="M-3 199.028L62.7735 237.005L71.825 343.701L94.1518 335.006L107.427 329.836V305.121L141.223 228.542L149.193 210.481L156.908 193L151.477 339.481L153.891 709H107.427V443.164V427.491L71.825 437.136V709H-3V199.028ZM105.617 417.243V370.827L71.825 381.075V427.491L105.617 417.243Z" fill="#DCF0FA"/>
<path d="M71.825 709V437.136L107.427 443.164V709H71.825Z" fill="#50B8E7"/>
<path d="M71.825 437.136L107.427 427.491V443.164L71.825 437.136Z" fill="#00638F"/>
<path d="M24.1542 199.028L149.193 210.481L141.223 228.542L56.7393 220.729L24.1542 199.028Z" fill="#032459"/>
<path d="M187.08 218.365L283.024 228.542L282.66 241.224L188.588 232.785L187.08 218.365Z" fill="#032459"/>
<ellipse cx="376" cy="35.5" rx="7" ry="7.5" fill="white"/>
<ellipse cx="475" cy="150.5" rx="8" ry="7.5" fill="#5B8FB9"/>
<ellipse cx="129.5" cy="101" rx="2.5" ry="3" fill="white"/>
<ellipse cx="1242.5" cy="98" rx="6.5" ry="8" fill="white"/>
<path fill-rule="evenodd" clip-rule="evenodd" d="M1393.99 401.21L1395.48 460.424L1407.93 459.689L1481.63 455.335L1494.08 454.6V391.988L1393.99 401.21ZM1406.44 449.746V410.432L1481.63 403.637V445.863L1406.44 449.746Z" fill="#84CDEE"/>
<path d="M1406.44 410.432V449.746L1481.63 445.863V403.637L1406.44 410.432Z" fill="white"/>
<path d="M1407.93 459.689V773H1426.36V743.393V740.723V708.446V706.02V673.015V668.646V637.098V632.244V596.327V591.473V563.322V559.924V532.259V527.89V500.71V497.312V472.073L1407.93 459.689Z" fill="#84CDEE"/>
<path d="M1481.63 455.335L1407.93 459.689L1426.36 472.073L1481.8 468.676L1481.63 455.335Z" fill="#00638F"/>
<path d="M1662.89 491.002L1664.45 518.668L1682.03 523.354L1680.43 496.827L1662.89 491.002Z" fill="white"/>
<path d="M1682.34 528.504L1664.75 524.007L1666.38 553.129L1684.05 556.866L1682.34 528.504Z" fill="white"/>
<path d="M1712.27 562.837L1710.33 535.656L1693.08 531.248L1694.71 559.12L1712.27 562.837Z" fill="white"/>
<path d="M1684.31 561.233L1666.63 557.498L1668.35 588.076L1686.05 590.125L1684.31 561.233Z" fill="white"/>
<path d="M1714.46 593.415L1712.59 567.205L1694.96 563.482L1696.59 591.345L1714.46 593.415Z" fill="white"/>
<path d="M1686.26 593.522L1668.54 591.473L1671.59 645.676L1680.49 645.861L1689.4 646.047L1686.26 593.522Z" fill="white"/>
<path d="M1718.18 646.646L1716.35 620.11L1714.71 596.812L1696.79 594.74L1699.79 646.263L1718.18 646.646Z" fill="white"/>
<path d="M1689.58 649.073H1671.78L1673.1 676.412L1690.98 675.671L1690.07 656.87L1689.58 649.073Z" fill="#FAFAFA"/>
<path d="M1719.99 674.47L1718.35 649.073H1699.95L1701.27 675.245L1719.99 674.47Z" fill="white"/>
<path d="M1691.11 677.913L1673.24 678.838L1675.03 706.99L1692.96 704.776L1691.11 677.913Z" fill="white"/>
<path d="M1722.18 701.166L1720.13 676.412L1710.76 676.896L1701.39 677.381L1703.14 703.518L1722.18 701.166Z" fill="white"/>
<path d="M1675.03 706.99L1675.2 709.902L1693.12 707.504L1697.41 706.93L1703.3 706.142L1722.35 703.593L1722.18 701.166L1703.14 703.518L1697.24 704.247L1692.96 704.776L1675.03 706.99Z" fill="#50B8E7"/>
<path d="M1673.1 676.412L1673.24 678.838L1691.11 677.913L1695.26 677.699L1701.39 677.381L1710.76 676.896L1720.13 676.412L1719.99 674.47L1701.27 675.245L1695.12 675.5L1690.98 675.671L1673.1 676.412Z" fill="#50B8E7"/>
<path d="M1671.59 645.676L1671.78 649.073H1689.58H1693.59H1699.95H1718.35L1718.18 646.646L1699.79 646.263L1693.4 646.13L1689.4 646.047L1680.49 645.861L1671.59 645.676Z" fill="#50B8E7"/>
<path d="M1668.35 588.076L1668.54 591.473L1686.26 593.522L1690.06 593.962L1696.79 594.74L1714.71 596.812L1714.46 593.415L1696.59 591.345L1689.84 590.564L1686.05 590.125L1668.35 588.076Z" fill="#50B8E7"/>
<path d="M1666.38 553.129L1666.63 557.498L1684.31 561.233L1687.98 562.007L1694.96 563.482L1712.59 567.205L1712.27 562.837L1694.71 559.12L1687.69 557.637L1684.05 556.866L1666.38 553.129Z" fill="#50B8E7"/>
<path d="M1664.45 518.668L1664.75 524.007L1682.34 528.504L1685.85 529.402L1693.08 531.248L1710.33 535.656L1709.98 530.802L1706.23 529.804L1692.78 526.22L1685.52 524.285L1682.03 523.354L1664.45 518.668Z" fill="#50B8E7"/>
<path d="M1691.28 500.427L1683.81 497.947L1685.52 524.285L1692.78 526.22L1691.54 505L1691.28 500.427Z" fill="#50B8E7"/>
<path d="M1694.71 559.12L1693.08 531.248L1685.85 529.402L1686.77 543.519L1687.69 557.637L1694.71 559.12Z" fill="#50B8E7"/>
<path d="M1696.59 591.345L1694.96 563.482L1687.98 562.007L1689.84 590.564L1696.59 591.345Z" fill="#50B8E7"/>
<path d="M1699.79 646.263L1696.79 594.74L1690.06 593.962L1693.4 646.13L1699.79 646.263Z" fill="#50B8E7"/>
<path d="M1701.27 675.245L1699.95 649.073H1693.59L1695.12 675.5L1701.27 675.245Z" fill="#50B8E7"/>
<path d="M1703.14 703.518L1701.39 677.381L1695.26 677.699L1697.24 704.247L1703.14 703.518Z" fill="#50B8E7"/>
<path d="M1683.81 497.947L1680.43 496.827L1682.03 523.354L1685.52 524.285L1683.81 497.947Z" fill="#50B8E7"/>
<path d="M1682.34 528.504L1684.05 556.866L1687.69 557.637L1686.77 543.519L1685.85 529.402L1682.34 528.504Z" fill="#50B8E7"/>
<path d="M1684.31 561.233L1686.05 590.125L1689.84 590.564L1687.98 562.007L1684.31 561.233Z" fill="#50B8E7"/>
<path d="M1686.26 593.522L1689.4 646.047L1693.4 646.13L1690.06 593.962L1686.26 593.522Z" fill="#50B8E7"/>
<path d="M1689.58 649.073L1690.07 656.87L1690.98 675.671L1695.12 675.5L1693.59 649.073H1689.58Z" fill="#50B8E7"/>
<path d="M1691.11 677.913L1692.96 704.776L1697.24 704.247L1695.26 677.699L1691.11 677.913Z" fill="#50B8E7"/>
<path fill-rule="evenodd" clip-rule="evenodd" d="M1276.47 295.4L1406.44 357.527V377.427L1481.63 371.117L1498.07 272.102L1645.46 176L1644.28 202.695L1636.5 377.427L1656.92 773H1485.62L1485.24 743.393L1485.21 740.723L1484.81 708.446L1484.76 704.563L1484.36 673.015L1484.31 668.646L1483.91 637.098L1483.85 632.244L1483.38 594.385L1483.32 590.017L1482.96 561.381L1482.91 557.498L1482.57 529.832L1482.52 526.434L1482.16 497.312L1482.12 494.4L1481.8 468.676L1481.63 455.335L1494.08 454.6V391.988L1393.99 401.21L1395.48 460.424L1407.93 459.689V773H1269L1287.92 406.063L1276.47 295.4ZM1322.78 398.298L1321.78 387.134H1334.73L1336.72 398.298H1322.78ZM1349.67 386.163L1352.66 396.356L1366.1 395.871L1362.62 386.163H1349.67ZM1381.54 394.415L1378.55 384.222H1392L1394.99 394.415H1381.54ZM1418.39 384.222V392.959L1429.84 391.988V382.766L1418.39 384.222ZM1438.81 391.017V382.766L1451.26 381.31V390.046L1438.81 391.017ZM1463.71 380.824V388.59L1472.67 388.105V379.854L1463.71 380.824ZM1514.5 366.749V349.276L1533.92 347.334V365.293L1514.5 366.749ZM1550.85 345.393V362.866L1566.78 361.41V343.451L1550.85 345.393ZM1583.22 358.983L1584.71 341.024L1601.64 339.083L1600.15 357.527L1583.22 358.983Z" fill="#50B8E7"/>
<path fill-rule="evenodd" clip-rule="evenodd" d="M1426.36 743.393H1485.24L1485.21 740.723H1426.36V743.393ZM1484.76 704.563L1484.81 708.446H1426.36V706.02L1484.76 704.563ZM1484.36 673.015L1484.31 668.646H1426.36V673.015H1484.36ZM1483.85 632.244L1483.91 637.098H1426.36V632.244H1483.85ZM1483.38 594.385L1483.32 590.017L1426.36 591.473V596.327L1483.38 594.385ZM1482.91 557.498L1482.96 561.381L1426.36 563.322V559.924L1482.91 557.498ZM1482.57 529.832L1482.52 526.434L1426.36 527.89V532.259L1482.57 529.832ZM1482.12 494.4L1482.16 497.312L1426.36 500.71V497.312L1482.12 494.4Z" fill="#00638F"/>
<path d="M1484.81 708.446H1426.36V740.723H1485.21L1484.81 708.446Z" fill="white"/>
<path d="M1426.36 773H1485.62L1485.24 743.393H1426.36V773Z" fill="white"/>
<path d="M1484.36 673.015H1426.36V706.02L1484.76 704.563L1484.36 673.015Z" fill="white"/>
<path d="M1483.91 637.098H1426.36V668.646H1484.31L1483.91 637.098Z" fill="white"/>
<path d="M1483.38 594.385L1426.36 596.327V632.244H1483.85L1483.38 594.385Z" fill="white"/>
<path d="M1482.96 561.381L1426.36 563.322V591.473L1483.32 590.017L1482.96 561.381Z" fill="white"/>
<path d="M1482.57 529.832L1426.36 532.259V559.924L1482.91 557.498L1482.57 529.832Z" fill="white"/>
<path d="M1482.16 497.312L1426.36 500.71V527.89L1482.52 526.434L1482.16 497.312Z" fill="white"/>
<path d="M1481.8 468.676L1426.36 472.073V497.312L1482.12 494.4L1481.8 468.676Z" fill="white"/>
<path fill-rule="evenodd" clip-rule="evenodd" d="M1706.23 529.804L1705 509L1691.54 505L1692.78 526.22L1706.23 529.804Z" fill="white"/>
<path d="M1709.98 530.802L1708.21 506.049L1691.28 500.427L1691.54 505L1705 509L1706.23 529.804L1709.98 530.802Z" fill="#00638F"/>
<path fill-rule="evenodd" clip-rule="evenodd" d="M1636.5 377.427L1656.92 773L1678.33 765.67L1675.37 712.983L1671.5 713.5L1658.5 487H1662.5L1712.27 504L1726.5 706.142L1722.57 706.668L1725.64 749.475L1759 738.054L1739.58 436.156L1748.54 275.985L1645.46 176L1644.28 202.695L1636.5 377.427ZM1644.28 202.695L1741.07 287.634L1723.15 420.139L1643.97 385.193L1644.28 202.695Z" fill="#DCF0FA"/>
<path fill-rule="evenodd" clip-rule="evenodd" d="M1722.57 706.668L1725.64 749.475L1706.22 756.123L1703.48 709.223L1722.57 706.668Z" fill="#DCF0FA"/>
<path fill-rule="evenodd" clip-rule="evenodd" d="M1706.22 756.123L1700.74 757.999L1697.61 710.007L1703.48 709.223L1706.22 756.123Z" fill="#00638F"/>
<path fill-rule="evenodd" clip-rule="evenodd" d="M1700.74 757.999L1696.26 759.533L1693.31 710.583L1697.61 710.007L1700.74 757.999Z" fill="#00638F"/>
<path fill-rule="evenodd" clip-rule="evenodd" d="M1693.31 710.583L1675.37 712.983L1678.33 765.67L1696.26 759.533L1693.31 710.583Z" fill="#DCF0FA"/>
<path d="M1664.45 518.668L1662.89 491.002L1662.5 487H1658.5L1671.5 713.5L1675.37 712.983L1675.2 709.902L1675.03 706.99L1673.24 678.838L1673.1 676.412L1671.78 649.073L1671.59 645.676L1668.54 591.473L1668.35 588.076L1666.63 557.498L1666.38 553.129L1664.75 524.007L1664.45 518.668Z" fill="#50B8E7"/>
<path d="M1708.21 506.049L1709.98 530.802L1710.33 535.656L1712.27 562.837L1712.59 567.205L1714.46 593.415L1714.71 596.812L1716.35 620.11L1718.18 646.646L1718.35 649.073L1719.99 674.47L1720.13 676.412L1722.18 701.166L1722.35 703.593L1722.57 706.668L1726.5 706.142L1712.27 504L1662.5 487L1662.89 491.002L1680.43 496.827L1683.81 497.947L1691.28 500.427L1708.21 506.049Z" fill="#50B8E7"/>
<path d="M1722.35 703.593L1703.3 706.142L1703.48 709.223L1722.57 706.668L1722.35 703.593Z" fill="#50B8E7"/>
<path d="M1703.3 706.142L1697.41 706.93L1697.61 710.007L1703.48 709.223L1703.3 706.142Z" fill="#50B8E7"/>
<path d="M1693.12 707.504L1675.2 709.902L1675.37 712.983L1693.31 710.583L1693.12 707.504Z" fill="#50B8E7"/>
<path d="M1712.27 562.837L1710.33 535.656L1693.08 531.248L1693.33 535.656L1707 539L1708.35 562.007L1712.27 562.837Z" fill="#00638F"/>
<path d="M1714.46 593.415L1712.59 567.205L1694.96 563.482L1695.21 567.692L1709.26 570.549L1710.66 592.974L1714.46 593.415Z" fill="#00638F"/>
<path d="M1669.87 619.169L1670.06 622.567H1687.86H1691.87H1698.23H1716.63L1716.45 620.14L1698.06 619.757L1691.68 619.624L1687.68 619.541L1678.77 619.355L1669.87 619.169Z" fill="#50B8E7"/>
<path d="M1697.41 706.93L1693.12 707.504L1693.31 710.583L1697.61 710.007L1697.41 706.93Z" fill="#50B8E7"/>
<path d="M1716.45 620.14L1714.71 596.812L1696.79 594.74L1697.02 598.774L1711.38 600.156L1712.59 620.06L1716.45 620.14Z" fill="#00638F"/>
<path d="M1718.18 646.646L1716.63 622.567H1698.23L1698.59 625.768L1713 626.5L1714.5 646.57L1718.18 646.646Z" fill="#00638F"/>
<path d="M1719.99 674.47L1718.35 649.073H1699.95L1700.12 652.5L1714.72 653.006L1716 674.635L1719.99 674.47Z" fill="#00638F"/>
<path d="M1722.18 701.166L1720.13 676.412L1701.39 677.381L1701.64 681L1716.5 680.345L1718 701.682L1722.18 701.166Z" fill="#00638F"/>
<path d="M1682.03 523.354L1680.43 496.827L1662.89 491.002L1663.15 495.5L1676.5 500.427L1678 522.28L1682.03 523.354Z" fill="#00638F"/>
<path d="M1684.05 556.866L1682.34 528.504L1664.75 524.007L1665.05 529.402L1678 532.5L1679.5 555.904L1684.05 556.866Z" fill="#00638F"/>
<path d="M1686.05 590.125L1684.31 561.233L1666.63 557.498L1666.93 562.837L1679.97 565.229L1681.47 589.595L1686.05 590.125Z" fill="#00638F"/>
<path d="M1687.68 619.541L1686.26 593.522L1668.54 591.473L1668.79 596L1681.92 597.518L1683.22 619.448L1687.68 619.541Z" fill="#00638F"/>
<path d="M1689.4 646.047L1687.86 622.567H1670.06L1670.51 626.5L1683.52 626.563L1684.95 645.954L1689.4 646.047Z" fill="#00638F"/>
<path d="M1690.98 675.671L1689.58 649.073H1671.78L1671.97 653.006L1685.24 653.069L1686.26 675.867L1690.98 675.671Z" fill="#00638F"/>
<path d="M1692.96 704.776L1691.11 677.913L1673.24 678.838L1673.47 682.5L1686.77 681.909L1688 705.388L1692.96 704.776Z" fill="#00638F"/>
<defs>
<linearGradient id="paint0_linear_636_27" x1="1036.24" y1="740.838" x2="1165.46" y2="650.89" gradientUnits="userSpaceOnUse">
<stop stop-color="white"/>
<stop offset="1" stop-color="white" stop-opacity="0"/>
</linearGradient>
</defs>
</svg>
