<?xml version="1.0" standalone="no"?>
<!DOCTYPE svg PUBLIC "-//W3C//DTD SVG 20010904//EN"
 "http://www.w3.org/TR/2001/REC-SVG-20010904/DTD/svg10.dtd">
<svg version="1.0" xmlns="http://www.w3.org/2000/svg"
 width="632.000000pt" height="632.000000pt" viewBox="0 0 632.000000 632.000000"
 preserveAspectRatio="xMidYMid meet">
<metadata>
Created by potrace 1.14, written by Peter Selinger 2001-2017
</metadata>
<g transform="translate(0.000000,632.000000) scale(0.100000,-0.100000)"
fill="#000000" stroke="none">
<path d="M2820 6316 c-3 -3 -17 -7 -30 -9 -40 -8 -184 -57 -195 -68 -5 -5 -17
-9 -26 -9 -9 0 -19 -7 -23 -15 -3 -8 -12 -15 -21 -15 -8 0 -15 -4 -15 -10 0
-5 -6 -10 -12 -10 -20 0 -78 -65 -109 -122 -84 -153 -220 -444 -211 -452 3 -3
0 -6 -6 -6 -7 0 -11 -3 -10 -7 1 -5 -3 -19 -9 -33 -6 -14 -18 -42 -26 -63 -9
-20 -16 -40 -17 -42 0 -3 -7 -20 -15 -38 -13 -29 -14 -30 -14 -7 1 14 0 27 -1
30 -2 6 -6 29 -16 90 -4 25 -8 47 -9 50 0 3 -5 23 -10 45 -5 22 -9 42 -10 45
-14 58 -76 200 -87 200 -5 0 -8 6 -8 13 0 22 -85 103 -130 125 -66 31 -96 30
-180 -9 -41 -20 -79 -36 -84 -36 -5 -1 -12 -5 -15 -10 -3 -5 -27 -20 -53 -33
-27 -14 -48 -28 -48 -32 0 -5 -5 -8 -12 -8 -9 0 -119 -69 -163 -103 -5 -4 -28
-21 -50 -37 -22 -16 -51 -38 -65 -49 -14 -11 -43 -34 -65 -51 -91 -72 -157
-131 -270 -240 -138 -134 -136 -132 -226 -310 -24 -47 -48 -88 -54 -92 -5 -4
-7 -8 -2 -8 4 0 -4 -21 -17 -47 -32 -64 -80 -175 -120 -281 -18 -48 -37 -96
-41 -107 -5 -11 -9 -23 -10 -27 -2 -5 -3 -9 -5 -10 -1 -2 -3 -10 -5 -18 -2 -8
-15 -48 -29 -88 -14 -41 -25 -77 -24 -80 1 -4 -2 -16 -6 -27 -16 -42 -25 -71
-32 -105 -10 -46 -11 -50 -14 -52 -1 -2 -3 -10 -5 -18 -2 -8 -10 -45 -19 -83
-9 -37 -18 -82 -21 -100 -3 -17 -8 -39 -10 -47 -2 -8 -6 -28 -9 -45 -2 -16
-12 -73 -20 -125 -9 -52 -18 -122 -21 -155 -3 -33 -7 -73 -9 -90 -19 -140 -26
-606 -12 -765 4 -41 9 -102 12 -135 3 -33 6 -77 7 -97 1 -21 4 -38 7 -38 3 0
6 -8 6 -17 1 -29 14 -144 19 -167 2 -11 7 -34 9 -51 6 -37 13 -73 28 -145 15
-71 16 -80 22 -110 2 -14 9 -45 16 -70 7 -25 14 -52 16 -60 2 -8 8 -33 14 -55
6 -22 13 -47 14 -55 2 -8 6 -22 9 -30 3 -8 22 -69 42 -135 20 -66 40 -129 45
-140 5 -11 24 -58 41 -105 18 -47 37 -92 43 -101 8 -12 11 95 11 405 0 360 6
602 20 771 2 22 6 74 9 115 12 151 28 309 41 411 3 24 7 60 9 79 9 72 18 136
22 160 4 24 8 47 19 123 2 17 7 43 10 57 3 14 8 41 11 60 3 19 15 82 26 140
31 162 31 160 48 235 6 28 14 61 16 75 3 14 8 34 11 45 7 21 8 25 16 65 3 14
15 61 27 105 12 44 23 84 25 90 1 5 10 37 20 70 10 33 20 65 21 70 2 6 10 35
19 65 9 30 17 60 19 65 1 6 8 20 14 33 7 12 10 22 6 22 -3 0 -2 6 4 13 6 6 11
17 11 22 2 22 68 206 97 272 8 17 14 33 14 36 0 2 8 22 17 43 9 22 17 41 18
44 11 38 109 246 119 252 6 4 7 8 2 8 -5 0 -3 7 4 15 7 8 9 15 4 15 -5 0 -4 4
1 8 6 4 18 24 29 44 18 35 46 43 46 13 0 -7 7 -18 15 -25 13 -11 51 -85 55
-108 1 -4 5 -12 10 -17 21 -25 116 -352 106 -362 -3 -3 -1 -14 5 -25 6 -11 12
-34 14 -51 2 -18 6 -45 9 -62 15 -80 25 -149 31 -205 1 -19 5 -46 8 -60 6 -27
14 -96 23 -200 3 -36 7 -83 9 -105 28 -287 55 -951 39 -977 -3 -4 -2 -8 3 -8
10 0 10 -431 0 -447 -5 -7 -4 -13 0 -13 5 0 7 -24 5 -52 -1 -29 -2 -60 -2 -68
0 -8 0 -23 1 -33 1 -42 19 -9 45 86 16 56 29 105 30 110 1 4 2 8 4 10 1 1 3 9
5 17 2 12 23 87 30 110 1 3 7 16 13 30 9 22 11 18 12 -35 1 -33 3 -78 5 -100
7 -75 16 -170 20 -200 1 -16 6 -59 9 -95 4 -36 9 -74 12 -85 2 -11 7 -38 10
-60 2 -22 6 -51 9 -65 2 -14 6 -41 9 -60 3 -19 8 -48 12 -63 3 -16 7 -38 9
-50 2 -12 6 -35 10 -52 3 -16 10 -52 15 -80 17 -82 18 -87 45 -195 9 -36 18
-76 21 -88 6 -28 29 -114 43 -160 5 -18 10 -34 11 -37 0 -3 2 -10 4 -17 2 -7
14 -47 26 -88 12 -41 25 -84 29 -95 5 -11 20 -56 34 -100 28 -86 58 -172 78
-220 7 -16 14 -39 16 -50 2 -10 9 -23 16 -27 6 -4 9 -8 5 -8 -4 0 5 -28 18
-62 25 -62 30 -75 73 -170 12 -26 21 -49 21 -52 0 -24 233 -486 245 -486 6 0
11 15 10 33 -1 17 1 36 4 41 2 6 6 26 8 45 8 97 21 226 29 286 3 22 7 54 9 70
6 55 15 130 20 165 3 19 7 55 10 80 2 25 7 56 9 70 3 14 7 49 10 78 3 29 8 63
11 75 2 12 7 45 10 72 4 28 9 64 11 80 7 46 15 107 19 140 2 17 6 39 8 50 3
11 8 47 12 80 3 32 8 62 10 65 1 3 6 32 10 65 3 32 8 62 10 65 2 3 6 28 10 56
3 27 14 101 25 164 11 63 22 131 24 150 3 19 10 58 15 85 11 54 18 90 27 145
3 19 12 67 19 105 8 39 17 88 20 110 3 22 10 56 14 75 5 19 9 42 10 50 0 8 9
58 21 110 11 52 23 109 26 125 3 17 9 46 14 65 5 19 11 51 14 71 3 20 8 42 10
50 3 8 8 25 10 39 3 14 8 36 10 50 3 14 8 35 10 48 3 13 7 31 10 40 3 9 7 28
10 42 2 14 12 57 21 95 9 39 18 77 20 85 2 8 4 15 5 15 1 0 3 13 5 29 2 16 7
36 11 45 4 9 9 27 11 41 2 14 13 59 24 100 12 41 36 131 54 200 30 116 64 234
100 355 8 28 15 53 15 58 0 4 7 21 15 37 9 17 13 30 11 30 -10 0 170 514 209
595 7 16 11 33 9 37 -3 4 0 8 5 8 6 0 11 5 11 10 0 6 7 27 17 48 9 20 17 39
17 42 1 3 10 27 20 53 18 46 36 57 42 26 2 -7 13 -52 25 -99 11 -47 22 -96 25
-110 2 -14 6 -38 9 -55 3 -16 7 -39 9 -50 7 -38 35 -210 41 -250 2 -22 7 -58
11 -80 5 -40 7 -58 19 -165 3 -30 8 -68 10 -85 3 -16 7 -57 9 -90 3 -33 8 -87
11 -120 12 -139 24 -314 30 -450 2 -44 4 -80 5 -80 1 0 3 -43 5 -95 2 -52 7
-158 10 -235 4 -77 9 -412 11 -745 3 -333 5 -612 5 -620 1 -14 29 41 35 65 1
6 18 53 39 105 20 52 44 115 52 140 8 25 20 56 26 70 5 14 12 30 13 35 10 30
63 174 73 198 6 16 11 32 11 36 0 4 11 36 25 72 14 35 27 74 30 86 2 13 7 28
12 35 4 7 8 18 9 23 1 6 21 66 44 135 23 69 43 130 44 137 1 7 5 16 9 19 4 4
7 16 7 26 0 10 6 18 13 18 8 0 12 -24 13 -83 1 -78 9 -204 20 -312 3 -27 5
-57 6 -65 1 -17 25 -221 34 -289 11 -79 10 -73 35 -233 6 -37 12 -78 14 -90 2
-13 6 -34 9 -48 3 -14 8 -41 11 -60 3 -19 7 -46 10 -60 8 -35 14 -69 19 -107
3 -18 7 -37 10 -42 4 -5 9 -31 12 -58 3 -26 10 -53 16 -60 6 -7 8 -13 5 -13
-2 0 2 -28 9 -62 8 -35 16 -72 18 -83 3 -11 7 -31 11 -45 3 -14 8 -36 10 -50
2 -14 8 -37 14 -52 6 -16 9 -28 7 -28 -2 0 2 -21 10 -46 7 -26 12 -50 9 -54
-3 -5 -1 -10 4 -12 5 -1 11 -16 14 -33 2 -16 6 -37 10 -45 5 -15 17 -61 23
-90 4 -20 10 -41 17 -60 3 -8 17 -61 32 -118 15 -56 30 -104 34 -106 3 -2 6
21 6 52 -1 32 1 61 4 67 3 5 6 23 7 40 0 16 4 68 8 115 5 47 9 103 11 125 7
78 17 149 21 157 3 4 0 8 -6 8 -6 0 -8 5 -4 12 8 12 11 35 19 118 3 30 7 69 9
85 2 17 6 59 10 95 3 36 8 75 10 87 3 12 7 50 11 85 3 35 8 74 10 88 4 25 13
97 20 156 3 28 7 57 20 154 2 14 6 45 9 70 3 25 8 56 11 70 2 14 7 45 10 70 7
53 14 95 20 130 2 14 7 45 10 70 3 25 8 52 10 60 4 13 10 55 21 130 2 14 8 45
13 70 5 25 12 61 15 80 11 71 38 211 63 330 8 41 17 84 19 95 10 52 14 68 18
83 3 9 7 28 10 42 2 14 9 45 16 70 7 25 14 56 16 70 3 14 7 33 10 42 4 14 7
28 17 73 2 6 6 16 10 23 5 6 6 12 3 12 -3 0 -1 11 4 25 5 14 12 36 14 48 20
99 143 460 202 592 10 22 18 42 19 45 5 15 19 46 24 50 3 3 22 37 41 75 18 39
37 72 41 75 3 3 17 23 31 45 36 58 117 145 135 145 8 0 12 -4 9 -8 -2 -4 1
-21 9 -37 18 -41 47 -119 46 -125 0 -3 4 -21 9 -40 5 -19 10 -38 10 -42 1 -4
6 -22 11 -40 5 -18 11 -44 14 -58 7 -35 12 -61 19 -90 3 -14 8 -43 12 -65 3
-22 7 -51 8 -65 6 -41 18 -132 22 -170 11 -92 26 -343 28 -442 1 -38 5 -68 9
-68 5 0 5 -5 1 -12 -10 -16 -11 -188 -2 -188 4 0 4 -11 -1 -23 -5 -13 -6 -30
-1 -37 5 -7 5 -23 0 -34 -4 -12 -4 -30 0 -41 4 -11 5 -24 3 -28 -3 -5 -7 -66
-9 -135 -6 -196 -13 -340 -29 -577 -2 -27 -4 -50 -5 -50 -1 0 -3 -25 -5 -55
-1 -30 -6 -84 -9 -120 -4 -36 -9 -83 -11 -105 -2 -22 -6 -61 -9 -88 -3 -26 -2
-47 2 -47 5 0 9 6 10 13 2 22 8 42 20 65 7 12 11 22 8 22 -3 0 3 24 13 53 10
28 19 54 19 57 0 3 3 12 6 20 3 8 17 58 31 110 15 52 28 100 29 105 2 6 4 13
5 17 1 4 11 38 22 75 17 59 30 112 44 173 2 8 8 35 14 60 7 25 14 56 17 69 3
13 12 54 20 90 24 109 52 255 59 306 5 33 15 99 21 129 2 11 6 42 9 70 3 28 7
62 10 76 6 34 14 119 21 215 13 170 6 616 -10 644 -2 3 -6 29 -10 56 -21 169
-75 336 -149 457 -12 20 -42 69 -66 110 -25 40 -48 75 -53 76 -4 2 -8 8 -8 13
0 11 -119 176 -148 206 -7 7 -11 13 -8 13 8 0 -75 91 -161 175 -107 105 -130
125 -137 118 -3 -4 -6 -2 -6 4 0 6 -13 16 -30 23 -16 7 -30 16 -30 19 0 13
-128 53 -179 55 -32 2 -65 -4 -90 -15 -47 -21 -195 -167 -264 -259 -26 -36
-55 -73 -63 -83 -8 -9 -14 -19 -14 -22 0 -2 -11 -20 -25 -40 l-24 -37 -1 114
c-1 151 -6 214 -25 353 -3 26 -29 150 -40 195 -24 98 -99 241 -158 302 -50 52
-91 73 -182 92 -5 2 -30 8 -55 15 -113 33 -147 42 -170 45 -14 3 -25 5 -25 6
0 1 -7 3 -15 5 -8 1 -49 10 -90 19 -73 17 -96 21 -152 30 -14 2 -36 7 -49 11
-13 4 -42 9 -64 11 -22 1 -40 3 -40 4 0 12 -854 28 -865 16z"/>
<path d="M1560 2395 c0 -8 2 -15 4 -15 2 0 6 7 10 15 3 8 1 15 -4 15 -6 0 -10
-7 -10 -15z"/>
</g>
</svg>
