<svg width="390" height="382" viewBox="0 0 390 382" fill="none" xmlns="http://www.w3.org/2000/svg">
<path opacity="0.6" fill-rule="evenodd" clip-rule="evenodd" d="M385.276 33.5954V0H382.528V33.5954H380.085V38.6215H370.924V42.0604H366.954V44.1767L370.924 47.0865L342.83 58.1968C339.472 59.75 338.17 60.8649 336.723 63.2229V65.3391L330.921 67.4554C329.563 68.0126 329.83 68.2964 330.921 68.7781L338.555 70.8943C339.073 73.632 340.13 74.8577 342.83 76.714C339.463 76.9852 339.225 77.596 339.166 79.3593C339.133 81.7216 340.263 81.9353 344.357 82.0046H359.931C368.55 120.151 372.979 141.562 374.588 180.146C372.975 234.004 371.096 269.326 364.669 312.502C255.293 303.134 173.228 308.149 55.1766 326.781C51.6709 317.774 49.4253 307.597 48.5396 296.57C48.4016 294.853 48.2721 277.531 48.2036 251.617C48.1424 228.43 47.9971 187.011 47.8811 159.577C47.7649 132.142 47.6683 102.529 47.6665 93.7696C47.6646 84.121 47.5836 77.8437 47.4611 77.8437C47.1177 77.8437 40.7914 82.0966 36.804 85.008C14.4145 101.355 1.42472 119.649 -2.14724 139.865C-3.00182 144.701 -3.10236 146.398 -2.97375 153.807C-2.84448 161.244 -2.69019 163.075 -1.43324 172.077C-0.650253 177.684 0.0154343 183.485 0.47047 188.664C0.739227 191.723 0.759464 208.249 0.579277 277.849L0.504421 306.816L-0.0561638 309.71C-2.14074 320.473 -4.87503 329.528 -8.4684 337.462C-9.6378 337.668 -10.8109 337.875 -11.9876 338.082V344.401C-12.3616 345.061 -12.7431 345.715 -13.1323 346.361C-20.6527 358.842 -31.5292 368.311 -44.7694 373.904C-45.9964 374.422 -47 374.928 -47 375.027C-47 375.09 -33.0333 375.142 -11.9876 375.169V381.049H816.833V338.082C667.603 344.643 620.906 340.566 407.106 316.694C399.18 270.462 395.516 235.157 394.743 180.146C395.427 140.215 399.745 119.175 408.484 82.0046H424.974C429.226 82.0217 430.403 81.4114 430.165 79.0948C430.269 77.2692 429.247 76.7031 424.974 76.714C425.412 76.4177 425.841 76.1385 426.251 75.8708L426.252 75.8705L426.252 75.8701C428.803 74.2065 430.673 72.9874 430.165 70.8943L438.104 68.7781C439.613 68.3829 439.932 68.1189 438.104 67.4554L431.692 65.8682V63.2229C430.696 61.0522 429.667 59.8945 424.974 58.1968L398.102 47.0865L402.377 44.1767V42.0604L396.88 41.7959V38.6215H387.719V33.5954H385.276ZM393.368 315.221V314.572H386.97C389.092 314.783 391.224 315 393.368 315.221ZM344.357 63.2229C345.021 61.2685 346.762 60.1682 352.602 58.1968H414.897C421.229 60.126 423.809 61.2212 424.974 63.2229H344.357ZM349.854 76.714C345.689 74.4378 344.011 73.1631 344.357 70.8943H424.974C424.829 73.124 423.425 74.4015 418.867 76.714H349.854ZM380.085 82.0046L380.506 136.498C383.65 151.243 385.587 150.342 388.329 136.498L388.33 82.0046H380.085ZM396.575 82.0046C394.581 91.2999 393.17 98.4741 392.092 105.979L392.453 82.0046H396.575ZM376.421 82.0046H372.146C374.205 91.6228 375.462 98.9221 376.421 105.979V82.0046ZM383.252 257.373C383.743 255.726 384.351 254.241 385.114 252.41C385.921 254.111 386.592 255.731 387.156 257.373L388.31 300.376H383.252V257.373ZM381.266 277.845L378.349 300.376H381.266V277.845ZM390.141 277.845L393.368 300.376H390.839L390.141 277.845ZM378.349 309.464H393.368V304.731H378.349V309.464ZM19.4819 107.206C5.7233 122.896 0.053299 141.869 1.85495 166.187C2.14851 170.149 2.7981 176.436 2.92932 176.587C2.95935 176.621 3.04857 175.107 3.12757 173.221C3.60219 161.893 5.95049 150.865 9.69546 142.381C13.047 134.788 18.0717 128.238 23.7411 124.074L25.2487 122.967V112.039V101.111L23.5622 102.793C22.6347 103.719 20.7985 105.705 19.4819 107.206ZM37.8966 129.401C31.4208 133.647 25.8731 139.496 22.0424 146.115C18.9024 151.54 16.4052 159.406 15.3648 167.149C14.1816 175.955 14.438 189.096 16.0024 199.842C18.589 217.607 24.244 233.914 33.8013 251.166C35.4582 254.156 40.5128 262.513 40.6016 262.408C40.6847 262.31 40.426 127.845 40.3426 127.845C40.3026 127.845 39.2019 128.545 37.8966 129.401ZM5.01039 239.16V245.904L7.51777 244.028C9.37904 242.634 10.0014 242.044 9.93288 241.734C9.84191 241.324 5.19688 232.415 5.07371 232.415C5.03889 232.415 5.01039 235.45 5.01039 239.16ZM5.01039 253.76V259.627L5.62167 259.182C8.14864 257.346 15.0208 252.078 15.0208 251.977C15.0208 251.827 11.8916 245.367 11.281 244.256L10.8521 243.476L7.93124 245.685L5.01039 247.893V253.76ZM10.2684 257.656L5.01061 261.623L5.01039 268.308C5.01039 273.588 5.06762 274.956 5.28241 274.819C6.48779 274.049 20.217 263.565 20.1685 263.452C18.401 259.322 15.7687 253.578 15.6656 253.626C15.589 253.661 13.1601 255.475 10.2684 257.656ZM9.09788 273.962L5.02475 277.008L5.01757 283.662L5.01039 290.315L14.7487 282.976C20.1049 278.94 24.5757 275.544 24.684 275.432C24.852 275.257 23.703 272.104 21.3364 266.248L20.874 265.103L17.0224 268.01C14.9041 269.609 11.338 272.287 9.09788 273.962ZM15.2384 284.574C9.9122 288.575 5.38295 292.064 5.1736 292.327C4.84369 292.743 4.79277 293.339 4.79277 296.794V300.781L5.50003 300.054C8.54057 296.931 12.2701 295.163 16.7617 294.713L18.829 294.507L23.8342 290.726C27.4543 287.991 28.8187 286.834 28.7648 286.544C28.6873 286.127 26.3999 279.371 25.7926 277.765C25.5453 277.112 25.3702 276.913 25.1839 277.074C25.04 277.198 20.5645 280.573 15.2384 284.574ZM25.1882 291.672L21.3773 294.556L22.7146 294.735C24.9896 295.038 28.3252 295.659 30.0907 296.109C31.0182 296.345 31.7772 296.475 31.7772 296.397C31.7772 295.748 29.4453 288.667 29.2488 288.72C29.1114 288.757 27.2841 290.085 25.1882 291.672Z" fill="url(#paint0_linear_508_266)"/>
<defs>
<linearGradient id="paint0_linear_508_266" x1="402.184" y1="9" x2="402.184" y2="381.049" gradientUnits="userSpaceOnUse">
<stop stop-color="#4FB2E2"/>
<stop offset="1" stop-color="#CBEAF8"/>
</linearGradient>
</defs>
</svg>
