<svg width="1728" height="762" viewBox="0 0 1728 762" fill="none" xmlns="http://www.w3.org/2000/svg">
<path fill-rule="evenodd" clip-rule="evenodd" d="M1678.24 68.8075V0H1672.52V68.8075H1667.42V79.1015H1648.32V86.1448H1640.05V90.4791L1648.32 96.4388L1589.75 119.194C1582.75 122.375 1580.03 124.659 1577.02 129.488V133.822L1564.92 138.157C1562.09 139.298 1562.65 139.879 1564.92 140.866L1580.84 145.2C1581.92 150.807 1584.12 153.318 1589.75 157.119C1582.73 157.675 1582.23 158.926 1582.11 162.537C1582.04 167.376 1584.4 167.813 1592.93 167.955H1625.4C1643.37 246.083 1652.61 289.937 1655.96 368.96C1652.14 494.382 1647.6 570.721 1629.22 677.433C1383.81 685.303 1264.34 674.027 863 630C589.088 600.321 407.339 608.013 131.027 650.855C123.718 632.406 119.036 611.562 117.19 588.978C116.902 585.461 116.632 549.984 116.489 496.909C116.361 449.418 116.058 364.588 115.817 308.399C115.574 252.21 115.373 191.558 115.369 173.618C115.365 153.857 115.196 141 114.941 141C114.225 141 101.035 149.711 92.722 155.674C46.0424 189.155 18.9602 226.623 11.5131 268.026C9.73135 277.931 9.52173 281.408 9.78987 296.583C10.0594 311.813 10.3811 315.564 13.0017 334.001C14.6341 345.485 16.022 357.365 16.9707 367.973C17.531 374.239 17.5732 408.087 17.1975 550.635L17.0415 609.963L15.8727 615.89C11.5265 637.933 5.82577 656.479 -1.66617 672.73C-4.1031 673.151 -6.54766 673.575 -8.99995 674V686.935C-9.78062 688.29 -10.5771 689.63 -11.3896 690.955C-27.0688 716.518 -49.7451 735.912 -77.3495 747.367C-79.9075 748.428 -82 749.463 -82 749.667C-82 749.796 -52.8795 749.903 -8.99995 749.959V762H1719V726H1738.09C1711.5 588.014 1700 510.2 1697.98 368.96C1699.41 287.178 1708.41 244.086 1726.63 167.955H1761.01C1769.88 167.99 1772.33 166.74 1771.83 161.996C1772.05 158.257 1769.92 157.097 1761.01 157.119C1761.92 156.513 1762.81 155.942 1763.67 155.395L1763.67 155.392L1763.67 155.392L1763.68 155.391C1768.99 151.984 1772.89 149.487 1771.83 145.2L1788.39 140.866C1791.53 140.056 1792.2 139.516 1788.39 138.157L1775.02 134.906V129.488C1772.94 125.042 1770.79 122.671 1761.01 119.194L1704.98 96.4388L1713.9 90.4791V86.1448L1702.44 85.603V79.1015H1683.34V68.8075H1678.24ZM1592.93 129.488C1594.32 125.485 1597.95 123.232 1610.12 119.194H1740C1753.2 123.145 1758.58 125.388 1761.01 129.488H1592.93ZM1604.39 157.119C1595.71 152.458 1592.21 149.847 1592.93 145.2H1761.01C1760.71 149.767 1757.78 152.383 1748.28 157.119H1604.39ZM1667.42 167.955L1668.3 279.564C1674.85 309.764 1678.89 307.918 1684.61 279.564L1684.61 167.955H1667.42ZM1701.8 167.955C1697.64 186.993 1694.7 201.687 1692.45 217.057L1693.21 167.955H1701.8ZM1659.78 167.955H1650.87C1655.16 187.654 1657.78 202.604 1659.78 217.057V167.955ZM1674.02 527.13C1675.05 523.758 1676.32 520.716 1677.91 516.967C1679.59 520.45 1680.99 523.767 1682.16 527.13L1684.57 615.206H1674.02V527.13ZM1669.88 569.06L1663.8 615.206H1669.88V569.06ZM1688.39 569.06L1695.12 615.206H1689.84L1688.39 569.06ZM1663.8 633.818H1695.12V624.126H1663.8V633.818ZM1695.12 653.642H1663.8V644.281H1695.12V653.642ZM1695.12 663.334V672.475H1678.16H1663.8V663.334H1695.12ZM56.6074 201.138C27.9223 233.273 16.1009 272.132 19.8572 321.939C20.4692 330.053 21.8235 342.93 22.0971 343.238C22.1597 343.309 22.3457 340.207 22.5104 336.345C23.5 313.143 28.3959 290.557 36.2038 273.18C43.1913 257.628 53.6674 244.214 65.4874 235.685L68.6306 233.418V211.035V188.654L65.1144 192.1C63.1807 193.996 59.3523 198.063 56.6074 201.138ZM95.0001 246.596C81.4987 255.293 69.9323 267.271 61.9457 280.827C55.3992 291.94 50.1929 308.05 48.0237 323.908C45.5569 341.943 46.0914 368.858 49.3531 390.868C54.7458 427.253 66.5359 460.65 86.4618 495.984C89.9163 502.11 100.455 519.224 100.64 519.01C100.813 518.809 100.273 243.409 100.1 243.409C100.016 243.409 97.7214 244.843 95.0001 246.596ZM26.4359 471.394V485.207L31.6635 481.365C35.5441 478.511 36.8417 477.301 36.6988 476.668C36.5091 475.827 26.8247 457.581 26.5679 457.581C26.4953 457.581 26.4359 463.797 26.4359 471.394ZM26.4359 501.298V513.313L27.7104 512.403C32.9788 508.642 47.3064 497.852 47.3064 497.646C47.3064 497.338 40.7826 484.107 39.5095 481.832L38.6152 480.235L32.5256 484.759L26.4359 489.282V501.298ZM37.3984 509.278L26.4364 517.402L26.4359 531.093C26.4359 541.908 26.5552 544.71 27.0031 544.429C29.5161 542.852 58.14 521.379 58.0388 521.147C54.3539 512.689 48.8658 500.925 48.6508 501.023C48.4911 501.095 43.4272 504.81 37.3984 509.278ZM34.9579 542.674L26.4659 548.912L26.4509 562.54L26.4359 576.167L46.7393 561.136C57.9064 552.868 67.2273 545.915 67.4533 545.684C67.8035 545.326 65.408 538.869 60.4739 526.874L59.5098 524.53L51.4796 530.484C47.0632 533.758 39.6283 539.244 34.9579 542.674ZM47.7601 564.409C36.6557 572.602 27.2127 579.748 26.7762 580.288C26.0884 581.139 25.9822 582.361 25.9822 589.436V597.601L27.4568 596.114C33.7959 589.718 41.5716 586.095 50.9361 585.175L55.2463 584.752L65.6815 577.008C73.229 571.407 76.0737 569.037 75.9612 568.443C75.7997 567.589 71.0307 553.753 69.7645 550.463C69.249 549.125 68.8838 548.717 68.4954 549.047C68.1955 549.302 58.8646 556.215 47.7601 564.409ZM68.5045 578.945L60.5592 584.854L63.3472 585.219C68.0903 585.84 75.0447 587.112 78.7256 588.034C80.6593 588.517 82.2418 588.782 82.2418 588.623C82.2418 587.294 77.3799 572.792 76.9702 572.9C76.6839 572.976 72.8741 575.696 68.5045 578.945Z" fill="url(#paint0_linear_405_555)"/>
<defs>
<linearGradient id="paint0_linear_405_555" x1="854.5" y1="0" x2="854.5" y2="762" gradientUnits="userSpaceOnUse">
<stop stop-color="#4FB2E2"/>
<stop offset="1" stop-color="#301E67"/>
</linearGradient>
</defs>
</svg>
