<svg width="390" height="382" viewBox="0 0 390 382" fill="none" xmlns="http://www.w3.org/2000/svg">
<path opacity="0.6" fill-rule="evenodd" clip-rule="evenodd" d="M385.276 0V33.5954H387.719V38.6215H396.88V41.7959L402.377 42.0604V44.1767L398.102 47.0865L424.974 58.1968C429.667 59.8945 430.696 61.0522 431.692 63.2229V65.8682L438.104 67.4554C439.932 68.1189 439.613 68.3829 438.104 68.7781L430.165 70.8943C430.673 72.9874 428.803 74.2065 426.252 75.8701L426.252 75.8705L426.251 75.8708C425.841 76.1385 425.412 76.4177 424.974 76.714C429.247 76.7031 430.269 77.2692 430.165 79.0948C430.403 81.4114 429.226 82.0217 424.974 82.0046H408.484C399.745 119.175 395.427 140.215 394.743 180.146C395.712 249.106 401.225 287.099 413.981 354.471H399.885H393.368V342.319H378.349V354.471H372.949H357.488C369.937 288.96 372.489 250.261 374.588 180.146C372.979 141.562 368.55 120.151 359.931 82.0046H344.357C340.263 81.9353 339.133 81.7216 339.166 79.3593C339.225 77.596 339.463 76.9852 342.83 76.714C340.13 74.8577 339.073 73.632 338.555 70.8943L330.921 68.7781C329.83 68.2964 329.563 68.0126 330.921 67.4554L336.723 65.3391V63.2229C338.17 60.8649 339.472 59.75 342.83 58.1968L370.924 47.0865L366.954 44.1767V42.0604H370.924V38.6215H380.085V33.5954H382.528V0H385.276ZM352.602 58.1968C346.762 60.1682 345.021 61.2685 344.357 63.2229H424.974C423.809 61.2212 421.229 60.126 414.897 58.1968H352.602ZM344.357 70.8943C344.011 73.1631 345.689 74.4378 349.854 76.714H418.867C423.425 74.4015 424.829 73.124 424.974 70.8943H344.357ZM380.506 136.498L380.085 82.0046H388.33L388.329 136.498C385.587 150.342 383.65 151.243 380.506 136.498ZM392.092 105.979C393.17 98.4741 394.581 91.2999 396.575 82.0046H392.453L392.092 105.979ZM372.146 82.0046H376.421V105.979C375.462 98.9221 374.205 91.6228 372.146 82.0046ZM385.114 252.41C384.351 254.241 383.743 255.726 383.252 257.373V300.376H388.31L387.156 257.373C386.592 255.731 385.921 254.111 385.114 252.41ZM378.349 300.376L381.266 277.845V300.376H378.349ZM393.368 300.376L390.141 277.845L390.839 300.376H393.368ZM393.368 309.464H378.349V304.731H393.368V309.464ZM378.349 319.143H393.368V314.572H378.349V319.143ZM393.368 337.587H378.349V333.554H393.368V337.587ZM393.368 328.338V323.875H378.349V328.338H385.238H393.368Z" fill="#0077B6"/>
<path opacity="0.6" fill-rule="evenodd" clip-rule="evenodd" d="M47.8811 159.577C47.7649 132.142 47.6683 102.529 47.6665 93.7697C47.6646 84.1211 47.5836 77.8438 47.4611 77.8438C47.1177 77.8438 40.7914 82.0968 36.804 85.0081C14.4145 101.355 1.42472 119.649 -2.14724 139.865C-3.00182 144.701 -3.10236 146.399 -2.97375 153.807C-2.84448 161.244 -2.69019 163.075 -1.43324 172.077C-0.650253 177.684 0.0154343 183.485 0.47047 188.664C0.739227 191.723 0.759464 208.249 0.579277 277.849L0.504421 306.816L-0.0561638 309.71C-2.14074 320.473 -4.87503 329.528 -8.4684 337.462C-9.6378 337.668 -10.8109 337.875 -11.9876 338.082V344.401C-12.3616 345.062 -12.7431 345.715 -13.1323 346.361C-20.6527 358.842 -31.5292 368.311 -44.7694 373.904C-45.9964 374.422 -47 374.928 -47 375.027C-47 375.09 -33.0333 375.142 -11.9876 375.169V381.049H816.833V338.082C667.407 344.652 620.783 340.555 406.26 316.599C274.881 302.108 187.707 305.864 55.1766 326.782C51.6709 317.774 49.4253 307.597 48.5396 296.57C48.4016 294.853 48.2721 277.531 48.2036 251.617C48.1424 228.43 47.9971 187.011 47.8811 159.577ZM1.85495 166.188C0.053299 141.869 5.7233 122.896 19.4819 107.206C20.7985 105.705 22.6347 103.719 23.5622 102.793L25.2487 101.111V112.039V122.967L23.7411 124.074C18.0717 128.238 13.047 134.788 9.69546 142.381C5.95049 150.865 3.60219 161.893 3.12757 173.222C3.04857 175.107 2.95935 176.621 2.92932 176.587C2.7981 176.437 2.14851 170.149 1.85495 166.188ZM22.0424 146.115C25.8731 139.496 31.4208 133.647 37.8966 129.401C39.2019 128.545 40.3026 127.845 40.3426 127.845C40.426 127.845 40.6847 262.31 40.6016 262.408C40.5128 262.513 35.4582 254.157 33.8013 251.166C24.244 233.914 18.589 217.607 16.0024 199.842C14.438 189.096 14.1816 175.955 15.3648 167.149C16.4052 159.406 18.9024 151.54 22.0424 146.115ZM5.01039 245.904V239.16C5.01039 235.45 5.03889 232.415 5.07371 232.415C5.19688 232.415 9.84191 241.324 9.93288 241.735C10.0014 242.044 9.37904 242.635 7.51777 244.028L5.01039 245.904ZM5.01039 259.627V253.76V247.894L7.93124 245.685L10.8521 243.476L11.281 244.256C11.8916 245.367 15.0208 251.827 15.0208 251.977C15.0208 252.078 8.14864 257.346 5.62167 259.182L5.01039 259.627ZM5.01061 261.623L10.2684 257.656C13.1601 255.475 15.589 253.661 15.6656 253.626C15.7687 253.578 18.401 259.322 20.1685 263.452C20.217 263.565 6.48779 274.049 5.28241 274.819C5.06762 274.956 5.01039 273.588 5.01039 268.308L5.01061 261.623ZM5.02475 277.008L9.09788 273.962C11.338 272.287 14.9041 269.609 17.0224 268.01L20.874 265.103L21.3364 266.248C23.703 272.104 24.852 275.257 24.684 275.432C24.5757 275.545 20.1049 278.94 14.7487 282.976L5.01039 290.315L5.01757 283.662L5.02475 277.008ZM5.1736 292.328C5.38295 292.064 9.9122 288.575 15.2384 284.574C20.5645 280.574 25.04 277.199 25.1839 277.074C25.3702 276.913 25.5453 277.112 25.7926 277.765C26.3999 279.371 28.6873 286.127 28.7648 286.544C28.8187 286.834 27.4543 287.991 23.8342 290.726L18.829 294.507L16.7617 294.713C12.2701 295.163 8.54057 296.931 5.50003 300.054L4.79277 300.781V296.794C4.79277 293.34 4.84369 292.743 5.1736 292.328ZM21.3773 294.556L25.1882 291.672C27.2841 290.085 29.1114 288.757 29.2488 288.72C29.4453 288.668 31.7772 295.748 31.7772 296.397C31.7772 296.475 31.0182 296.345 30.0907 296.109C28.3252 295.659 24.9896 295.038 22.7146 294.735L21.3773 294.556Z" fill="#0077B6"/>
</svg>
