<svg width="390" height="537" viewBox="0 0 390 537" fill="none" xmlns="http://www.w3.org/2000/svg">
<circle cx="157" cy="157" r="157" transform="matrix(1 0 0 -1 38 314)" fill="#57BBE8"/>
<path d="M-10.0687 141.128H-19.9941L-20 548.5H411L411 100.974H404.51V90.0684H398.784V77.1795H393.821V99.9829H391.53V147.573H386.949V123.778L362.517 140.632V156.496H360.99V167.402H351.065V136.171H341.139L334.65 146.581V154.513H322.052V148.564H317.471V142.615H313.653V124.769H306.782V130.222H298.765V143.607H288.84V157.487H286.168V177.812H283.495V162.444H278.914V154.513H265.935V149.556H250.283V138.154L239.976 128.735V151.043H236.54V119.812H226.997L207.146 102.462V151.043H205.237V156.496L190.731 170.376V183.265H187.677V208.051H183.477V173.846H181.187V153.521H178.133V124.769H166.299V113.368H160.191V90.0684H155.228V86.1026H141.485V90.5641H137.668V206.068H134.614V141.128H131.178V106.427H128.506V102.462H112.854L112.091 106.427H109.418V136.171H101.402V149.556H96.4389V175.829H91.8579L86.8952 40H81.9325L77.7332 182.274H72.0071V155.504H68.5714V138.154H61.6999V141.128H44.1395V175.829H41.8491V190.701H38.4133V141.128H34.2141V134.684H31.9236V125.761H27.7244V102.462H23.9069V77.1795L21.6164 70.735H17.7989L16.2719 77.1795V102.462H12.4545V125.761H7.8735V134.684H5.20126V141.128H3.2925V172.359H-2.43372V155.504H-5.10595V149.556H-10.0687V141.128Z" fill="#CBEAF8"/>
<rect x="158" y="102" width="75" height="111" fill="#CBEAF8"/>
</svg>
