<svg width="1727" height="774" viewBox="0 0 1727 774" fill="none" xmlns="http://www.w3.org/2000/svg">
<circle cx="861" cy="387" r="387" fill="white"/>
<path d="M1707.07 310.051H1726.99L1727 774H862V234.59H875.025V214.094H886.517L901.074 232.726V322.162H910.268V277.444L959.302 309.12V338.932H962.367V359.427H982.287V300.735H1002.21L1015.23 320.299V335.205H1040.51V324.026H1049.71V312.846H1057.37V279.308H1071.16V289.556H1087.25V314.709H1107.17V340.795H1112.53V378.991H1117.9V350.111H1127.09V335.205H1153.14V325.889H1184.55V304.462L1205.24 286.761V328.684H1212.13V269.991H1231.29L1271.13 237.385V328.684H1274.96V338.932L1304.07 365.017V389.239H1310.2V435.82H1318.63V371.538H1323.22V333.342H1329.35V279.308H1353.1V257.88H1365.36V214.094H1375.32V206.641H1402.9V215.026H1410.57V432.094H1416.7V310.051H1423.59V244.838H1428.95V237.385H1460.37L1461.9 244.838H1467.26V300.735H1483.35V325.889H1493.31V375.265H1502.5L1512.46 120H1522.42L1530.85 387.376H1542.34V337.068H1549.24V304.462H1563.03V310.051H1598.27V375.265H1602.87V403.214H1609.77V310.051H1618.19V297.94H1622.79V281.171H1631.22V237.385H1638.88V189.872L1643.48 177.761H1651.14L1654.2 189.872V237.385H1661.86V281.171H1671.06V297.94H1676.42V310.051H1680.25V368.744H1691.74V337.068H1697.11V325.889H1707.07V310.051Z" fill="#301E67"/>
<path d="M19.8867 293.256H0.0127572L0 787H863V212.949H850.005V191.137H838.54V165.359H828.603V210.966H824.017V306.145H814.844V258.556L765.923 292.265V323.991H762.865V345.803H742.991V283.342H723.117L710.123 304.162V320.026H684.898V308.128H675.726V296.231H668.082V260.538H654.323V271.444H638.271V298.214H618.397V325.974H613.046V366.624H607.696V335.889H598.523V320.026H572.534V310.111H541.195V287.308L520.556 268.47V313.085H513.677V250.624H494.567L454.819 215.923V313.085H450.998V323.991L421.951 351.752V377.53H415.836V427.103H407.428V358.692H402.842V318.043H396.727V260.538H373.031V237.735H360.801V191.137H350.864V183.205H323.346V192.128H315.702V423.137H309.587V293.256H302.708V223.855H297.357V215.923H266.017L264.489 223.855H259.138V283.342H243.086V310.111H233.149V362.658H223.976L214.039 91H204.102L195.694 375.547H184.229V322.009H177.349V287.308H163.59V293.256H128.429V362.658H123.843V392.402H116.963V293.256H108.555V280.368H103.969V262.521H95.5605V215.923H87.9167V165.359L83.3304 152.47H75.6866L72.629 165.359V215.923H64.9852V262.521H55.8126V280.368H50.462V293.256H46.64V355.718H35.1743V322.009H29.8236V310.111H19.8867V293.256Z" fill="#301E67"/>
</svg>
