<svg width="687" height="1031" viewBox="0 0 687 1031" fill="none" xmlns="http://www.w3.org/2000/svg">
<g clip-path="url(#clip0_431_1160)">
<mask id="mask0_431_1160" style="mask-type:luminance" maskUnits="userSpaceOnUse" x="0" y="0" width="687" height="1031">
<path d="M687 0H0V1031H687V0Z" fill="white"/>
</mask>
<g mask="url(#mask0_431_1160)">
<path d="M687 0H0V1031H687V0Z" fill="#F9C399"/>
<path fill-rule="evenodd" clip-rule="evenodd" d="M156.114 37.5651C166.801 37.5645 246.712 37.5645 261.578 37.5651C276.444 37.5658 275.979 60.3566 261.578 60.3566H198.432C196.341 62.7344 196.978 67.5222 199.773 69.0173H201.642C218.599 69.0175 217.902 89.0737 201.642 89.0737H172.215C168.884 91.5991 170.192 98.5173 175.024 98.6457C253.1 98.6456 344.947 98.6458 356.817 98.6461C377.26 98.6469 378.189 127.363 356.817 127.363H280.404C275.87 130.476 275.979 140.66 280.463 143.773C292.688 143.773 302.705 143.773 307.106 143.773C321.973 143.774 321.973 166.565 307.106 166.565H201.642C190.492 166.565 190.028 143.774 201.642 143.773C206.03 143.773 220.028 143.773 236.553 143.773C241.677 140.66 242.226 130.476 236.849 127.363H62.7278C44.8408 127.363 46.6995 98.6469 62.7278 98.6461C67.9024 98.646 98.2579 98.6458 137.684 98.6457C143.249 98.5192 144.08 91.5995 140.549 89.0737H77.5943C61.5657 89.0737 64.121 69.0175 77.5943 69.0173C87.3992 69.017 139.647 69.017 173.907 69.0171C176.159 67.5219 176.461 62.7343 174.812 60.3566H156.114C147.286 60.3566 145.428 37.5658 156.114 37.5651Z" fill="#F0E59F"/>
<path fill-rule="evenodd" clip-rule="evenodd" d="M461.614 220.315C472.301 220.314 552.212 220.314 567.078 220.315C581.944 220.316 581.479 243.107 567.078 243.107H503.933C501.842 245.484 502.479 250.272 505.274 251.767H507.142C524.099 251.767 523.402 271.824 507.142 271.824H477.715C474.384 274.349 475.691 281.266 480.522 281.396C558.598 281.396 650.447 281.396 662.317 281.396C682.76 281.397 683.689 310.113 662.317 310.113H585.904C581.369 313.225 581.479 323.41 585.963 326.523C598.188 326.523 608.205 326.523 612.606 326.523C627.473 326.524 627.473 349.314 612.606 349.314H507.142C495.992 349.314 495.528 326.524 507.142 326.523C511.53 326.523 525.528 326.523 542.053 326.523C547.177 323.409 547.726 313.225 542.349 310.113H368.228C350.341 310.113 352.199 281.397 368.228 281.396C373.403 281.396 403.759 281.396 443.186 281.396C448.749 281.267 449.579 274.349 446.049 271.824H383.094C367.066 271.824 369.621 251.767 383.094 251.767C392.899 251.767 445.148 251.767 479.408 251.767C481.66 250.272 481.962 245.484 480.313 243.107H461.614C452.786 243.107 450.928 220.316 461.614 220.315Z" fill="#F0E59F"/>
<path d="M536.874 96.8399C521.544 94.9394 509.765 100.487 492 124.954C501.914 80.0903 517.988 68.6096 555.423 78.847C582.048 47.619 600.371 32.8238 635 8C616.264 41.562 606.639 63.205 580.552 96.8399C593.434 135.693 580.255 150.333 539.268 166C556.617 146.067 563.315 134.31 560.808 114.27C555.972 120.992 553.493 123.502 545.251 127.765C538.863 119.334 524.908 112.584 524.908 112.584C524.908 112.584 529.437 101.558 536.874 96.8399Z" fill="#F0E59F"/>
<path d="M29.5527 275.154C46.0747 269.894 55.7392 266.156 73.969 264.087C80.7326 250.011 88.7385 246.286 107.678 244.244C126.696 243.064 135.138 246.073 143.369 255.31C168.241 255.066 180.348 257.223 200.08 259.127C209.451 260.893 206.344 262.036 200.08 264.087C132.366 278.046 94.979 281.669 29.5527 279.352C23.1363 278.709 21.2234 278.086 29.5527 275.154Z" fill="#F0E59F"/>
<path d="M535.501 656.44C526.174 621.921 514.381 610.894 489.334 596.308H604.752C577.451 616.159 565.948 628.659 560.636 656.44V1031H535.501V656.44Z" fill="#75B9AD"/>
<path d="M551.402 599.472C618.45 599.472 672.804 588.845 672.804 575.736C672.804 562.627 618.45 552 551.402 552C484.354 552 430 562.627 430 575.736C430 588.845 484.354 599.472 551.402 599.472Z" fill="#75B9AD"/>
<path fill-rule="evenodd" clip-rule="evenodd" d="M101.196 663.803L77 638.418V1031H299C239.122 968.954 211.774 933.109 183.463 865.702L180.439 587.057L131.441 634.511V556.95H157.452V545.143H131.441V533.926H157.452V522.119H131.441V456H124.787V522.119H95.1471V533.926H124.787V545.143H95.1471V556.95H124.787V640.955L101.196 663.803ZM157.452 907.617C173.282 943.781 187.598 964.335 222.782 1001.48H111.48C112.949 944.801 124.416 923.899 157.452 907.617Z" fill="#AFD7A6"/>
<path d="M650.833 688.185L618.402 676.84L611.195 694.011H592.195V1031H687.195V675L650.833 688.185Z" fill="#AFD7A6"/>
<path d="M0 1031H687V619H0V1031Z" fill="url(#paint0_linear_431_1160)"/>
<path d="M687 0H0V1031H687V0Z" fill="#252525" fill-opacity="0.7"/>
<path d="M450 391.5H237C220.708 391.5 207.5 404.708 207.5 421V828C207.5 844.292 220.708 857.5 237 857.5H450C466.292 857.5 479.5 844.292 479.5 828V421C479.5 404.708 466.292 391.5 450 391.5Z" fill="#75B9AD" stroke="black"/>
<path d="M458.5 425.5H227.5V811.5H458.5V425.5Z" fill="#F9C399" stroke="black"/>
<path d="M362 407.5H317C316.172 407.5 315.5 408.172 315.5 409C315.5 409.828 316.172 410.5 317 410.5H362C362.828 410.5 363.5 409.828 363.5 409C363.5 408.172 362.828 407.5 362 407.5Z" fill="#F9C399" stroke="black"/>
<path d="M374 410.5C374.828 410.5 375.5 409.828 375.5 409C375.5 408.172 374.828 407.5 374 407.5C373.172 407.5 372.5 408.172 372.5 409C372.5 409.828 373.172 410.5 374 410.5Z" fill="#F9C399" stroke="black"/>
<path d="M278.999 566L342 529.578L405.001 566L342 602.422L278.999 566Z" fill="#AFD7A6" stroke="black"/>
<path d="M278.059 570.694L339.876 607.715L341.605 679.749L279.788 642.728L278.059 570.694Z" fill="#AFD7A6" stroke="black"/>
<path d="M407.52 569.735L406.934 641.788L345.711 679.784L346.298 607.731L407.52 569.735Z" fill="#AFD7A6" stroke="black"/>
</g>
</g>
<defs>
<linearGradient id="paint0_linear_431_1160" x1="343.5" y1="1031" x2="343.5" y2="619" gradientUnits="userSpaceOnUse">
<stop stop-color="#F0E59F"/>
<stop offset="0.895833" stop-color="#EDF7FC" stop-opacity="0"/>
</linearGradient>
<clipPath id="clip0_431_1160">
<rect width="687" height="1031" fill="white"/>
</clipPath>
</defs>
</svg>
