<svg width="687" height="1031" viewBox="0 0 687 1031" fill="none" xmlns="http://www.w3.org/2000/svg">
<g clip-path="url(#clip0_431_1183)">
<mask id="mask0_431_1183" style="mask-type:luminance" maskUnits="userSpaceOnUse" x="0" y="0" width="687" height="1031">
<path d="M687 0H0V1031H687V0Z" fill="white"/>
</mask>
<g mask="url(#mask0_431_1183)">
<path d="M687 0H0V1031H687V0Z" fill="#FFF4E3"/>
<path fill-rule="evenodd" clip-rule="evenodd" d="M152.114 37.5651C162.801 37.5645 242.712 37.5645 257.578 37.5651C272.444 37.5658 271.979 60.3566 257.578 60.3566H194.432C192.341 62.7344 192.978 67.5222 195.773 69.0173H197.642C214.599 69.0175 213.902 89.0737 197.642 89.0737H168.215C164.884 91.5991 166.192 98.5173 171.024 98.6457C249.1 98.6456 340.947 98.6458 352.817 98.6461C373.26 98.6469 374.189 127.363 352.817 127.363H276.404C271.87 130.476 271.979 140.66 276.463 143.773C288.688 143.773 298.705 143.773 303.106 143.773C317.973 143.774 317.973 166.565 303.106 166.565H197.642C186.492 166.565 186.028 143.774 197.642 143.773C202.03 143.773 216.028 143.773 232.553 143.773C237.677 140.66 238.226 130.476 232.849 127.363H58.7278C40.8408 127.363 42.6995 98.6469 58.7278 98.6461C63.9024 98.646 94.2579 98.6458 133.684 98.6457C139.249 98.5192 140.08 91.5995 136.549 89.0737H73.5943C57.5657 89.0737 60.121 69.0175 73.5943 69.0173C83.3992 69.017 135.647 69.017 169.907 69.0171C172.159 67.5219 172.461 62.7343 170.812 60.3566H152.114C143.286 60.3566 141.428 37.5658 152.114 37.5651Z" fill="#FFCDAB"/>
<path fill-rule="evenodd" clip-rule="evenodd" d="M457.614 220.315C468.301 220.314 548.212 220.314 563.078 220.315C577.944 220.316 577.479 243.107 563.078 243.107H499.933C497.842 245.484 498.479 250.272 501.274 251.767H503.142C520.099 251.767 519.402 271.824 503.142 271.824H473.715C470.384 274.349 471.691 281.266 476.522 281.396C554.598 281.396 646.447 281.396 658.317 281.396C678.76 281.397 679.689 310.113 658.317 310.113H581.904C577.369 313.225 577.479 323.41 581.963 326.523C594.188 326.523 604.205 326.523 608.606 326.523C623.473 326.524 623.473 349.314 608.606 349.314H503.142C491.992 349.314 491.528 326.524 503.142 326.523C507.53 326.523 521.528 326.523 538.053 326.523C543.177 323.409 543.726 313.225 538.349 310.113H364.228C346.341 310.113 348.199 281.397 364.228 281.396C369.403 281.396 399.759 281.396 439.186 281.396C444.749 281.267 445.579 274.349 442.049 271.824H379.094C363.066 271.824 365.621 251.767 379.094 251.767C388.899 251.767 441.148 251.767 475.408 251.767C477.66 250.272 477.962 245.484 476.313 243.107H457.614C448.786 243.107 446.928 220.316 457.614 220.315Z" fill="#FFCDAB"/>
<path d="M532.874 96.8399C517.544 94.9394 505.765 100.487 488 124.954C497.914 80.0903 513.988 68.6096 551.423 78.847C578.048 47.619 596.371 32.8238 631 8C612.264 41.562 602.639 63.205 576.552 96.8399C589.434 135.693 576.255 150.333 535.268 166C552.617 146.067 559.315 134.31 556.808 114.27C551.972 120.992 549.493 123.502 541.251 127.765C534.863 119.334 520.908 112.584 520.908 112.584C520.908 112.584 525.437 101.558 532.874 96.8399Z" fill="#FFCDAB"/>
<path d="M25.5527 275.154C42.0747 269.894 51.7392 266.156 69.969 264.087C76.7326 250.011 84.7385 246.286 103.678 244.244C122.696 243.064 131.138 246.073 139.369 255.31C164.241 255.066 176.348 257.223 196.08 259.127C205.451 260.893 202.344 262.036 196.08 264.087C128.366 278.046 90.979 281.669 25.5527 279.352C19.1363 278.709 17.2234 278.086 25.5527 275.154Z" fill="#FFCDAB"/>
<path d="M534.501 656.44C525.174 621.921 513.381 610.894 488.333 596.308H603.751C576.451 616.159 564.947 628.659 559.636 656.44V1031H534.501V656.44Z" fill="#5D5D5A"/>
<path d="M550.402 599.472C617.45 599.472 671.804 588.845 671.804 575.736C671.804 562.627 617.45 552 550.402 552C483.354 552 429 562.627 429 575.736C429 588.845 483.354 599.472 550.402 599.472Z" fill="#5D5D5A"/>
<path fill-rule="evenodd" clip-rule="evenodd" d="M16.5319 432V488.771H20.754V497.264H36.5865V502.628L46.086 503.075V506.651L38.6975 511.569L85.1397 530.343C93.2508 533.212 95.0285 535.168 96.7502 538.837V543.307L107.833 545.989C110.992 547.11 110.44 547.556 107.833 548.224L94.1114 551.8C94.9889 555.337 91.7582 557.397 87.3492 560.208L87.3481 560.209L87.3474 560.21C86.6379 560.662 85.8979 561.134 85.1397 561.634C92.5251 561.616 94.2914 562.573 94.1114 565.657C94.5221 569.572 92.4891 570.604 85.1397 570.575H56.6411C41.5384 633.387 34.0753 668.941 32.8922 736.417C34.5675 852.95 44.095 917.152 66.1406 1031H41.7798H30.517V1010.46H4.55899V1031H-4.77301H-31.4935C-9.97906 920.296 -5.56854 854.901 -1.9394 736.417C-4.72062 671.218 -12.3746 635.035 -27.2715 570.575H-54.1868C-61.262 570.457 -63.2151 570.096 -63.1583 566.104C-63.0574 563.125 -62.6456 562.093 -56.8256 561.634C-61.4933 558.498 -63.3186 556.426 -64.2141 551.8L-77.4078 548.224C-79.2938 547.41 -79.7551 546.93 -77.4078 545.989L-67.3806 542.413V538.837C-64.8799 534.852 -62.6291 532.968 -56.8256 530.343L-8.27242 511.569L-15.1332 506.651V503.075H-8.27242V497.264H7.56014V488.771H11.7822V432H16.5319ZM-39.9371 530.343C-50.0303 533.675 -53.0406 535.534 -54.1868 538.837H85.1397C83.1264 535.454 78.6674 533.603 67.7243 530.343H-39.9371ZM-54.1868 551.8C-54.7852 555.634 -51.8858 557.788 -44.6869 561.634H74.585C82.4633 557.727 84.8893 555.568 85.1397 551.8H-54.1868ZM8.28696 662.66L7.56014 570.575H21.8097L21.8077 662.66C17.0688 686.054 13.7212 687.576 8.28696 662.66ZM28.3107 611.087C30.1748 598.405 32.6125 586.282 36.0592 570.575H28.9344L28.3107 611.087ZM-6.16101 570.575H1.22751V611.087C-0.430244 599.162 -2.60228 586.828 -6.16101 570.575ZM16.2509 858.533C14.9328 861.627 13.8814 864.136 13.0329 866.918V939.587H21.775L19.7802 866.918C18.8067 864.144 17.6457 861.407 16.2509 858.533ZM4.55899 939.587L9.60043 901.514V939.587H4.55899ZM30.517 939.587L24.9393 901.514L26.146 939.587H30.517ZM30.517 954.944H4.55899V946.947H30.517V954.944ZM4.55899 971.3H30.517V963.576H4.55899V971.3ZM30.517 1002.47H4.55899V995.652H30.517V1002.47ZM30.517 986.838V979.296H4.55899V986.838H16.4654H30.517Z" fill="#5D5D5A"/>
<path fill-rule="evenodd" clip-rule="evenodd" d="M100.196 663.803L76 638.418V1031H298C238.122 968.954 210.774 933.109 182.463 865.702L179.439 587.057L130.441 634.511V556.95H156.452V545.143H130.441V533.926H156.452V522.119H130.441V456H123.787V522.119H94.1471V533.926H123.787V545.143H94.1471V556.95H123.787V640.955L100.196 663.803ZM156.452 907.617C172.282 943.781 186.598 964.335 221.782 1001.48H110.48C111.949 944.801 123.416 923.899 156.452 907.617Z" fill="#FFA45C"/>
<path d="M649.833 688.185L617.402 676.84L610.195 694.011H591.195V1031H686.195V675L649.833 688.185Z" fill="#FFA45C"/>
<path d="M0 1032H687V620H0V1032Z" fill="url(#paint0_linear_431_1183)"/>
<path d="M687 0H0V1031H687V0Z" fill="#252525" fill-opacity="0.7"/>
<path d="M421.993 461.478H265.442C261.852 461.478 258.942 464.388 258.942 467.978V624.529C258.942 628.119 261.852 631.029 265.442 631.029H421.993C425.583 631.029 428.493 628.119 428.493 624.529V467.978C428.493 464.388 425.583 461.478 421.993 461.478Z" fill="#FFCDAB" stroke="black"/>
<path d="M368.802 432.934L232.776 511.468C229.667 513.263 228.602 517.238 230.397 520.347L308.931 656.373C310.726 659.482 314.702 660.547 317.811 658.752L453.836 580.218C456.945 578.423 458.01 574.447 456.216 571.338L377.681 435.313C375.886 432.204 371.911 431.139 368.802 432.934Z" fill="#FFCDAB" stroke="black"/>
<path d="M309.942 436.323L231.408 572.349C229.613 575.458 230.678 579.433 233.787 581.228L369.813 659.763C372.922 661.557 376.897 660.492 378.692 657.383L457.226 521.358C459.021 518.249 457.956 514.273 454.847 512.478L318.822 433.944C315.713 432.149 311.737 433.214 309.942 436.323Z" fill="#FFCDAB" stroke="black"/>
<path d="M343.718 588.392C366.99 588.392 385.856 569.526 385.856 546.254C385.856 522.982 366.99 504.116 343.718 504.116C320.446 504.116 301.58 522.982 301.58 546.254C301.58 569.526 320.446 588.392 343.718 588.392Z" fill="#FFF4E3" stroke="black"/>
<path d="M280.779 484.586L246.069 544.707C245.517 545.664 245.844 546.887 246.801 547.439L246.992 547.549C247.948 548.101 249.171 547.774 249.724 546.817L284.434 486.696C284.987 485.74 284.659 484.517 283.702 483.964L283.512 483.854C282.555 483.302 281.332 483.63 280.779 484.586Z" fill="#FFCDAB"/>
<path d="M301.62 468.291L265.233 501.889L258.947 495.082L295.335 461.484L301.62 468.291Z" fill="#FFCDAB"/>
<path d="M421.002 502.732L386.981 468.819C386.59 468.429 386.589 467.796 386.979 467.405L392.453 461.914C392.843 461.523 393.476 461.522 393.867 461.912L427.888 495.825C428.279 496.215 428.28 496.848 427.89 497.239L422.416 502.73C422.026 503.121 421.393 503.122 421.002 502.732Z" fill="#FFCDAB"/>
<path d="M399.768 490.191L340.542 455.564C340.065 455.285 339.905 454.672 340.184 454.196L343.851 447.924C344.129 447.447 344.742 447.286 345.219 447.565L404.445 482.192C404.921 482.471 405.082 483.083 404.803 483.56L401.136 489.832C400.858 490.309 400.245 490.47 399.768 490.191Z" fill="#FFCDAB"/>
<path d="M442.482 547.566H428.676V564.62H442.482V547.566Z" fill="#FFCDAB"/>
<path d="M206.974 789.258C235.936 789.258 259.448 766.692 259.448 738.814C259.448 710.936 235.936 688.371 206.974 688.371C178.012 688.371 154.5 710.936 154.5 738.814C154.5 766.692 178.012 789.258 206.974 789.258Z" fill="#5D5D5A" stroke="black"/>
<path d="M480.244 789.258C508.544 789.258 531.5 766.681 531.5 738.814C531.5 710.947 508.544 688.371 480.244 688.371C451.944 688.371 428.988 710.947 428.988 738.814C428.988 766.681 451.944 789.258 480.244 789.258Z" fill="#5D5D5A" stroke="black"/>
<path d="M496.388 595.792H190.423C186.281 595.792 182.923 599.15 182.923 603.292V707.046C182.923 711.188 186.281 714.546 190.423 714.546H496.388C500.53 714.546 503.888 711.188 503.888 707.046V603.292C503.888 599.15 500.53 595.792 496.388 595.792Z" fill="#5D5D5A" stroke="black"/>
<path d="M496.893 662.504L520.681 705.272L432.114 754.535L408.325 711.767L496.893 662.504Z" fill="#5D5D5A"/>
<mask id="mask1_431_1183" style="mask-type:luminance" maskUnits="userSpaceOnUse" x="406" y="662" width="115" height="94">
<path d="M520.711 662.504H406.88V755.393H520.711V662.504Z" fill="white"/>
<path d="M496.893 662.504L520.681 705.272L432.114 754.535L408.325 711.767L496.893 662.504Z" fill="black"/>
</mask>
<g mask="url(#mask1_431_1183)">
<path d="M432.988 754.049L409.199 711.281L407.452 712.253L431.24 755.021L432.988 754.049Z" fill="black"/>
</g>
<path d="M278.186 706.063L257.114 750.232L162.992 705.33L184.063 661.16L278.186 706.063Z" fill="#5D5D5A"/>
<mask id="mask2_431_1183" style="mask-type:luminance" maskUnits="userSpaceOnUse" x="162" y="660" width="118" height="91">
<path d="M279.089 660.852H162.32V750.718H279.089V660.852Z" fill="white"/>
<path d="M278.186 706.063L257.114 750.232L162.992 705.33L184.063 661.16L278.186 706.063Z" fill="black"/>
</mask>
<g mask="url(#mask2_431_1183)">
<path d="M277.283 705.632L256.212 749.802L258.017 750.663L279.089 706.493L277.283 705.632Z" fill="black"/>
</g>
<path d="M454.913 623.707L503.278 613.541L524.671 715.318L476.306 725.484L454.913 623.707Z" fill="#5D5D5A"/>
<mask id="mask3_431_1183" style="mask-type:luminance" maskUnits="userSpaceOnUse" x="454" y="613" width="73" height="114">
<path d="M526.421 613.216H454.913V726.461H526.421V613.216Z" fill="white"/>
<path d="M454.913 623.707L503.278 613.541L524.671 715.318L476.306 725.484L454.913 623.707Z" fill="black"/>
</mask>
<g mask="url(#mask3_431_1183)">
<path d="M502.3 613.746L523.692 715.523L525.65 715.112L504.257 613.335L502.3 613.746Z" fill="black"/>
</g>
<path d="M183.639 614.957L231.337 625.905L208.071 727.27L160.372 716.322L183.639 614.957Z" fill="#5D5D5A"/>
<mask id="mask4_431_1183" style="mask-type:luminance" maskUnits="userSpaceOnUse" x="159" y="614" width="73" height="115">
<path d="M231.396 614.733H159.174V728.257H231.396V614.733Z" fill="white"/>
<path d="M183.639 614.957L231.337 625.905L208.071 727.27L160.372 716.322L183.639 614.957Z" fill="black"/>
</mask>
<g mask="url(#mask4_431_1183)">
<path d="M161.347 716.546L184.613 615.181L182.664 614.733L159.398 716.098L161.347 716.546Z" fill="black"/>
</g>
<path d="M286.247 605.909V570.432C286.247 567.394 283.785 564.932 280.747 564.932H221.719C218.681 564.932 216.219 567.394 216.219 570.432V605.909C216.219 608.947 218.681 611.409 221.719 611.409H280.747C283.785 611.409 286.247 608.947 286.247 605.909Z" fill="#5D5D5A" stroke="black"/>
<path d="M266.266 617.371L233.118 648.505L185.228 597.518L218.376 566.383L266.266 617.371Z" fill="#5D5D5A"/>
<mask id="mask5_431_1183" style="mask-type:luminance" maskUnits="userSpaceOnUse" x="184" y="565" width="83" height="84">
<path d="M266.266 565.619H184.129V648.863H266.266V565.619Z" fill="white"/>
<path d="M266.266 617.371L233.118 648.505L185.228 597.518L218.376 566.383L266.266 617.371Z" fill="black"/>
</mask>
<g mask="url(#mask5_431_1183)">
<path d="M185.912 598.247L219.061 567.112L217.691 565.654L184.543 596.789L185.912 598.247Z" fill="black"/>
</g>
<path d="M313.516 596.112L281.194 628.104L250.828 597.423L283.15 565.432L313.516 596.112Z" fill="#5D5D5A"/>
<mask id="mask6_431_1183" style="mask-type:luminance" maskUnits="userSpaceOnUse" x="249" y="564" width="66" height="65">
<path d="M314.227 564.136H249.87V628.471H314.227V564.136Z" fill="white"/>
<path d="M313.516 596.112L281.194 628.104L250.828 597.423L283.15 565.432L313.516 596.112Z" fill="black"/>
</mask>
<g mask="url(#mask6_431_1183)">
<path d="M282.439 566.135L312.805 596.816L314.227 595.409L283.861 564.729L282.439 566.135Z" fill="black"/>
</g>
<path d="M470.593 607.909V568.432C470.593 566.499 469.026 564.932 467.093 564.932H404.065C402.132 564.932 400.565 566.499 400.565 568.432V607.909C400.565 609.842 402.132 611.409 404.065 611.409H467.093C469.026 611.409 470.593 609.842 470.593 607.909Z" fill="#5D5D5A" stroke="black"/>
<path d="M453.31 611.353L426.628 641.632L375.078 596.206L401.76 565.927L453.31 611.353Z" fill="#5D5D5A"/>
<mask id="mask7_431_1183" style="mask-type:luminance" maskUnits="userSpaceOnUse" x="373" y="565" width="81" height="78">
<path d="M453.31 565.073H373.685V642.114H453.31V565.073Z" fill="white"/>
<path d="M453.31 611.353L426.628 641.632L375.078 596.206L401.76 565.927L453.31 611.353Z" fill="black"/>
</mask>
<g mask="url(#mask7_431_1183)">
<path d="M375.828 596.867L402.511 566.588L401.01 565.266L374.328 595.545L375.828 596.867Z" fill="black"/>
</g>
<path d="M450.148 650.781C449.756 651.171 449.123 651.169 448.734 650.778L417.002 618.897C416.613 618.506 416.614 617.873 417.006 617.483L468.407 566.323C468.798 565.933 469.431 565.934 469.821 566.326L501.552 598.206C501.942 598.598 501.94 599.231 501.549 599.62L450.148 650.781Z" fill="#5D5D5A"/>
<mask id="mask8_431_1183" style="mask-type:luminance" maskUnits="userSpaceOnUse" x="416" y="564" width="88" height="88">
<path d="M503.305 564.561H416.283V651.487H503.305V564.561Z" fill="white"/>
<path d="M450.148 650.781C449.756 651.171 449.123 651.169 448.734 650.778L417.002 618.897C416.613 618.506 416.614 617.873 417.006 617.483L468.407 566.323C468.798 565.933 469.431 565.934 469.821 566.326L501.552 598.206C501.942 598.598 501.94 599.231 501.549 599.62L450.148 650.781Z" fill="black"/>
</mask>
<g mask="url(#mask8_431_1183)">
<path d="M468.407 566.323C469.189 565.543 470.456 565.546 471.235 566.329L501.555 596.792C502.335 597.575 502.332 598.841 501.549 599.62C501.549 599.62 501.233 599.303 500.843 598.912L469.112 567.031C468.722 566.64 468.407 566.323 468.407 566.323Z" fill="black"/>
</g>
<path d="M398.959 713.928L427.572 678.58L447.115 694.4L418.502 729.748L398.959 713.928Z" fill="#5D5D5A"/>
<mask id="mask9_431_1183" style="mask-type:luminance" maskUnits="userSpaceOnUse" x="398" y="678" width="51" height="54">
<path d="M448.11 678.174H398.33V731.064H448.11V678.174Z" fill="white"/>
<path d="M398.959 713.928L427.572 678.58L447.115 694.4L418.502 729.748L398.959 713.928Z" fill="black"/>
</mask>
<g mask="url(#mask9_431_1183)">
<path d="M419.131 728.97L399.589 713.151L398.33 714.706L417.873 730.525L419.131 728.97Z" fill="black"/>
</g>
<path d="M268.053 727.473L242.041 690.168L261.297 676.742L287.308 714.046L268.053 727.473Z" fill="#5D5D5A"/>
<mask id="mask10_431_1183" style="mask-type:luminance" maskUnits="userSpaceOnUse" x="241" y="676" width="48" height="53">
<path d="M288.312 676.013H241.743V728.293H288.312V676.013Z" fill="white"/>
<path d="M268.053 727.473L242.041 690.168L261.297 676.742L287.308 714.046L268.053 727.473Z" fill="black"/>
</mask>
<g mask="url(#mask10_431_1183)">
<path d="M286.736 713.226L267.481 726.652L268.625 728.293L287.88 714.866L286.736 713.226Z" fill="black"/>
</g>
<path d="M247.985 651.202C262.838 651.202 274.878 639.162 274.878 624.309C274.878 609.456 262.838 597.416 247.985 597.416C233.132 597.416 221.092 609.456 221.092 624.309C221.092 639.162 233.132 651.202 247.985 651.202Z" fill="#FFA45C" stroke="black"/>
<path d="M381.98 698.303C396.833 698.303 408.873 686.263 408.873 671.41C408.873 656.557 396.833 644.517 381.98 644.517C367.127 644.517 355.087 656.557 355.087 671.41C355.087 686.263 367.127 698.303 381.98 698.303Z" fill="#FFA45C" stroke="black"/>
<path d="M311.422 655.575C311.422 651.711 308.29 648.578 304.426 648.578C300.562 648.578 297.429 651.711 297.429 655.575V687.246C297.429 691.111 300.562 694.243 304.426 694.243C308.29 694.243 311.422 691.111 311.422 687.246V655.575Z" fill="#FFA45C" stroke="black"/>
<path d="M288.439 664.67C284.575 664.646 281.422 667.758 281.398 671.622C281.373 675.487 284.486 678.639 288.35 678.664L320.809 678.871C324.673 678.896 327.826 675.783 327.851 671.919C327.875 668.055 324.763 664.903 320.899 664.878L288.439 664.67Z" fill="#FFA45C" stroke="black"/>
<path d="M423.158 617.749C419.294 617.725 416.141 620.837 416.117 624.701C416.092 628.565 419.205 631.718 423.069 631.743L428.655 631.778C432.52 631.803 435.672 628.691 435.697 624.826C435.721 620.962 432.609 617.81 428.745 617.785L423.158 617.749Z" fill="#FFA45C" stroke="black"/>
<path d="M360.094 625.147C356.476 625.124 353.525 628.038 353.502 631.655C353.479 635.272 356.392 638.224 360.01 638.247L364.891 638.278C368.508 638.301 371.459 635.387 371.482 631.77C371.506 628.152 368.592 625.201 364.974 625.178L360.094 625.147Z" fill="#FFA45C" stroke="black"/>
<path d="M325.174 625.066C321.556 625.043 318.605 627.957 318.582 631.574C318.559 635.191 321.473 638.143 325.09 638.166L329.971 638.197C333.588 638.22 336.539 635.306 336.562 631.689C336.586 628.071 333.672 625.12 330.054 625.097L325.174 625.066Z" fill="#FFA45C" stroke="black"/>
<path d="M457.185 617.759C453.321 617.735 450.168 620.847 450.144 624.711C450.119 628.576 453.232 631.728 457.096 631.753L462.682 631.788C466.547 631.813 469.699 628.701 469.724 624.836C469.748 620.972 466.636 617.82 462.772 617.795L457.185 617.759Z" fill="#FFA45C" stroke="black"/>
<path d="M449.623 638.683C449.67 634.819 446.575 631.649 442.711 631.602C438.847 631.556 435.677 634.65 435.63 638.514L435.563 644.101C435.516 647.965 438.611 651.135 442.475 651.181C446.339 651.228 449.509 648.133 449.556 644.27L449.623 638.683Z" fill="#FFA45C" stroke="black"/>
<path d="M449.623 604.575C449.67 600.711 446.575 597.541 442.711 597.494C438.847 597.448 435.677 600.542 435.63 604.406L435.563 609.993C435.516 613.857 438.611 617.027 442.475 617.073C446.339 617.12 449.509 614.025 449.556 610.162L449.623 604.575Z" fill="#FFA45C" stroke="black"/>
<path d="M247.579 637.396C254.583 637.396 260.26 631.719 260.26 624.715C260.26 617.711 254.583 612.034 247.579 612.034C240.575 612.034 234.897 617.711 234.897 624.715C234.897 631.719 240.575 637.396 247.579 637.396Z" fill="#5D5D5A" stroke="black"/>
<path d="M381.574 684.497C388.578 684.497 394.255 678.82 394.255 671.816C394.255 664.812 388.578 659.135 381.574 659.135C374.57 659.135 368.893 664.812 368.893 671.816C368.893 678.82 374.57 684.497 381.574 684.497Z" fill="#5D5D5A" stroke="black"/>
</g>
</g>
<defs>
<linearGradient id="paint0_linear_431_1183" x1="343.5" y1="1032" x2="343.5" y2="620" gradientUnits="userSpaceOnUse">
<stop stop-color="#FFCDAB"/>
<stop offset="0.895833" stop-color="#EDF7FC" stop-opacity="0"/>
</linearGradient>
<clipPath id="clip0_431_1183">
<rect width="687" height="1031" fill="white"/>
</clipPath>
</defs>
</svg>
