<svg width="687" height="1031" viewBox="0 0 687 1031" fill="none" xmlns="http://www.w3.org/2000/svg">
<g clip-path="url(#clip0_431_1286)">
<mask id="mask0_431_1286" style="mask-type:luminance" maskUnits="userSpaceOnUse" x="0" y="0" width="687" height="1031">
<path d="M687 0H0V1031H687V0Z" fill="white"/>
</mask>
<g mask="url(#mask0_431_1286)">
<path d="M687 0H0V1031H687V0Z" fill="#FFEFA0"/>
<path fill-rule="evenodd" clip-rule="evenodd" d="M157.114 37.5651C167.801 37.5645 247.712 37.5645 262.578 37.5651C277.444 37.5658 276.979 60.3566 262.578 60.3566H199.432C197.341 62.7344 197.978 67.5222 200.773 69.0173H202.642C219.599 69.0175 218.902 89.0737 202.642 89.0737H173.215C169.884 91.5991 171.192 98.5173 176.024 98.6457C254.1 98.6456 345.947 98.6458 357.817 98.6461C378.26 98.6469 379.189 127.363 357.817 127.363H281.404C276.87 130.476 276.979 140.66 281.463 143.773C293.688 143.773 303.705 143.773 308.106 143.773C322.973 143.774 322.973 166.565 308.106 166.565H202.642C191.492 166.565 191.028 143.774 202.642 143.773C207.03 143.773 221.028 143.773 237.553 143.773C242.677 140.66 243.226 130.476 237.849 127.363H63.7278C45.8408 127.363 47.6995 98.6469 63.7278 98.6461C68.9024 98.646 99.2579 98.6458 138.684 98.6457C144.249 98.5192 145.08 91.5995 141.549 89.0737H78.5943C62.5657 89.0737 65.121 69.0175 78.5943 69.0173C88.3992 69.017 140.647 69.017 174.907 69.0171C177.159 67.5219 177.461 62.7343 175.812 60.3566H157.114C148.286 60.3566 146.428 37.5658 157.114 37.5651Z" fill="#FFD57E"/>
<path fill-rule="evenodd" clip-rule="evenodd" d="M462.614 220.315C473.301 220.314 553.212 220.314 568.078 220.315C582.944 220.316 582.479 243.107 568.078 243.107H504.933C502.842 245.484 503.479 250.272 506.274 251.767H508.142C525.099 251.767 524.402 271.824 508.142 271.824H478.715C475.384 274.349 476.691 281.266 481.522 281.396C559.598 281.396 651.447 281.396 663.317 281.396C683.76 281.397 684.689 310.113 663.317 310.113H586.904C582.369 313.225 582.479 323.41 586.963 326.523C599.188 326.523 609.205 326.523 613.606 326.523C628.473 326.524 628.473 349.314 613.606 349.314H508.142C496.992 349.314 496.528 326.524 508.142 326.523C512.53 326.523 526.528 326.523 543.053 326.523C548.177 323.409 548.726 313.225 543.349 310.113H369.228C351.341 310.113 353.199 281.397 369.228 281.396C374.403 281.396 404.759 281.396 444.186 281.396C449.749 281.267 450.579 274.349 447.049 271.824H384.094C368.066 271.824 370.621 251.767 384.094 251.767C393.899 251.767 446.148 251.767 480.408 251.767C482.66 250.272 482.962 245.484 481.313 243.107H462.614C453.786 243.107 451.928 220.316 462.614 220.315Z" fill="#FFD57E"/>
<path d="M537.874 96.8399C522.544 94.9394 510.765 100.487 493 124.954C502.914 80.0903 518.988 68.6096 556.423 78.847C583.048 47.619 601.371 32.8238 636 8C617.264 41.562 607.639 63.205 581.552 96.8399C594.434 135.693 581.255 150.333 540.268 166C557.617 146.067 564.315 134.31 561.808 114.27C556.972 120.992 554.493 123.502 546.251 127.765C539.863 119.334 525.908 112.584 525.908 112.584C525.908 112.584 530.437 101.558 537.874 96.8399Z" fill="#FFD57E"/>
<path d="M30.5527 275.154C47.0747 269.894 56.7392 266.156 74.969 264.087C81.7326 250.011 89.7385 246.286 108.678 244.244C127.696 243.064 136.138 246.073 144.369 255.31C169.241 255.066 181.348 257.223 201.08 259.127C210.451 260.893 207.344 262.036 201.08 264.087C133.366 278.046 95.979 281.669 30.5527 279.352C24.1363 278.709 22.2234 278.086 30.5527 275.154Z" fill="#FFD57E"/>
<path d="M535.501 656.44C526.174 621.921 514.381 610.894 489.334 596.308H604.752C577.451 616.159 565.948 628.659 560.636 656.44V1031H535.501V656.44Z" fill="#AC4B1C"/>
<path d="M551.402 599.472C618.45 599.472 672.804 588.845 672.804 575.736C672.804 562.627 618.45 552 551.402 552C484.354 552 430 562.627 430 575.736C430 588.845 484.354 599.472 551.402 599.472Z" fill="#AC4B1C"/>
<path fill-rule="evenodd" clip-rule="evenodd" d="M17.5319 432V488.771H21.754V497.264H37.5865V502.628L47.086 503.075V506.651L39.6975 511.569L86.1397 530.343C94.2508 533.212 96.0285 535.168 97.7502 538.837V543.307L108.833 545.989C111.992 547.11 111.44 547.556 108.833 548.224L95.1114 551.8C95.9889 555.337 92.7582 557.397 88.3492 560.208L88.3481 560.209L88.3474 560.21C87.6379 560.662 86.8979 561.134 86.1397 561.634C93.5251 561.616 95.2914 562.573 95.1114 565.657C95.5221 569.572 93.4891 570.604 86.1397 570.575H57.6411C42.5384 633.387 35.0753 668.941 33.8922 736.417C35.5675 852.95 45.095 917.152 67.1406 1031H42.7798H31.517V1010.46H5.55899V1031H-3.77301H-30.4935C-8.97906 920.296 -4.56853 854.901 -0.9394 736.417C-3.72062 671.218 -11.3746 635.035 -26.2715 570.575H-53.1868C-60.262 570.457 -62.2151 570.096 -62.1583 566.104C-62.0574 563.125 -61.6456 562.093 -55.8256 561.634C-60.4933 558.498 -62.3186 556.426 -63.2141 551.8L-76.4078 548.224C-78.2938 547.41 -78.7551 546.93 -76.4078 545.989L-66.3806 542.413V538.837C-63.8799 534.852 -61.6291 532.968 -55.8256 530.343L-7.27242 511.569L-14.1332 506.651V503.075H-7.27242V497.264H8.56014V488.771H12.7822V432H17.5319ZM-38.9371 530.343C-49.0303 533.675 -52.0406 535.534 -53.1868 538.837H86.1397C84.1264 535.454 79.6674 533.603 68.7243 530.343H-38.9371ZM-53.1868 551.8C-53.7852 555.634 -50.8858 557.788 -43.6869 561.634H75.585C83.4633 557.727 85.8893 555.568 86.1397 551.8H-53.1868ZM9.28696 662.66L8.56014 570.575H22.8097L22.8077 662.66C18.0688 686.054 14.7212 687.576 9.28696 662.66ZM29.3107 611.087C31.1748 598.405 33.6125 586.282 37.0592 570.575H29.9344L29.3107 611.087ZM-5.16101 570.575H2.22751V611.087C0.569756 599.162 -1.60228 586.828 -5.16101 570.575ZM17.2509 858.533C15.9328 861.627 14.8814 864.136 14.0329 866.918V939.587H22.775L20.7802 866.918C19.8067 864.144 18.6457 861.407 17.2509 858.533ZM5.55899 939.587L10.6005 901.514V939.587H5.55899ZM31.517 939.587L25.9393 901.514L27.146 939.587H31.517ZM31.517 954.944H5.55899V946.947H31.517V954.944ZM5.55899 971.3H31.517V963.576H5.55899V971.3ZM31.517 1002.47H5.55899V995.652H31.517V1002.47ZM31.517 986.838V979.296H5.55899V986.838H17.4654H31.517Z" fill="#AC4B1C"/>
<path fill-rule="evenodd" clip-rule="evenodd" d="M101.196 663.803L77 638.418V1031H299C239.122 968.954 211.774 933.109 183.463 865.702L180.439 587.057L131.441 634.511V556.95H157.452V545.143H131.441V533.926H157.452V522.119H131.441V456H124.787V522.119H95.1471V533.926H124.787V545.143H95.1471V556.95H124.787V640.955L101.196 663.803ZM157.452 907.617C173.282 943.781 187.598 964.335 222.782 1001.48H111.48C112.949 944.801 124.416 923.899 157.452 907.617Z" fill="#FCA652"/>
<path d="M650.833 688.185L618.402 676.84L611.195 694.011H592.195V1031H687.195V675L650.833 688.185Z" fill="#FCA652"/>
<path d="M0 1031H687L687 350L0 350L0 1031Z" fill="url(#paint0_linear_431_1286)"/>
<path d="M687 0H0V1031H687V0Z" fill="#252525" fill-opacity="0.7"/>
<path d="M249.349 612.126C249.349 649.454 225.549 679.5 196.425 679.5C167.3 679.5 143.5 649.454 143.5 612.126C143.5 574.799 167.3 544.753 196.425 544.753C225.549 544.753 249.349 574.799 249.349 612.126Z" fill="#FCA652" stroke="black"/>
<path d="M542.5 612.126C542.5 649.454 518.7 679.5 489.576 679.5C460.451 679.5 436.651 649.454 436.651 612.126C436.651 574.799 460.451 544.753 489.576 544.753C518.7 544.753 542.5 574.799 542.5 612.126Z" fill="#FCA652" stroke="black"/>
<path d="M260.308 533.629C260.308 545.593 256.708 556.405 250.911 564.214C245.114 572.023 237.146 576.804 228.388 576.804C219.63 576.804 211.662 572.023 205.865 564.214C200.068 556.405 196.468 545.593 196.468 533.629C196.468 521.665 200.068 510.853 205.865 503.044C211.662 495.235 219.63 490.454 228.388 490.454C237.146 490.454 245.114 495.235 250.911 503.044C256.708 510.853 260.308 521.665 260.308 533.629Z" fill="#FCA652" stroke="black"/>
<path d="M463.961 561.959C463.961 573.923 460.361 584.735 454.564 592.544C448.767 600.353 440.799 605.134 432.041 605.134C423.283 605.134 415.315 600.353 409.518 592.544C403.721 584.735 400.121 573.923 400.121 561.959C400.121 549.995 403.721 539.183 409.518 531.374C415.315 523.564 423.283 518.784 432.041 518.784C440.799 518.784 448.767 523.564 454.564 531.374C460.361 539.183 463.961 549.995 463.961 561.959Z" fill="#FCA652" stroke="black"/>
<path d="M407.34 533.629C407.34 578.985 370.359 615.758 324.735 615.758C279.111 615.758 242.13 578.985 242.13 533.629C242.13 488.273 279.111 451.5 324.735 451.5C370.359 451.5 407.34 488.273 407.34 533.629Z" fill="#FCA652" stroke="black"/>
<path d="M479.073 554.876H191.402V680H479.073V554.876Z" fill="#FCA652"/>
<path d="M417.5 600.5H258.5V759.5H417.5V600.5Z" fill="#AC4B1C" stroke="#252525"/>
<path d="M402.5 615.5H273.5V744.5H402.5V615.5Z" fill="#FFEFA0" stroke="#252525"/>
<path d="M387.5 630.5H288.5V729.5H387.5V630.5Z" fill="#AC4B1C" stroke="#252525"/>
<path d="M293 552V600" stroke="#AC4B1C" stroke-width="10"/>
<path d="M323 552V600" stroke="#AC4B1C" stroke-width="10"/>
<path d="M352 552V600" stroke="#AC4B1C" stroke-width="10"/>
<path d="M383 600V552" stroke="#AC4B1C" stroke-width="10"/>
<path d="M293 760V808" stroke="#AC4B1C" stroke-width="10"/>
<path d="M323 760V808" stroke="#AC4B1C" stroke-width="10"/>
<path d="M352 760V808" stroke="#AC4B1C" stroke-width="10"/>
<path d="M383 808V760" stroke="#AC4B1C" stroke-width="10"/>
<path d="M464.996 635.262L417.243 635.136" stroke="#AC4B1C" stroke-width="10"/>
<path d="M464.971 665.262L417.218 665.136" stroke="#AC4B1C" stroke-width="10"/>
<path d="M464.945 694.262L417.192 694.136" stroke="#AC4B1C" stroke-width="10"/>
<path d="M417.166 725.136L464.919 725.268" stroke="#AC4B1C" stroke-width="10"/>
<path d="M258.015 635.056L209.951 635.075" stroke="#AC4B1C" stroke-width="10"/>
<path d="M258.076 665.056L210.012 665.07" stroke="#AC4B1C" stroke-width="10"/>
<path d="M258.136 694.056L210.072 694.07" stroke="#AC4B1C" stroke-width="10"/>
<path d="M210.136 725.07L258.2 725.056" stroke="#AC4B1C" stroke-width="10"/>
<path d="M203 643.5C207.694 643.5 211.5 639.694 211.5 635C211.5 630.306 207.694 626.5 203 626.5C198.306 626.5 194.5 630.306 194.5 635C194.5 639.694 198.306 643.5 203 643.5Z" fill="#AC4B1C" stroke="#252525"/>
<path d="M203 673.5C207.694 673.5 211.5 669.694 211.5 665C211.5 660.306 207.694 656.5 203 656.5C198.306 656.5 194.5 660.306 194.5 665C194.5 669.694 198.306 673.5 203 673.5Z" fill="#AC4B1C" stroke="#252525"/>
<path d="M203 702.5C207.694 702.5 211.5 698.694 211.5 694C211.5 689.306 207.694 685.5 203 685.5C198.306 685.5 194.5 689.306 194.5 694C194.5 698.694 198.306 702.5 203 702.5Z" fill="#AC4B1C" stroke="#252525"/>
<path d="M203 733.5C207.694 733.5 211.5 729.694 211.5 725C211.5 720.306 207.694 716.5 203 716.5C198.306 716.5 194.5 720.306 194.5 725C194.5 729.694 198.306 733.5 203 733.5Z" fill="#AC4B1C" stroke="#252525"/>
<path d="M293.014 536.019C288.327 536.29 284.748 540.309 285.019 544.996C285.29 549.682 289.309 553.262 293.996 552.991C298.682 552.72 302.262 548.701 301.991 544.014C301.72 539.328 297.701 535.748 293.014 536.019Z" fill="#AC4B1C" stroke="#252525"/>
<path d="M323.013 536.16C318.327 536.431 314.747 540.45 315.018 545.137C315.289 549.823 319.308 553.403 323.995 553.132C328.681 552.861 332.261 548.842 331.99 544.155C331.719 539.469 327.7 535.889 323.013 536.16Z" fill="#AC4B1C" stroke="#252525"/>
<path d="M352.013 536.296C347.327 536.567 343.747 540.586 344.018 545.273C344.289 549.959 348.308 553.539 352.995 553.268C357.681 552.997 361.261 548.978 360.99 544.291C360.719 539.605 356.7 536.025 352.013 536.296Z" fill="#AC4B1C" stroke="#252525"/>
<path d="M383.012 536.442C378.326 536.713 374.746 540.732 375.017 545.419C375.288 550.105 379.307 553.685 383.994 553.414C388.68 553.143 392.26 549.124 391.989 544.437C391.718 539.751 387.699 536.171 383.012 536.442Z" fill="#AC4B1C" stroke="#252525"/>
<path d="M293.014 806.019C288.327 806.29 284.748 810.309 285.019 814.996C285.29 819.682 289.309 823.262 293.996 822.991C298.682 822.72 302.262 818.701 301.991 814.014C301.72 809.328 297.701 805.748 293.014 806.019Z" fill="#AC4B1C" stroke="#252525"/>
<path d="M323.013 806.16C318.327 806.431 314.747 810.45 315.018 815.137C315.289 819.823 319.308 823.403 323.995 823.132C328.681 822.861 332.261 818.842 331.99 814.155C331.719 809.469 327.7 805.889 323.013 806.16Z" fill="#AC4B1C" stroke="#252525"/>
<path d="M352.013 806.296C347.327 806.567 343.747 810.586 344.018 815.273C344.289 819.959 348.308 823.539 352.995 823.268C357.681 822.997 361.261 818.978 360.99 814.291C360.719 809.605 356.7 806.025 352.013 806.296Z" fill="#AC4B1C" stroke="#252525"/>
<path d="M383.012 806.442C378.326 806.713 374.746 810.732 375.017 815.419C375.288 820.105 379.307 823.685 383.994 823.414C388.68 823.143 392.26 819.124 391.989 814.437C391.718 809.751 387.699 806.171 383.012 806.442Z" fill="#AC4B1C" stroke="#252525"/>
<path d="M471 643.5C475.694 643.5 479.5 639.694 479.5 635C479.5 630.306 475.694 626.5 471 626.5C466.306 626.5 462.5 630.306 462.5 635C462.5 639.694 466.306 643.5 471 643.5Z" fill="#AC4B1C" stroke="#252525"/>
<path d="M471 673.5C475.694 673.5 479.5 669.694 479.5 665C479.5 660.306 475.694 656.5 471 656.5C466.306 656.5 462.5 660.306 462.5 665C462.5 669.694 466.306 673.5 471 673.5Z" fill="#AC4B1C" stroke="#252525"/>
<path d="M471 702.5C475.694 702.5 479.5 698.694 479.5 694C479.5 689.306 475.694 685.5 471 685.5C466.306 685.5 462.5 689.306 462.5 694C462.5 698.694 466.306 702.5 471 702.5Z" fill="#AC4B1C" stroke="#252525"/>
<path d="M471 733.5C475.694 733.5 479.5 729.694 479.5 725C479.5 720.306 475.694 716.5 471 716.5C466.306 716.5 462.5 720.306 462.5 725C462.5 729.694 466.306 733.5 471 733.5Z" fill="#AC4B1C" stroke="#252525"/>
</g>
</g>
<defs>
<linearGradient id="paint0_linear_431_1286" x1="343.5" y1="1031" x2="343.5" y2="350" gradientUnits="userSpaceOnUse">
<stop offset="0.109375" stop-color="#FFD57E"/>
<stop offset="0.895833" stop-color="#EDF7FC" stop-opacity="0"/>
</linearGradient>
<clipPath id="clip0_431_1286">
<rect width="687" height="1031" fill="white"/>
</clipPath>
</defs>
</svg>
