<svg width="687" height="1031" viewBox="0 0 687 1031" fill="none" xmlns="http://www.w3.org/2000/svg">
<g clip-path="url(#clip0_431_1344)">
<mask id="mask0_431_1344" style="mask-type:luminance" maskUnits="userSpaceOnUse" x="0" y="0" width="687" height="1031">
<path d="M687 0H0V1031H687V0Z" fill="white"/>
</mask>
<g mask="url(#mask0_431_1344)">
<path d="M687 0H0V1031H687V0Z" fill="#EEFBF9"/>
<path fill-rule="evenodd" clip-rule="evenodd" d="M152.114 37.5651C162.801 37.5645 242.712 37.5645 257.578 37.5651C272.444 37.5658 271.979 60.3566 257.578 60.3566H194.432C192.341 62.7344 192.978 67.5222 195.773 69.0173H197.642C214.599 69.0175 213.902 89.0737 197.642 89.0737H168.215C164.884 91.5991 166.192 98.5173 171.024 98.6457C249.1 98.6456 340.947 98.6458 352.817 98.6461C373.26 98.6469 374.189 127.363 352.817 127.363H276.404C271.87 130.476 271.979 140.66 276.463 143.773C288.688 143.773 298.705 143.773 303.106 143.773C317.973 143.774 317.973 166.565 303.106 166.565H197.642C186.492 166.565 186.028 143.774 197.642 143.773C202.03 143.773 216.028 143.773 232.553 143.773C237.677 140.66 238.226 130.476 232.849 127.363H58.7278C40.8408 127.363 42.6995 98.6469 58.7278 98.6461C63.9024 98.646 94.2579 98.6458 133.684 98.6457C139.249 98.5192 140.08 91.5995 136.549 89.0737H73.5943C57.5657 89.0737 60.121 69.0175 73.5943 69.0173C83.3992 69.017 135.647 69.017 169.907 69.0171C172.159 67.5219 172.461 62.7343 170.812 60.3566H152.114C143.286 60.3566 141.428 37.5658 152.114 37.5651Z" fill="#BCEAE4"/>
<path fill-rule="evenodd" clip-rule="evenodd" d="M457.614 220.315C468.301 220.314 548.212 220.314 563.078 220.315C577.944 220.316 577.479 243.107 563.078 243.107H499.933C497.842 245.484 498.479 250.272 501.274 251.767H503.142C520.099 251.767 519.402 271.824 503.142 271.824H473.715C470.384 274.349 471.691 281.266 476.522 281.396C554.598 281.396 646.447 281.396 658.317 281.396C678.76 281.397 679.689 310.113 658.317 310.113H581.904C577.369 313.225 577.479 323.41 581.963 326.523C594.188 326.523 604.205 326.523 608.606 326.523C623.473 326.524 623.473 349.314 608.606 349.314H503.142C491.992 349.314 491.528 326.524 503.142 326.523C507.53 326.523 521.528 326.523 538.053 326.523C543.177 323.409 543.726 313.225 538.349 310.113H364.228C346.341 310.113 348.199 281.397 364.228 281.396C369.403 281.396 399.759 281.396 439.186 281.396C444.749 281.267 445.579 274.349 442.049 271.824H379.094C363.066 271.824 365.621 251.767 379.094 251.767C388.899 251.767 441.148 251.767 475.408 251.767C477.66 250.272 477.962 245.484 476.313 243.107H457.614C448.786 243.107 446.928 220.316 457.614 220.315Z" fill="#BCEAE4"/>
<path d="M532.874 96.8399C517.544 94.9394 505.765 100.487 488 124.954C497.914 80.0903 513.988 68.6096 551.423 78.847C578.048 47.619 596.371 32.8238 631 8C612.264 41.562 602.639 63.205 576.552 96.8399C589.434 135.693 576.255 150.333 535.268 166C552.617 146.067 559.315 134.31 556.808 114.27C551.972 120.992 549.493 123.502 541.251 127.765C534.863 119.334 520.908 112.584 520.908 112.584C520.908 112.584 525.437 101.558 532.874 96.8399Z" fill="#BCEAE4"/>
<path d="M25.5527 275.154C42.0747 269.894 51.7392 266.156 69.969 264.087C76.7326 250.011 84.7385 246.286 103.678 244.244C122.696 243.064 131.138 246.073 139.369 255.31C164.241 255.066 176.348 257.223 196.08 259.127C205.451 260.893 202.344 262.036 196.08 264.087C128.366 278.046 90.979 281.669 25.5527 279.352C19.1363 278.709 17.2234 278.086 25.5527 275.154Z" fill="#BCEAE4"/>
<path d="M534.501 656.44C525.174 621.921 513.381 610.894 488.333 596.308H603.751C576.451 616.159 564.947 628.659 559.636 656.44V1031H534.501V656.44Z" fill="#8293E7"/>
<path d="M550.402 599.472C617.45 599.472 671.804 588.845 671.804 575.736C671.804 562.627 617.45 552 550.402 552C483.354 552 429 562.627 429 575.736C429 588.845 483.354 599.472 550.402 599.472Z" fill="#8293E7"/>
<path fill-rule="evenodd" clip-rule="evenodd" d="M16.5319 432V488.771H20.754V497.264H36.5865V502.628L46.086 503.075V506.651L38.6975 511.569L85.1397 530.343C93.2508 533.212 95.0285 535.168 96.7502 538.837V543.307L107.833 545.989C110.992 547.11 110.44 547.556 107.833 548.224L94.1114 551.8C94.9889 555.337 91.7582 557.397 87.3492 560.208L87.3481 560.209L87.3474 560.21C86.6379 560.662 85.8979 561.134 85.1397 561.634C92.5251 561.616 94.2914 562.573 94.1114 565.657C94.5221 569.572 92.4891 570.604 85.1397 570.575H56.6411C41.5384 633.387 34.0753 668.941 32.8922 736.417C34.5675 852.95 44.095 917.152 66.1406 1031H41.7798H30.517V1010.46H4.55899V1031H-4.77301H-31.4935C-9.97906 920.296 -5.56854 854.901 -1.9394 736.417C-4.72062 671.218 -12.3746 635.035 -27.2715 570.575H-54.1868C-61.262 570.457 -63.2151 570.096 -63.1583 566.104C-63.0574 563.125 -62.6456 562.093 -56.8256 561.634C-61.4933 558.498 -63.3186 556.426 -64.2141 551.8L-77.4078 548.224C-79.2938 547.41 -79.7551 546.93 -77.4078 545.989L-67.3806 542.413V538.837C-64.8799 534.852 -62.6291 532.968 -56.8256 530.343L-8.27242 511.569L-15.1332 506.651V503.075H-8.27242V497.264H7.56014V488.771H11.7822V432H16.5319ZM-39.9371 530.343C-50.0303 533.675 -53.0406 535.534 -54.1868 538.837H85.1397C83.1264 535.454 78.6674 533.603 67.7243 530.343H-39.9371ZM-54.1868 551.8C-54.7852 555.634 -51.8858 557.788 -44.6869 561.634H74.585C82.4633 557.727 84.8893 555.568 85.1397 551.8H-54.1868ZM8.28696 662.66L7.56014 570.575H21.8097L21.8077 662.66C17.0688 686.054 13.7212 687.576 8.28696 662.66ZM28.3107 611.087C30.1748 598.405 32.6125 586.282 36.0592 570.575H28.9344L28.3107 611.087ZM-6.16101 570.575H1.22751V611.087C-0.430244 599.162 -2.60228 586.828 -6.16101 570.575ZM16.2509 858.533C14.9328 861.627 13.8814 864.136 13.0329 866.918V939.587H21.775L19.7802 866.918C18.8067 864.144 17.6457 861.407 16.2509 858.533ZM4.55899 939.587L9.60043 901.514V939.587H4.55899ZM30.517 939.587L24.9393 901.514L26.146 939.587H30.517ZM30.517 954.944H4.55899V946.947H30.517V954.944ZM4.55899 971.3H30.517V963.576H4.55899V971.3ZM30.517 1002.47H4.55899V995.652H30.517V1002.47ZM30.517 986.838V979.296H4.55899V986.838H16.4654H30.517Z" fill="#8293E7"/>
<path fill-rule="evenodd" clip-rule="evenodd" d="M100.196 663.803L76 638.418V1031H298C238.122 968.954 210.774 933.109 182.463 865.702L179.439 587.057L130.441 634.511V556.95H156.452V545.143H130.441V533.926H156.452V522.119H130.441V456H123.787V522.119H94.1471V533.926H123.787V545.143H94.1471V556.95H123.787V640.955L100.196 663.803ZM156.452 907.617C172.282 943.781 186.598 964.335 221.782 1001.48H110.48C111.949 944.801 123.416 923.899 156.452 907.617Z" fill="#B5C7F0"/>
<path d="M649.833 688.185L617.402 676.84L610.195 694.011H591.195V1031H686.195V675L649.833 688.185Z" fill="#B5C7F0"/>
<path d="M0 1031H687V619H0V1031Z" fill="url(#paint0_linear_431_1344)"/>
<path d="M687 0H0V1031H687V0Z" fill="#252525" fill-opacity="0.7"/>
<path d="M433.393 491.986C433.393 504.485 430.862 513.454 426.339 519.897C421.82 526.335 415.271 530.311 407.119 532.747C398.957 535.186 389.214 536.074 378.348 536.347C371.448 536.52 364.121 536.446 356.474 536.369C352.072 536.325 347.563 536.279 342.968 536.279C338.373 536.279 333.865 536.325 329.462 536.369C321.815 536.446 314.488 536.52 307.589 536.347C296.722 536.074 286.979 535.186 278.817 532.747C270.665 530.311 264.117 526.335 259.598 519.897C255.075 513.454 252.543 504.485 252.543 491.986C252.543 442.012 293.028 401.5 342.968 401.5C392.908 401.5 433.393 442.012 433.393 491.986Z" fill="#8293E7" stroke="black"/>
<path d="M405.744 486.164C405.744 494.606 404.016 500.642 400.947 504.969C397.882 509.291 393.436 511.968 387.88 513.611C382.316 515.256 375.666 515.857 368.235 516.042C363.516 516.159 358.508 516.109 353.278 516.057C350.266 516.027 347.179 515.996 344.032 515.996C340.884 515.996 337.798 516.027 334.785 516.057C329.555 516.109 324.547 516.159 319.829 516.042C312.397 515.857 305.748 515.256 300.183 513.611C294.628 511.968 290.182 509.291 287.117 504.969C284.048 500.642 282.32 494.606 282.32 486.164C282.32 452.417 309.945 425.051 344.032 425.051C378.119 425.051 405.744 452.417 405.744 486.164Z" fill="#EEFBF9" stroke="black"/>
<path d="M422.894 544.946H269.424C263.625 544.946 258.924 549.647 258.924 555.446V734.699C258.924 740.498 263.625 745.199 269.424 745.199H422.894C428.693 745.199 433.394 740.498 433.394 734.699V555.446C433.394 549.647 428.693 544.946 422.894 544.946Z" fill="#8293E7" stroke="black"/>
<path d="M253.386 571.63L244.82 556.695C241.935 551.665 235.531 549.949 230.518 552.863L185.57 578.986C180.556 581.899 178.83 588.339 181.716 593.37L190.281 608.305C193.167 613.335 199.57 615.051 204.584 612.137L249.531 586.014C254.545 583.1 256.271 576.66 253.386 571.63Z" fill="#8293E7" stroke="black"/>
<path d="M448.111 553.889L439.545 568.824C436.66 573.855 438.386 580.295 443.399 583.209L488.347 609.331C493.361 612.245 499.764 610.529 502.649 605.499L511.215 590.564C514.1 585.534 512.375 579.094 507.361 576.18L462.413 550.057C457.4 547.143 450.996 548.859 448.111 553.889Z" fill="#8293E7" stroke="black"/>
<mask id="mask1_431_1344" style="mask-type:luminance" maskUnits="userSpaceOnUse" x="143" y="604" width="55" height="49">
<path d="M188.43 650.593C191.755 647.456 194.201 643.494 195.522 639.105C196.844 634.715 196.994 630.053 195.958 625.587C194.921 621.12 192.735 617.007 189.619 613.661C186.503 610.315 182.567 607.853 178.206 606.524C173.845 605.195 169.213 605.045 164.776 606.089C160.339 607.133 156.254 609.335 152.93 612.472C149.607 615.61 147.162 619.573 145.843 623.963C144.523 628.353 144.375 633.015 145.414 637.481L157.525 634.628C156.984 632.303 157.061 629.875 157.748 627.589C158.435 625.303 159.708 623.239 161.439 621.605C163.17 619.971 165.297 618.825 167.608 618.281C169.918 617.737 172.33 617.815 174.601 618.508C176.872 619.2 178.922 620.482 180.545 622.224C182.167 623.967 183.306 626.108 183.845 628.434C184.385 630.76 184.307 633.188 183.619 635.474C182.931 637.76 181.657 639.823 179.925 641.456L188.43 650.593Z" fill="#8293E7" stroke="black" stroke-width="2"/>
</mask>
<g mask="url(#mask1_431_1344)">
<path d="M188.43 650.593C191.755 647.456 194.201 643.494 195.522 639.105C196.844 634.715 196.994 630.053 195.958 625.587C194.921 621.12 192.735 617.007 189.619 613.661C186.503 610.315 182.567 607.853 178.206 606.524C173.845 605.195 169.213 605.045 164.776 606.089C160.339 607.133 156.254 609.335 152.93 612.472C149.607 615.61 147.162 619.573 145.843 623.963C144.523 628.353 144.375 633.015 145.414 637.481L157.525 634.628C156.984 632.303 157.061 629.875 157.748 627.589C158.435 625.303 159.708 623.239 161.439 621.605C163.17 619.971 165.297 618.825 167.608 618.281C169.918 617.737 172.33 617.815 174.601 618.508C176.872 619.2 178.922 620.482 180.545 622.224C182.167 623.967 183.306 626.108 183.845 628.434C184.385 630.76 184.307 633.188 183.619 635.474C182.931 637.76 181.657 639.823 179.925 641.456L188.43 650.593Z" fill="#8293E7" stroke="black" stroke-width="2"/>
</g>
<mask id="mask2_431_1344" style="mask-type:luminance" maskUnits="userSpaceOnUse" x="495" y="601" width="55" height="49">
<path d="M548.068 633.392C548.933 628.889 548.606 624.235 547.119 619.9C545.632 615.565 543.037 611.7 539.596 608.694C536.154 605.688 531.987 603.647 527.514 602.776C523.04 601.906 518.418 602.236 514.111 603.734C509.805 605.232 505.966 607.845 502.98 611.31C499.995 614.775 497.968 618.97 497.104 623.473C496.24 627.976 496.57 632.629 498.058 636.964C499.547 641.299 502.144 645.163 505.587 648.167L513.734 638.706C511.941 637.142 510.589 635.13 509.814 632.873C509.039 630.615 508.867 628.192 509.317 625.847C509.767 623.502 510.822 621.317 512.377 619.513C513.932 617.709 515.931 616.348 518.173 615.568C520.416 614.788 522.823 614.616 525.153 615.069C527.482 615.523 529.652 616.586 531.444 618.151C533.236 619.716 534.588 621.729 535.362 623.986C536.137 626.244 536.307 628.667 535.856 631.012L548.068 633.392Z" fill="#8293E7" stroke="black" stroke-width="2"/>
</mask>
<g mask="url(#mask2_431_1344)">
<path d="M548.068 633.392C548.933 628.889 548.606 624.235 547.119 619.9C545.632 615.565 543.037 611.7 539.596 608.694C536.154 605.688 531.987 603.647 527.514 602.776C523.04 601.906 518.418 602.236 514.111 603.734C509.805 605.232 505.966 607.845 502.98 611.31C499.995 614.775 497.968 618.97 497.104 623.473C496.24 627.976 496.57 632.629 498.058 636.964C499.547 641.299 502.144 645.163 505.587 648.167L513.734 638.706C511.941 637.142 510.589 635.13 509.814 632.873C509.039 630.615 508.867 628.192 509.317 625.847C509.767 623.502 510.822 621.317 512.377 619.513C513.932 617.709 515.931 616.348 518.173 615.568C520.416 614.788 522.823 614.616 525.153 615.069C527.482 615.523 529.652 616.586 531.444 618.151C533.236 619.716 534.588 621.729 535.362 623.986C536.137 626.244 536.307 628.667 535.856 631.012L548.068 633.392Z" fill="#8293E7" stroke="black" stroke-width="2"/>
</g>
<path d="M444.163 755.834H246.028C240.229 755.834 235.528 760.535 235.528 766.334V800C235.528 805.799 240.229 810.5 246.028 810.5H444.163C449.962 810.5 454.663 805.799 454.663 800V766.334C454.663 760.535 449.962 755.834 444.163 755.834Z" fill="#8293E7" stroke="black"/>
<path d="M387.799 592.048H303.454C297.655 592.048 292.954 596.749 292.954 602.548V687.598C292.954 693.397 297.655 698.098 303.454 698.098H387.799C393.598 698.098 398.299 693.397 398.299 687.598V602.548C398.299 596.749 393.598 592.048 387.799 592.048Z" fill="#EEFBF9" stroke="black"/>
<path d="M327.42 660.958C326.113 660.692 324.993 660.345 324.06 659.918C323.127 659.518 322.353 659.012 321.74 658.398C321.153 657.785 320.713 657.052 320.42 656.198C320.153 655.345 320.02 654.358 320.02 653.238L320.06 649.438C320.06 647.892 319.713 646.692 319.02 645.838C318.353 644.958 317.393 644.505 316.14 644.478H314.42V641.438H316.22C317.473 641.412 318.42 640.972 319.06 640.118C319.727 639.265 320.06 638.052 320.06 636.478L320.02 632.678C320.02 630.492 320.593 628.798 321.74 627.598C322.887 626.398 324.78 625.518 327.42 624.958L328.14 627.718C326.993 628.092 326.087 628.492 325.42 628.918C324.78 629.345 324.327 629.905 324.06 630.598C323.793 631.265 323.66 632.145 323.66 633.238L323.74 637.038C323.74 638.585 323.38 639.865 322.66 640.878C321.967 641.892 320.953 642.598 319.62 642.998L319.58 642.878C320.94 643.332 321.967 644.065 322.66 645.078C323.38 646.092 323.74 647.358 323.74 648.878L323.66 652.678C323.66 653.772 323.793 654.652 324.06 655.318C324.327 655.985 324.78 656.532 325.42 656.958C326.087 657.385 326.993 657.798 328.14 658.198L327.42 660.958ZM333.665 653.398C332.785 653.398 332.105 653.145 331.625 652.638C331.145 652.105 330.905 651.358 330.905 650.398C330.905 649.518 331.159 648.798 331.665 648.238C332.172 647.678 332.839 647.398 333.665 647.398C334.545 647.398 335.225 647.665 335.705 648.198C336.185 648.705 336.425 649.438 336.425 650.398C336.425 651.278 336.172 651.998 335.665 652.558C335.159 653.118 334.492 653.398 333.665 653.398ZM342.767 653.398C341.887 653.398 341.207 653.145 340.727 652.638C340.247 652.105 340.007 651.358 340.007 650.398C340.007 649.518 340.26 648.798 340.767 648.238C341.274 647.678 341.94 647.398 342.767 647.398C343.647 647.398 344.327 647.665 344.807 648.198C345.287 648.705 345.527 649.438 345.527 650.398C345.527 651.278 345.274 651.998 344.767 652.558C344.26 653.118 343.594 653.398 342.767 653.398ZM351.869 653.398C350.989 653.398 350.309 653.145 349.829 652.638C349.349 652.105 349.109 651.358 349.109 650.398C349.109 649.518 349.362 648.798 349.869 648.238C350.375 647.678 351.042 647.398 351.869 647.398C352.749 647.398 353.429 647.665 353.909 648.198C354.389 648.705 354.629 649.438 354.629 650.398C354.629 651.278 354.375 651.998 353.869 652.558C353.362 653.118 352.695 653.398 351.869 653.398ZM358.09 660.958L357.37 658.198C358.517 657.825 359.41 657.425 360.05 656.998C360.69 656.572 361.143 656.012 361.41 655.318C361.703 654.652 361.85 653.772 361.85 652.678L361.77 648.878C361.77 647.332 362.117 646.052 362.81 645.038C363.53 644.025 364.557 643.318 365.89 642.918L365.93 643.038C364.57 642.585 363.53 641.852 362.81 640.838C362.117 639.825 361.77 638.558 361.77 637.038L361.85 633.238C361.85 632.145 361.717 631.265 361.45 630.598C361.183 629.932 360.73 629.385 360.09 628.958C359.45 628.505 358.543 628.092 357.37 627.718L358.09 624.958C359.397 625.225 360.517 625.572 361.45 625.998C362.383 626.398 363.143 626.905 363.73 627.518C364.343 628.132 364.783 628.865 365.05 629.718C365.343 630.572 365.49 631.558 365.49 632.678L365.45 636.478C365.45 638.025 365.783 639.238 366.45 640.118C367.143 640.972 368.117 641.412 369.37 641.438H371.09V644.478H369.29C368.037 644.505 367.077 644.945 366.41 645.798C365.77 646.652 365.45 647.865 365.45 649.438L365.49 653.238C365.49 655.425 364.917 657.118 363.77 658.318C362.623 659.518 360.73 660.398 358.09 660.958Z" fill="black"/>
</g>
</g>
<defs>
<linearGradient id="paint0_linear_431_1344" x1="343.5" y1="1031" x2="343.5" y2="619" gradientUnits="userSpaceOnUse">
<stop stop-color="#BCEAE4"/>
<stop offset="0.895833" stop-color="#EDF7FC" stop-opacity="0"/>
</linearGradient>
<clipPath id="clip0_431_1344">
<rect width="687" height="1031" fill="white"/>
</clipPath>
</defs>
</svg>
